<svg width="128" height="128" viewBox="0 0 128 128" fill="none" xmlns="http://www.w3.org/2000/svg">
<circle cx="64" cy="64" r="64" fill="url(#paint0_linear)"/>
<path d="M25.3789 54.5605L45.2471 62.5903V68.811L19.2852 56.7822V52.1484L45.2471 40.1514V46.3721L25.3789 54.5605ZM55.689 78.9673H50.6426L69.9395 28.7891H74.9541L55.689 78.9673ZM102.09 54.3701L81.1113 46.1499V40.1196L108.216 52.1167V56.7505L81.1113 68.7793V62.6855L102.09 54.3701Z" fill="white"/>
<path d="M29.8252 100V92.8906H32.1494C32.9209 92.8906 33.5003 93.0501 33.8877 93.3691C34.2783 93.6882 34.4736 94.1602 34.4736 94.7852C34.4736 95.1172 34.3792 95.4118 34.1904 95.6689C34.0016 95.9229 33.7445 96.1198 33.4189 96.2598C33.8031 96.3672 34.1058 96.5723 34.3271 96.875C34.5518 97.1745 34.6641 97.5326 34.6641 97.9492C34.6641 98.5872 34.4574 99.0885 34.0439 99.4531C33.6305 99.8177 33.0462 100 32.291 100H29.8252ZM30.7627 96.6748V99.2334H32.3105C32.7467 99.2334 33.0902 99.1211 33.3408 98.8965C33.5947 98.6686 33.7217 98.3561 33.7217 97.959C33.7217 97.1029 33.2562 96.6748 32.3252 96.6748H30.7627ZM30.7627 95.9229H32.1787C32.5889 95.9229 32.916 95.8203 33.1602 95.6152C33.4076 95.4102 33.5312 95.1318 33.5312 94.7803C33.5312 94.3896 33.4173 94.1064 33.1895 93.9307C32.9616 93.7516 32.6149 93.6621 32.1494 93.6621H30.7627V95.9229ZM36.8955 100H35.9922V94.7168H36.8955V100ZM35.9189 93.3154C35.9189 93.1689 35.9629 93.0452 36.0508 92.9443C36.1419 92.8434 36.2754 92.793 36.4512 92.793C36.627 92.793 36.7604 92.8434 36.8516 92.9443C36.9427 93.0452 36.9883 93.1689 36.9883 93.3154C36.9883 93.4619 36.9427 93.584 36.8516 93.6816C36.7604 93.7793 36.627 93.8281 36.4512 93.8281C36.2754 93.8281 36.1419 93.7793 36.0508 93.6816C35.9629 93.584 35.9189 93.4619 35.9189 93.3154ZM39.5713 93.4375V94.7168H40.5576V95.415H39.5713V98.6914C39.5713 98.903 39.6152 99.0625 39.7031 99.1699C39.791 99.2741 39.9408 99.3262 40.1523 99.3262C40.2565 99.3262 40.3997 99.3066 40.582 99.2676V100C40.3444 100.065 40.1133 100.098 39.8887 100.098C39.485 100.098 39.1807 99.9756 38.9756 99.7314C38.7705 99.4873 38.668 99.1406 38.668 98.6914V95.415H37.7061V94.7168H38.668V93.4375H39.5713ZM46.334 96.8311C45.5299 96.5999 44.944 96.3167 44.5762 95.9814C44.2116 95.6429 44.0293 95.2262 44.0293 94.7314C44.0293 94.1715 44.2523 93.7093 44.6982 93.3447C45.1475 92.9769 45.7301 92.793 46.4463 92.793C46.9346 92.793 47.3691 92.8874 47.75 93.0762C48.1341 93.265 48.4303 93.5254 48.6387 93.8574C48.8503 94.1895 48.9561 94.5524 48.9561 94.9463H48.0137C48.0137 94.5166 47.877 94.1797 47.6035 93.9355C47.3301 93.6882 46.9443 93.5645 46.4463 93.5645C45.984 93.5645 45.6227 93.667 45.3623 93.8721C45.1051 94.0739 44.9766 94.3555 44.9766 94.7168C44.9766 95.0065 45.0986 95.2523 45.3428 95.4541C45.5902 95.6527 46.0085 95.835 46.5977 96.001C47.1901 96.167 47.6523 96.3509 47.9844 96.5527C48.3197 96.7513 48.5671 96.984 48.7266 97.251C48.8893 97.5179 48.9707 97.832 48.9707 98.1934C48.9707 98.7695 48.7461 99.2318 48.2969 99.5801C47.8477 99.9251 47.2471 100.098 46.4951 100.098C46.0068 100.098 45.5511 100.005 45.1279 99.8193C44.7048 99.6305 44.3776 99.3734 44.1465 99.0479C43.9186 98.7223 43.8047 98.3529 43.8047 97.9395H44.7471C44.7471 98.3691 44.9049 98.7093 45.2207 98.96C45.5397 99.2074 45.9645 99.3311 46.4951 99.3311C46.9899 99.3311 47.3691 99.2301 47.6328 99.0283C47.8965 98.8265 48.0283 98.5514 48.0283 98.2031C48.0283 97.8548 47.9062 97.5863 47.6621 97.3975C47.418 97.2054 46.9753 97.0166 46.334 96.8311ZM49.7959 97.3096C49.7959 96.792 49.8968 96.3265 50.0986 95.9131C50.3037 95.4997 50.5869 95.1807 50.9482 94.9561C51.3128 94.7314 51.7279 94.6191 52.1934 94.6191C52.9128 94.6191 53.4938 94.8682 53.9365 95.3662C54.3825 95.8643 54.6055 96.5267 54.6055 97.3535V97.417C54.6055 97.9313 54.5062 98.3936 54.3076 98.8037C54.1123 99.2106 53.8307 99.528 53.4629 99.7559C53.0983 99.9837 52.6784 100.098 52.2031 100.098C51.487 100.098 50.9059 99.8486 50.46 99.3506C50.0173 98.8525 49.7959 98.1934 49.7959 97.373V97.3096ZM50.7041 97.417C50.7041 98.0029 50.8392 98.4733 51.1094 98.8281C51.3828 99.1829 51.7474 99.3604 52.2031 99.3604C52.6621 99.3604 53.0267 99.1813 53.2969 98.8232C53.5671 98.4619 53.7021 97.9574 53.7021 97.3096C53.7021 96.7301 53.5638 96.2614 53.2871 95.9033C53.0137 95.542 52.6491 95.3613 52.1934 95.3613C51.7474 95.3613 51.3877 95.5387 51.1143 95.8936C50.8408 96.2484 50.7041 96.7562 50.7041 97.417ZM56.1826 100V95.415H55.3477V94.7168H56.1826V94.1748C56.1826 93.6084 56.334 93.1706 56.6367 92.8613C56.9395 92.5521 57.3675 92.3975 57.9209 92.3975C58.1292 92.3975 58.3359 92.4251 58.541 92.4805L58.4922 93.2129C58.3392 93.1836 58.1764 93.1689 58.0039 93.1689C57.7109 93.1689 57.4847 93.2552 57.3252 93.4277C57.1657 93.597 57.0859 93.8411 57.0859 94.1602V94.7168H58.2139V95.415H57.0859V100H56.1826ZM60.4404 93.4375V94.7168H61.4268V95.415H60.4404V98.6914C60.4404 98.903 60.4844 99.0625 60.5723 99.1699C60.6602 99.2741 60.8099 99.3262 61.0215 99.3262C61.1257 99.3262 61.2689 99.3066 61.4512 99.2676V100C61.2135 100.065 60.9824 100.098 60.7578 100.098C60.3542 100.098 60.0498 99.9756 59.8447 99.7314C59.6396 99.4873 59.5371 99.1406 59.5371 98.6914V95.415H58.5752V94.7168H59.5371V93.4375H60.4404ZM67.1641 98.7549L68.1797 94.7168H69.083L67.5449 100H66.8125L65.5283 95.9961L64.2783 100H63.5459L62.0127 94.7168H62.9111L63.9512 98.6719L65.1816 94.7168H65.9092L67.1641 98.7549ZM73.2676 100C73.2155 99.8958 73.1732 99.7103 73.1406 99.4434C72.7207 99.8796 72.2194 100.098 71.6367 100.098C71.1159 100.098 70.6878 99.9512 70.3525 99.6582C70.0205 99.362 69.8545 98.9876 69.8545 98.5352C69.8545 97.985 70.0628 97.5586 70.4795 97.2559C70.8994 96.9499 71.4886 96.7969 72.2471 96.7969H73.126V96.3818C73.126 96.0661 73.0316 95.8154 72.8428 95.6299C72.654 95.4411 72.3757 95.3467 72.0078 95.3467C71.6855 95.3467 71.4154 95.4281 71.1973 95.5908C70.9792 95.7536 70.8701 95.9505 70.8701 96.1816H69.9619C69.9619 95.918 70.0547 95.6641 70.2402 95.4199C70.429 95.1725 70.6829 94.9772 71.002 94.834C71.3242 94.6908 71.6774 94.6191 72.0615 94.6191C72.6702 94.6191 73.1471 94.7721 73.4922 95.0781C73.8372 95.3809 74.0163 95.7992 74.0293 96.333V98.7646C74.0293 99.2497 74.0911 99.6354 74.2148 99.9219V100H73.2676ZM71.7686 99.3115C72.0518 99.3115 72.3203 99.2383 72.5742 99.0918C72.8281 98.9453 73.012 98.7549 73.126 98.5205V97.4365H72.418C71.3112 97.4365 70.7578 97.7604 70.7578 98.4082C70.7578 98.6914 70.8522 98.9128 71.041 99.0723C71.2298 99.2318 71.4723 99.3115 71.7686 99.3115ZM77.999 95.5273C77.8623 95.5046 77.7142 95.4932 77.5547 95.4932C76.9622 95.4932 76.5602 95.7454 76.3486 96.25V100H75.4453V94.7168H76.3242L76.3389 95.3271C76.6351 94.8551 77.055 94.6191 77.5986 94.6191C77.7744 94.6191 77.9079 94.6419 77.999 94.6875V95.5273ZM80.9287 100.098C80.2126 100.098 79.6299 99.8633 79.1807 99.3945C78.7314 98.9225 78.5068 98.2926 78.5068 97.5049V97.3389C78.5068 96.8148 78.6061 96.3477 78.8047 95.9375C79.0065 95.5241 79.2865 95.2018 79.6445 94.9707C80.0059 94.7363 80.3965 94.6191 80.8164 94.6191C81.5033 94.6191 82.0371 94.8454 82.418 95.2979C82.7988 95.7503 82.9893 96.3981 82.9893 97.2412V97.6172H79.4102C79.4232 98.138 79.5745 98.5596 79.8643 98.8818C80.1572 99.2008 80.5283 99.3604 80.9775 99.3604C81.2965 99.3604 81.5667 99.2952 81.7881 99.165C82.0094 99.0348 82.2031 98.8623 82.3691 98.6475L82.9209 99.0771C82.4782 99.7575 81.8141 100.098 80.9287 100.098ZM80.8164 95.3613C80.4518 95.3613 80.1458 95.4948 79.8984 95.7617C79.651 96.0254 79.498 96.3965 79.4395 96.875H82.0859V96.8066C82.0599 96.3477 81.9362 95.9928 81.7148 95.7422C81.4935 95.4883 81.194 95.3613 80.8164 95.3613ZM91.8906 97.7441C91.8027 98.4961 91.5244 99.0771 91.0557 99.4873C90.5902 99.8942 89.9701 100.098 89.1953 100.098C88.3555 100.098 87.6816 99.7965 87.1738 99.1943C86.6693 98.5921 86.417 97.7865 86.417 96.7773V96.0938C86.417 95.4329 86.5342 94.8519 86.7686 94.3506C87.0062 93.8493 87.3415 93.4652 87.7744 93.1982C88.2074 92.9281 88.7087 92.793 89.2783 92.793C90.0335 92.793 90.639 93.0046 91.0947 93.4277C91.5505 93.8477 91.8158 94.4303 91.8906 95.1758H90.9482C90.8669 94.6094 90.6895 94.1992 90.416 93.9453C90.1458 93.6914 89.7666 93.5645 89.2783 93.5645C88.6794 93.5645 88.209 93.7858 87.8672 94.2285C87.5286 94.6712 87.3594 95.3011 87.3594 96.1182V96.8066C87.3594 97.5781 87.5205 98.1917 87.8428 98.6475C88.165 99.1032 88.6159 99.3311 89.1953 99.3311C89.7161 99.3311 90.1149 99.2139 90.3916 98.9795C90.6715 98.7419 90.8571 98.3301 90.9482 97.7441H91.8906ZM92.7939 97.3096C92.7939 96.792 92.8949 96.3265 93.0967 95.9131C93.3018 95.4997 93.585 95.1807 93.9463 94.9561C94.3109 94.7314 94.7259 94.6191 95.1914 94.6191C95.9108 94.6191 96.4919 94.8682 96.9346 95.3662C97.3805 95.8643 97.6035 96.5267 97.6035 97.3535V97.417C97.6035 97.9313 97.5042 98.3936 97.3057 98.8037C97.1104 99.2106 96.8288 99.528 96.4609 99.7559C96.0964 99.9837 95.6764 100.098 95.2012 100.098C94.485 100.098 93.904 99.8486 93.458 99.3506C93.0153 98.8525 92.7939 98.1934 92.7939 97.373V97.3096ZM93.7021 97.417C93.7021 98.0029 93.8372 98.4733 94.1074 98.8281C94.3809 99.1829 94.7454 99.3604 95.2012 99.3604C95.6602 99.3604 96.0247 99.1813 96.2949 98.8232C96.5651 98.4619 96.7002 97.9574 96.7002 97.3096C96.7002 96.7301 96.5618 96.2614 96.2852 95.9033C96.0117 95.542 95.6471 95.3613 95.1914 95.3613C94.7454 95.3613 94.3857 95.5387 94.1123 95.8936C93.8389 96.2484 93.7021 96.7562 93.7021 97.417Z" fill="white"/>
<defs>
<linearGradient id="paint0_linear" x1="64" y1="0" x2="64" y2="128" gradientUnits="userSpaceOnUse">
<stop stop-color="#00A3FF"/>
<stop offset="1" stop-color="#004368"/>
</linearGradient>
</defs>
</svg>
