<svg width="128" height="128" viewBox="0 0 128 128" fill="none" xmlns="http://www.w3.org/2000/svg">
<circle cx="64" cy="64" r="64" fill="white"/>
<path d="M44.0967 94V32.8594H64.085C70.7197 32.8594 75.7028 34.2311 79.0342 36.9746C82.3936 39.7181 84.0732 43.7773 84.0732 49.1523C84.0732 52.0078 83.2614 54.5413 81.6377 56.7529C80.014 58.9365 77.8024 60.6302 75.0029 61.834C78.3063 62.7578 80.9098 64.5215 82.8135 67.125C84.7451 69.7005 85.7109 72.7799 85.7109 76.3633C85.7109 81.8503 83.9333 86.1615 80.3779 89.2969C76.8226 92.4323 71.7975 94 65.3027 94H44.0967ZM52.1592 65.4033V87.4072H65.4707C69.222 87.4072 72.1755 86.4414 74.3311 84.5098C76.5146 82.5501 77.6064 79.8626 77.6064 76.4473C77.6064 69.0846 73.6032 65.4033 65.5967 65.4033H52.1592ZM52.1592 58.9365H64.3369C67.8643 58.9365 70.6777 58.0547 72.7773 56.291C74.9049 54.5273 75.9688 52.1338 75.9688 49.1104C75.9688 45.751 74.9889 43.3154 73.0293 41.8037C71.0697 40.264 68.0882 39.4941 64.085 39.4941H52.1592V58.9365Z" fill="url(#paint0_linear)"/>
<defs>
<linearGradient id="paint0_linear" x1="35.1779" y1="-10.8173" x2="114.366" y2="0.386791" gradientUnits="userSpaceOnUse">
<stop stop-color="#EE0014"/>
<stop offset="1" stop-color="#4700D3"/>
</linearGradient>
</defs>
</svg>
