<svg width="300" height="300" viewBox="0 0 300 300" fill="none" xmlns="http://www.w3.org/2000/svg">
<path d="M275.806 0H24.1936C10.8318 0 0 10.8318 0 24.1936V275.806C0 289.168 10.8318 300 24.1936 300H275.806C289.168 300 300 289.168 300 275.806V24.1936C300 10.8318 289.168 0 275.806 0Z" fill="url(#paint0_linear)"/>
<g filter="url(#filter0_d)">
<path d="M260.081 162.702H177.823C170.14 162.702 163.911 168.93 163.911 176.613V258.871C163.911 266.554 170.14 272.782 177.823 272.782H260.081C267.764 272.782 273.992 266.554 273.992 258.871V176.613C273.992 168.93 267.764 162.702 260.081 162.702Z" stroke="url(#paint1_linear)" stroke-width="9"/>
</g>
<g filter="url(#filter1_d)">
<path d="M260.081 26.0081H177.823C170.14 26.0081 163.911 32.2364 163.911 39.9193V122.177C163.911 129.86 170.14 136.089 177.823 136.089H260.081C267.764 136.089 273.992 129.86 273.992 122.177V39.9193C273.992 32.2364 267.764 26.0081 260.081 26.0081Z" stroke="url(#paint2_linear)" stroke-width="9"/>
</g>
<g filter="url(#filter2_d)">
<path d="M123.387 26.0081H41.129C33.446 26.0081 27.2177 32.2364 27.2177 39.9193V258.871C27.2177 266.554 33.446 272.782 41.129 272.782H123.387C131.07 272.782 137.298 266.554 137.298 258.871V39.9193C137.298 32.2364 131.07 26.0081 123.387 26.0081Z" stroke="url(#paint3_linear)" stroke-width="9"/>
</g>
<defs>
<filter id="filter0_d" x="155.411" y="158.202" width="127.081" height="127.081" filterUnits="userSpaceOnUse" color-interpolation-filters="sRGB">
<feFlood flood-opacity="0" result="BackgroundImageFix"/>
<feColorMatrix in="SourceAlpha" type="matrix" values="0 0 0 0 0 0 0 0 0 0 0 0 0 0 0 0 0 0 127 0"/>
<feOffset dy="4"/>
<feGaussianBlur stdDeviation="2"/>
<feColorMatrix type="matrix" values="0 0 0 0 0 0 0 0 0 0 0 0 0 0 0 0 0 0 0.25 0"/>
<feBlend mode="normal" in2="BackgroundImageFix" result="effect1_dropShadow"/>
<feBlend mode="normal" in="SourceGraphic" in2="effect1_dropShadow" result="shape"/>
</filter>
<filter id="filter1_d" x="155.411" y="21.5081" width="127.081" height="127.081" filterUnits="userSpaceOnUse" color-interpolation-filters="sRGB">
<feFlood flood-opacity="0" result="BackgroundImageFix"/>
<feColorMatrix in="SourceAlpha" type="matrix" values="0 0 0 0 0 0 0 0 0 0 0 0 0 0 0 0 0 0 127 0"/>
<feOffset dy="4"/>
<feGaussianBlur stdDeviation="2"/>
<feColorMatrix type="matrix" values="0 0 0 0 0 0 0 0 0 0 0 0 0 0 0 0 0 0 0.25 0"/>
<feBlend mode="normal" in2="BackgroundImageFix" result="effect1_dropShadow"/>
<feBlend mode="normal" in="SourceGraphic" in2="effect1_dropShadow" result="shape"/>
</filter>
<filter id="filter2_d" x="18.7177" y="21.5081" width="127.081" height="263.774" filterUnits="userSpaceOnUse" color-interpolation-filters="sRGB">
<feFlood flood-opacity="0" result="BackgroundImageFix"/>
<feColorMatrix in="SourceAlpha" type="matrix" values="0 0 0 0 0 0 0 0 0 0 0 0 0 0 0 0 0 0 127 0"/>
<feOffset dy="4"/>
<feGaussianBlur stdDeviation="2"/>
<feColorMatrix type="matrix" values="0 0 0 0 0 0 0 0 0 0 0 0 0 0 0 0 0 0 0.25 0"/>
<feBlend mode="normal" in2="BackgroundImageFix" result="effect1_dropShadow"/>
<feBlend mode="normal" in="SourceGraphic" in2="effect1_dropShadow" result="shape"/>
</filter>
<linearGradient id="paint0_linear" x1="150" y1="0" x2="150" y2="300" gradientUnits="userSpaceOnUse">
<stop stop-color="#4C4C4C"/>
<stop offset="1" stop-color="#232323"/>
</linearGradient>
<linearGradient id="paint1_linear" x1="218.952" y1="157.258" x2="218.952" y2="278.226" gradientUnits="userSpaceOnUse">
<stop stop-color="#0267DE"/>
<stop offset="1" stop-color="#0149C4"/>
</linearGradient>
<linearGradient id="paint2_linear" x1="218.952" y1="20.5645" x2="218.952" y2="141.532" gradientUnits="userSpaceOnUse">
<stop stop-color="#5CCFE9"/>
<stop offset="1" stop-color="#048CC7"/>
</linearGradient>
<linearGradient id="paint3_linear" x1="82.258" y1="20.5645" x2="82.258" y2="278.226" gradientUnits="userSpaceOnUse">
<stop stop-color="#01EFF1"/>
<stop offset="1" stop-color="#01B4D2"/>
</linearGradient>
</defs>
</svg>
