<svg width="300" height="300" viewBox="0 0 300 300" fill="none" xmlns="http://www.w3.org/2000/svg">
<g clip-path="url(#clip0)">
<path d="M262.5 0H37.5C16.7893 0 0 16.7893 0 37.5V262.5C0 283.211 16.7893 300 37.5 300H262.5C283.211 300 300 283.211 300 262.5V37.5C300 16.7893 283.211 0 262.5 0Z" fill="url(#paint0_linear)"/>
<path d="M262.5 1.44238H37.5C17.5859 1.44238 1.44232 17.586 1.44232 37.5001V262.5C1.44232 282.414 17.5859 298.558 37.5 298.558H262.5C282.414 298.558 298.558 282.414 298.558 262.5V37.5001C298.558 17.586 282.414 1.44238 262.5 1.44238Z" stroke="#093B64" stroke-width="3"/>
<path d="M262.5 4.32709H37.4999C19.1789 4.32709 4.32678 19.1792 4.32678 37.5002V262.5C4.32678 280.821 19.1789 295.673 37.4999 295.673H262.5C280.821 295.673 295.673 280.821 295.673 262.5V37.5002C295.673 19.1792 280.821 4.32709 262.5 4.32709Z" stroke="url(#paint1_linear)" stroke-width="3"/>
<g filter="url(#filter0_d)">
<path d="M121.154 33.1729H49.0386C40.2764 33.1729 33.1732 40.2761 33.1732 49.0383V250.961C33.1732 259.724 40.2764 266.827 49.0386 266.827H121.154C129.916 266.827 137.019 259.724 137.019 250.961V49.0383C137.019 40.2761 129.916 33.1729 121.154 33.1729Z" stroke="white" stroke-width="7"/>
</g>
<g filter="url(#filter1_d)">
<path d="M250.962 33.1729H178.846C170.084 33.1729 162.981 40.2761 162.981 49.0383V118.269C162.981 127.031 170.084 134.134 178.846 134.134H250.962C259.724 134.134 266.827 127.031 266.827 118.269V49.0383C266.827 40.2761 259.724 33.1729 250.962 33.1729Z" stroke="white" stroke-width="7"/>
</g>
<g filter="url(#filter2_d)">
<path d="M250.962 162.981H178.846C170.084 162.981 162.981 170.084 162.981 178.846V250.961C162.981 259.724 170.084 266.827 178.846 266.827H250.962C259.724 266.827 266.827 259.724 266.827 250.961V178.846C266.827 170.084 259.724 162.981 250.962 162.981Z" stroke="white" stroke-width="7"/>
</g>
</g>
<defs>
<filter id="filter0_d" x="25.6732" y="29.6729" width="118.846" height="248.654" filterUnits="userSpaceOnUse" color-interpolation-filters="sRGB">
<feFlood flood-opacity="0" result="BackgroundImageFix"/>
<feColorMatrix in="SourceAlpha" type="matrix" values="0 0 0 0 0 0 0 0 0 0 0 0 0 0 0 0 0 0 127 0"/>
<feOffset dy="4"/>
<feGaussianBlur stdDeviation="2"/>
<feColorMatrix type="matrix" values="0 0 0 0 0 0 0 0 0 0 0 0 0 0 0 0 0 0 0.25 0"/>
<feBlend mode="normal" in2="BackgroundImageFix" result="effect1_dropShadow"/>
<feBlend mode="normal" in="SourceGraphic" in2="effect1_dropShadow" result="shape"/>
</filter>
<filter id="filter1_d" x="155.481" y="29.6729" width="118.846" height="115.962" filterUnits="userSpaceOnUse" color-interpolation-filters="sRGB">
<feFlood flood-opacity="0" result="BackgroundImageFix"/>
<feColorMatrix in="SourceAlpha" type="matrix" values="0 0 0 0 0 0 0 0 0 0 0 0 0 0 0 0 0 0 127 0"/>
<feOffset dy="4"/>
<feGaussianBlur stdDeviation="2"/>
<feColorMatrix type="matrix" values="0 0 0 0 0 0 0 0 0 0 0 0 0 0 0 0 0 0 0.25 0"/>
<feBlend mode="normal" in2="BackgroundImageFix" result="effect1_dropShadow"/>
<feBlend mode="normal" in="SourceGraphic" in2="effect1_dropShadow" result="shape"/>
</filter>
<filter id="filter2_d" x="155.481" y="159.481" width="118.846" height="118.846" filterUnits="userSpaceOnUse" color-interpolation-filters="sRGB">
<feFlood flood-opacity="0" result="BackgroundImageFix"/>
<feColorMatrix in="SourceAlpha" type="matrix" values="0 0 0 0 0 0 0 0 0 0 0 0 0 0 0 0 0 0 127 0"/>
<feOffset dy="4"/>
<feGaussianBlur stdDeviation="2"/>
<feColorMatrix type="matrix" values="0 0 0 0 0 0 0 0 0 0 0 0 0 0 0 0 0 0 0.25 0"/>
<feBlend mode="normal" in2="BackgroundImageFix" result="effect1_dropShadow"/>
<feBlend mode="normal" in="SourceGraphic" in2="effect1_dropShadow" result="shape"/>
</filter>
<linearGradient id="paint0_linear" x1="150" y1="0" x2="150" y2="300" gradientUnits="userSpaceOnUse">
<stop stop-color="#4E88BA"/>
<stop offset="1" stop-color="#175E99"/>
</linearGradient>
<linearGradient id="paint1_linear" x1="150" y1="2.88478" x2="150" y2="297.116" gradientUnits="userSpaceOnUse">
<stop stop-color="#66A0D1"/>
<stop offset="1" stop-color="#104C7E"/>
</linearGradient>
<clipPath id="clip0">
<rect width="300" height="300" fill="white"/>
</clipPath>
</defs>
</svg>
