<svg width="42" height="42" viewBox="0 0 42 42" fill="none" xmlns="http://www.w3.org/2000/svg">
<path d="M15.8799 12.9672L5.45104 21.2605C2.57076 23.5509 2.57076 27.2645 5.45104 29.5549L15.8799 37.8482C18.7602 40.1386 23.43 40.1386 26.3103 37.8482L36.7392 29.5549C39.6194 27.2645 39.6194 23.5509 36.7392 21.2605L26.3103 12.9672C23.43 10.6768 18.7602 10.6768 15.8799 12.9672Z" fill="url(#paint0_linear)"/>
<path d="M15.8592 8.56734L5.43046 16.8606C2.55023 19.151 2.55023 22.8646 5.43046 25.155L15.8592 33.4483C18.7394 35.7387 23.4092 35.7387 26.2895 33.4483L36.7182 25.155C39.5985 22.8646 39.5985 19.151 36.7182 16.8606L26.2895 8.56734C23.4092 6.27689 18.7394 6.27689 15.8592 8.56734Z" fill="url(#paint1_linear)"/>
<path d="M15.7054 4.15743L5.27665 12.4507C2.39642 14.7411 2.39642 18.4547 5.27665 20.7451L15.7054 29.0384C18.5856 31.3288 23.2554 31.3288 26.1357 29.0384L36.5644 20.7451C39.4446 18.4547 39.4446 14.7411 36.5644 12.4507L26.1357 4.15743C23.2554 1.86698 18.5856 1.86698 15.7054 4.15743Z" fill="url(#paint2_linear)"/>
<path d="M9.78223 17.774L12.3488 15.733C13.5183 14.8029 14.5337 14.2616 15.3948 14.1091C16.256 13.9506 17.0495 14.16 17.7753 14.7372C18.268 15.1289 18.5557 15.543 18.6384 15.9797C18.7249 16.4133 18.6082 16.8081 18.2886 17.1639L18.345 17.2087C18.9843 16.8859 19.5785 16.7602 20.1276 16.832C20.6804 16.9008 21.2219 17.146 21.7522 17.5676C22.5043 18.1657 22.8182 18.8491 22.6941 19.6177C22.5738 20.3832 22.0473 21.1369 21.1147 21.8785L18.0292 24.3323L9.78223 17.774ZM14.7969 18.9807L15.8123 18.1733C16.2861 17.7964 16.555 17.466 16.6189 17.1819C16.6866 16.8948 16.5512 16.6167 16.2128 16.3475C15.8969 16.0963 15.5547 16.0096 15.1861 16.0873C14.8177 16.1592 14.3832 16.3938 13.8831 16.7916L12.9636 17.5228L14.7969 18.9807ZM16.1846 20.0842L18.3338 21.7933L19.4733 20.8871C19.9545 20.5044 20.2178 20.1485 20.2629 19.8196C20.3081 19.4906 20.1408 19.1751 19.7609 18.873C19.0765 18.3288 18.2454 18.4453 17.2676 19.223L16.1846 20.0842ZM30.8396 14.145L28.2786 13.0595L25.272 15.4504L26.6371 17.4869L24.7531 18.9851L19.3829 10.0854L21.5209 8.38525L32.7236 12.6467L30.8396 14.145ZM26.3946 12.2251C24.063 11.2502 22.7449 10.6984 22.4403 10.5698C22.1395 10.4382 21.9063 10.3306 21.7409 10.2469C22.0981 10.7284 22.933 11.9574 24.2454 13.9342L26.3946 12.2251Z" fill="white"/>
<defs>
<linearGradient id="paint0_linear" x1="10.6655" y1="17.1138" x2="26.8271" y2="37.4372" gradientUnits="userSpaceOnUse">
<stop stop-color="#266BA5"/>
<stop offset="1" stop-color="#053762"/>
</linearGradient>
<linearGradient id="paint1_linear" x1="10.6449" y1="12.7139" x2="26.8065" y2="33.0371" gradientUnits="userSpaceOnUse">
<stop stop-color="#3479B4"/>
<stop offset="1" stop-color="#104B7E"/>
</linearGradient>
<linearGradient id="paint2_linear" x1="10.4911" y1="8.30403" x2="26.6527" y2="28.6272" gradientUnits="userSpaceOnUse">
<stop stop-color="#448ECD"/>
<stop offset="1" stop-color="#155B98"/>
</linearGradient>
</defs>
</svg>
