<svg width="88" height="88" viewBox="0 0 88 88" fill="none" xmlns="http://www.w3.org/2000/svg">
<g filter="url(#filter0_dd)">
<path d="M63 14H25C18.9249 14 14 18.9249 14 25V63C14 69.0751 18.9249 74 25 74H63C69.0751 74 74 69.0751 74 63V25C74 18.9249 69.0751 14 63 14Z" fill="#D8E1EA"/>
<path d="M63 14.25H25C19.0629 14.25 14.25 19.0629 14.25 25V63C14.25 68.9371 19.0629 73.75 25 73.75H63C68.9371 73.75 73.75 68.9371 73.75 63V25C73.75 19.0629 68.9371 14.25 63 14.25Z" stroke="url(#paint0_linear)" stroke-width="0.5"/>
</g>
<path d="M59.4269 44C59.4269 43.54 59.4063 43.1 59.3652 42.64L63.191 39.82C64.0138 39.22 64.24 38.1 63.7258 37.22L59.8794 30.76C59.3652 29.88 58.2544 29.52 57.3082 29.92L52.8859 31.74C52.1248 31.22 51.3226 30.76 50.4793 30.38L49.8828 25.76C49.7594 24.76 48.8749 24 47.8464 24H40.1741C39.1251 24 38.2406 24.76 38.1172 25.76L37.5207 30.38C36.6774 30.76 35.8752 31.22 35.1141 31.74L30.6918 29.92C29.7456 29.52 28.6348 29.88 28.1206 30.76L24.2742 37.24C23.76 38.12 23.9862 39.22 24.809 39.84L28.6348 42.66C28.5937 43.1 28.5731 43.54 28.5731 44C28.5731 44.46 28.5937 44.9 28.6348 45.36L24.809 48.18C23.9862 48.78 23.76 49.9 24.2742 50.78L28.1206 57.24C28.6348 58.12 29.7456 58.48 30.6918 58.08L35.1141 56.26C35.8752 56.78 36.6774 57.24 37.5207 57.62L38.1172 62.24C38.2406 63.24 39.1251 64 40.1536 64H47.8259C48.8543 64 49.7388 63.24 49.8622 62.24L50.4587 57.62C51.3021 57.24 52.1042 56.78 52.8653 56.26L57.2877 58.08C58.2339 58.48 59.3446 58.12 59.8588 57.24L63.7052 50.78C64.2195 49.9 63.9932 48.8 63.1704 48.18L59.3446 45.36C59.4063 44.9 59.4269 44.46 59.4269 44ZM44.0823 51C40.1124 51 36.8831 47.86 36.8831 44C36.8831 40.14 40.1124 37 44.0823 37C48.0521 37 51.2815 40.14 51.2815 44C51.2815 47.86 48.0521 51 44.0823 51Z" fill="#5E5CE6"/>
<defs>
<filter id="filter0_dd" x="0" y="0" width="88" height="88" filterUnits="userSpaceOnUse" color-interpolation-filters="sRGB">
<feFlood flood-opacity="0" result="BackgroundImageFix"/>
<feColorMatrix in="SourceAlpha" type="matrix" values="0 0 0 0 0 0 0 0 0 0 0 0 0 0 0 0 0 0 127 0"/>
<feOffset dx="5" dy="5"/>
<feGaussianBlur stdDeviation="4.5"/>
<feColorMatrix type="matrix" values="0 0 0 0 0.745098 0 0 0 0 0.745098 0 0 0 0 0.745098 0 0 0 0.7 0"/>
<feBlend mode="normal" in2="BackgroundImageFix" result="effect1_dropShadow"/>
<feColorMatrix in="SourceAlpha" type="matrix" values="0 0 0 0 0 0 0 0 0 0 0 0 0 0 0 0 0 0 127 0"/>
<feOffset dx="-5" dy="-5"/>
<feGaussianBlur stdDeviation="4.5"/>
<feColorMatrix type="matrix" values="0 0 0 0 1 0 0 0 0 1 0 0 0 0 1 0 0 0 0.8 0"/>
<feBlend mode="normal" in2="effect1_dropShadow" result="effect2_dropShadow"/>
<feBlend mode="normal" in="SourceGraphic" in2="effect2_dropShadow" result="shape"/>
</filter>
<linearGradient id="paint0_linear" x1="27.7143" y1="32.5714" x2="71.5714" y2="72.2857" gradientUnits="userSpaceOnUse">
<stop stop-color="#FEFEFF"/>
<stop offset="1" stop-color="#C6CEDA"/>
</linearGradient>
</defs>
</svg>
