<svg width="134" height="134" viewBox="0 0 134 134" fill="none" xmlns="http://www.w3.org/2000/svg">
<path d="M67 132.5C103.175 132.5 132.5 103.175 132.5 67C132.5 30.8253 103.175 1.5 67 1.5C30.8253 1.5 1.5 30.8253 1.5 67C1.5 103.175 30.8253 132.5 67 132.5Z" fill="url(#paint0_linear)" stroke="url(#paint1_linear)" stroke-width="3"/>
<path d="M33.8366 80.5283H33V81.3816H33.8366V80.5283ZM33.8366 53.2283V52.375H33V53.2283H33.8366ZM49.1307 55.0658L48.5988 55.7245L48.6015 55.7268L49.1307 55.0658ZM50.2704 63.8971L50.9418 64.4063L50.9448 64.4021L50.2704 63.8971ZM47.366 66.1658L47.0355 65.3819L44.8587 66.3367L47.1407 66.9876L47.366 66.1658ZM50.7851 68.5283L50.1098 69.032L50.1159 69.0403L50.7851 68.5283ZM37.366 67.7595V66.9062H36.5294V67.7595H37.366ZM37.366 77.5846H36.5294V78.4379H37.366V77.5846ZM47.0719 76.2908L47.6302 76.9263L47.6306 76.9259L47.0719 76.2908ZM37.366 64.872H36.5294V65.7254H37.366V64.872ZM46.3917 63.6908L45.8578 63.0339L45.8536 63.0374L46.3917 63.6908ZM46.502 57.2221L45.9851 57.893L45.991 57.8977L46.502 57.2221ZM37.366 56.1908V55.3375H36.5294V56.1908H37.366ZM34.6732 80.5283V53.2283H33V80.5283H34.6732ZM33.8366 54.0816H42.5866V52.375H33.8366V54.0816ZM42.5866 54.0816C45.3963 54.0816 47.3523 54.6774 48.5988 55.7245L49.6625 54.4071C47.9924 53.0042 45.5857 52.375 42.5866 52.375V54.0816ZM48.6015 55.7268C49.8317 56.7515 50.4999 58.2924 50.4999 60.5033H52.1731C52.1731 57.9143 51.3708 55.8301 49.6599 54.4049L48.6015 55.7268ZM50.4999 60.5033C50.4999 61.6045 50.1969 62.5572 49.5961 63.392L50.9448 64.4021C51.7655 63.2619 52.1731 61.952 52.1731 60.5033H50.4999ZM49.5991 63.3879C48.9864 64.2283 48.1422 64.8964 47.0355 65.3819L47.6965 66.9497C49.0407 66.3602 50.1328 65.5158 50.9418 64.4063L49.5991 63.3879ZM47.1407 66.9876C48.4183 67.3521 49.3945 68.0342 50.1098 69.0319L51.4604 68.0247C50.5091 66.6974 49.2058 65.8045 47.5913 65.344L47.1407 66.9876ZM50.1159 69.0403C50.8406 70.0259 51.2169 71.216 51.2169 72.6533H52.8901C52.8901 70.8906 52.4209 69.3307 51.4544 68.0163L50.1159 69.0403ZM51.2169 72.6533C51.2169 74.901 50.5127 76.5765 49.1656 77.7883L50.2723 79.0683C52.0379 77.4801 52.8901 75.3056 52.8901 72.6533H51.2169ZM49.1656 77.7883C47.8106 79.0071 45.8348 79.675 43.1197 79.675V81.3816C46.0908 81.3816 48.5145 80.6495 50.2723 79.0683L49.1656 77.7883ZM43.1197 79.675H33.8366V81.3816H43.1197V79.675ZM36.5294 67.7595V77.5846H38.2026V67.7595H36.5294ZM37.366 78.4379H43.1932V76.7312H37.366V78.4379ZM43.1932 78.4379C44.9788 78.4379 46.4921 77.9665 47.6302 76.9263L46.5135 75.6553C45.7644 76.3401 44.6919 76.7312 43.1932 76.7312V78.4379ZM47.6306 76.9259C48.7929 75.8619 49.3423 74.4144 49.3423 72.6908H47.6691C47.6691 74.0172 47.2626 74.9696 46.5131 75.6557L47.6306 76.9259ZM49.3423 72.6908C49.3423 70.8963 48.8608 69.399 47.7576 68.3642C46.6678 67.342 45.1132 66.9062 43.2484 66.9062V68.6129C44.8884 68.6129 45.9625 68.999 46.6251 69.6205C47.2744 70.2296 47.6691 71.1979 47.6691 72.6908H49.3423ZM43.2484 66.9062H37.366V68.6129H43.2484V66.9062ZM37.366 65.7254H42.6969V64.0187H37.366V65.7254ZM42.6969 65.7254C44.3804 65.7254 45.8212 65.2941 46.9298 64.3442L45.8536 63.0374C45.1241 63.6625 44.1016 64.0187 42.6969 64.0187V65.7254ZM46.9256 64.3477C48.0684 63.3816 48.6254 62.0615 48.6254 60.4845H46.9522C46.9522 61.6077 46.5779 62.425 45.8578 63.0339L46.9256 64.3477ZM48.6254 60.4845C48.6254 58.8214 48.1438 57.4362 47.013 56.5464L45.991 57.8977C46.5759 58.3579 46.9522 59.1478 46.9522 60.4845H48.6254ZM47.0189 56.5511C45.9478 55.6927 44.4209 55.3375 42.5866 55.3375V57.0441C44.2572 57.0441 45.3405 57.3764 45.9851 57.893L47.0189 56.5511ZM42.5866 55.3375H37.366V57.0441H42.5866V55.3375ZM36.5294 56.1908V64.872H38.2026V56.1908H36.5294ZM65.1785 68.3595L65.411 67.5398L65.4096 67.5395L65.1785 68.3595ZM58.5608 65.097L57.9915 65.7224L57.9973 65.7277L58.5608 65.097ZM59.0204 54.9721L59.5499 55.6327L59.5505 55.6323L59.0204 54.9721ZM70.5093 53.9408L70.1378 54.7053L70.1403 54.7066L70.5093 53.9408ZM73.855 56.9408L73.1463 57.3943L73.1494 57.3994L73.855 56.9408ZM75.0498 61.122V61.9754H75.8864V61.122H75.0498ZM71.5021 61.122H70.6655V61.9754H71.5021V61.122ZM69.9579 57.2408L69.3966 57.8736L69.4007 57.8773L69.9579 57.2408ZM61.5204 56.997L62.0369 57.6684L62.038 57.6675L61.5204 56.997ZM61.4469 63.0721L60.9139 63.7298L60.9185 63.7337L60.9232 63.7375L61.4469 63.0721ZM66.1712 65.1721L65.9443 65.9934L65.9454 65.9937L66.1712 65.1721ZM71.3917 67.2908L70.9572 68.0201L70.9654 68.025L71.3917 67.2908ZM74.1859 69.9721L73.4677 70.4098L73.4716 70.4163L74.1859 69.9721ZM72.5682 78.9158L73.0778 79.5925L73.0808 79.5901L72.5682 78.9158ZM60.638 79.8345L60.2972 80.6139L60.3021 80.616L60.638 79.8345ZM56.9432 76.872L56.2579 77.3614L56.261 77.3661L56.9432 76.872ZM55.6564 72.6158V71.7624H54.8198V72.6158H55.6564ZM59.2042 72.6158H60.0408V71.7624H59.2042V72.6158ZM60.9873 76.5345L60.4671 77.2029L60.4747 77.2088L60.9873 76.5345ZM70.1785 70.5346L69.6612 71.2053L69.6667 71.2096L70.1785 70.5346ZM65.4096 67.5395C62.4327 66.6666 60.3703 65.6247 59.1245 64.4664L57.9973 65.7277C59.5209 67.1443 61.8703 68.2775 64.9474 69.1796L65.4096 67.5395ZM59.1302 64.4717C57.927 63.3322 57.3387 61.9583 57.3387 60.297H55.6655C55.6655 62.4358 56.4496 64.2619 57.9916 65.7224L59.1302 64.4717ZM57.3387 60.297C57.3387 58.4115 58.0589 56.876 59.5499 55.6327L58.4909 54.3114C56.6241 55.8681 55.6655 57.8825 55.6655 60.297H57.3387ZM59.5505 55.6323C61.0597 54.3718 63.052 53.7067 65.6013 53.7067V52C62.7585 52 60.3635 52.7473 58.4904 54.3118L59.5505 55.6323ZM65.6013 53.7067C67.3298 53.7067 68.8356 54.0469 70.1378 54.7053L70.881 53.1762C69.3156 52.3848 67.5492 52 65.6013 52V53.7067ZM70.1403 54.7066C71.4602 55.3684 72.4521 56.2658 73.1463 57.3943L74.5636 56.4873C73.6892 55.0658 72.4507 53.9633 70.8784 53.175L70.1403 54.7066ZM73.1494 57.3994C73.8604 58.5373 74.2132 59.772 74.2132 61.122H75.8864C75.8864 59.4471 75.4427 57.8943 74.5605 56.4822L73.1494 57.3994ZM75.0498 60.2687H71.5021V61.9754H75.0498V60.2687ZM72.3387 61.122C72.3387 59.2749 71.7533 57.7319 70.5151 56.6042L69.4007 57.8773C70.2213 58.6247 70.6655 59.6692 70.6655 61.122H72.3387ZM70.5192 56.608C69.2889 55.4726 67.61 54.9624 65.6013 54.9624V56.6691C67.3426 56.6691 68.5681 57.109 69.3966 57.8736L70.5192 56.608ZM65.6013 54.9624C63.7461 54.9624 62.1792 55.3817 61.0028 56.3267L62.038 57.6675C62.8224 57.0374 63.9761 56.6691 65.6013 56.6691V54.9624ZM61.0039 56.3258C59.8106 57.281 59.2316 58.6228 59.2316 60.2408H60.9048C60.9048 59.0838 61.294 58.263 62.0369 57.6684L61.0039 56.3258ZM59.2316 60.2408C59.2316 61.6335 59.8229 62.8099 60.9139 63.7298L61.98 62.4143C61.2327 61.7842 60.9048 61.0731 60.9048 60.2408H59.2316ZM60.9232 63.7375C61.9904 64.6112 63.6998 65.3484 65.9443 65.9934L66.398 64.3507C64.2062 63.7208 62.7661 63.0578 61.9706 62.4066L60.9232 63.7375ZM65.9454 65.9937C68.1398 66.6209 69.7988 67.3018 70.9572 68.02L71.8262 66.5616C70.4847 65.7298 68.6633 64.9981 66.3969 64.3504L65.9454 65.9937ZM70.9654 68.025C72.1376 68.7331 72.9547 69.534 73.4677 70.4097L74.904 69.5343C74.2161 68.3601 73.1704 67.3736 71.818 66.5566L70.9654 68.025ZM73.4716 70.4163C73.9925 71.2877 74.2684 72.3352 74.2684 73.5908H75.9416C75.9416 72.0714 75.6047 70.7064 74.9002 69.5278L73.4716 70.4163ZM74.2684 73.5908C74.2684 75.5437 73.5391 77.0681 72.0556 78.2415L73.0808 79.5901C74.9796 78.0884 75.9416 76.0629 75.9416 73.5908H74.2684ZM72.0586 78.2391C70.555 79.4171 68.4919 80.05 65.7851 80.05V81.7567C68.7401 81.7567 71.199 81.0645 73.0778 79.5925L72.0586 78.2391ZM65.7851 80.05C64.0558 80.05 62.4553 79.7155 60.974 79.0531L60.3021 80.616C62.0071 81.3786 63.8379 81.7567 65.7851 81.7567V80.05ZM60.979 79.0553C59.5003 78.3823 58.3957 77.4847 57.6254 76.378L56.261 77.3661C57.2309 78.7594 58.5895 79.8368 60.2972 80.6138L60.979 79.0553ZM57.6285 76.3827C56.8733 75.2822 56.493 74.0357 56.493 72.6158H54.8198C54.8198 74.3708 55.2974 75.9619 56.2579 77.3614L57.6285 76.3827ZM55.6564 73.4691H59.2042V71.7624H55.6564V73.4691ZM58.3676 72.6158C58.3676 74.5064 59.0638 76.0667 60.4672 77.2029L61.5074 75.8662C60.5334 75.0775 60.0408 74.0252 60.0408 72.6158H58.3676ZM60.4747 77.2088C61.8627 78.3068 63.6604 78.8128 65.7851 78.8128V77.1062C63.9148 77.1062 62.514 76.6623 61.5 75.8602L60.4747 77.2088ZM65.7851 78.8128C67.7456 78.8128 69.382 78.4074 70.5767 77.4746L69.5597 76.1195C68.7691 76.7367 67.5501 77.1062 65.7851 77.1062V78.8128ZM70.5767 77.4746C71.7877 76.5292 72.3938 75.2163 72.3938 73.6283H70.7206C70.7206 74.7153 70.334 75.5149 69.5597 76.1195L70.5767 77.4746ZM72.3938 73.6283C72.3938 72.0654 71.8425 70.7684 70.6903 69.8595L69.6667 71.2096C70.3527 71.7507 70.7206 72.5163 70.7206 73.6283H72.3938ZM70.6957 69.8639C69.6402 69.0169 67.8372 68.2558 65.411 67.5398L64.946 69.1792C67.3483 69.8883 68.8786 70.5772 69.6612 71.2052L70.6957 69.8639ZM99.333 71.8658L100.164 71.9648L100.273 71.0124H99.333V71.8658ZM96.1898 78.5596L96.7403 79.202V79.2017L96.1898 78.5596ZM81.5756 77.4345L80.9342 77.9826L80.936 77.9847L81.5756 77.4345ZM80.0498 58.8345L79.2938 58.469L79.292 58.4731L80.0498 58.8345ZM83.8366 54.4096L84.2756 55.1359L84.2795 55.1334L83.8366 54.4096ZM96.3362 55.2908L95.7673 55.9161L95.7699 55.9183L96.3362 55.2908ZM99.333 62.0033V62.8566H100.257L100.165 61.918L99.333 62.0033ZM95.7849 62.0033L94.9567 62.1246L95.0604 62.8566H95.7849V62.0033ZM93.7813 57.2783L93.2082 57.9001L93.2124 57.9036L93.7813 57.2783ZM84.1859 58.3658L83.5236 57.8443L83.5213 57.8475L84.1859 58.3658ZM93.6892 76.6095L94.2305 77.2607V77.2601L93.6892 76.6095ZM95.7849 71.8658V71.0124H95.0688L94.9584 71.7346L95.7849 71.8658ZM98.5022 71.7667C98.1893 74.4916 97.2155 76.5103 95.6385 77.9174L96.7403 79.2017C98.6929 77.4588 99.814 75.015 100.164 71.9648L98.5022 71.7667ZM95.6385 77.9171C94.0749 79.3118 91.9533 80.05 89.1858 80.05V81.7567C92.252 81.7567 94.7994 80.9323 96.7403 79.202L95.6385 77.9171ZM89.1858 80.05C86.2519 80.05 83.9563 78.9906 82.2151 76.8845L80.936 77.9847C83.0183 80.5035 85.7961 81.7567 89.1858 81.7567V80.05ZM82.2168 76.8865C80.4758 74.767 79.5629 71.8861 79.5629 68.1533H77.8897C77.8897 72.1706 78.8763 75.4771 80.9342 77.9826L82.2168 76.8865ZM79.5629 68.1533V65.5283H77.8897V68.1533H79.5629ZM79.5629 65.5283C79.5629 63.0918 79.9863 60.988 80.8077 59.196L79.292 58.4731C78.3486 60.5311 77.8897 62.8898 77.8897 65.5283H79.5629ZM80.8058 59.2001C81.6377 57.41 82.7958 56.0666 84.2756 55.1359L83.3975 53.6832C81.6176 54.8025 80.2512 56.4091 79.2938 58.469L80.8058 59.2001ZM84.2795 55.1334C85.7615 54.1902 87.4917 53.7067 89.4987 53.7067V52C87.2156 52 85.1715 52.554 83.3937 53.6856L84.2795 55.1334ZM89.4987 53.7067C92.1783 53.7067 94.238 54.4678 95.7673 55.9161L96.906 54.6655C95.0035 52.8638 92.5046 52 89.4987 52V53.7067ZM95.7699 55.9183C97.305 57.3611 98.2345 59.3883 98.5005 62.0885L100.165 61.918C99.868 58.8932 98.8 56.4455 96.9035 54.6633L95.7699 55.9183ZM99.333 61.15H95.7849V62.8566H99.333V61.15ZM96.6132 61.8819C96.2936 59.6117 95.5783 57.8154 94.351 56.653L93.2124 57.9036C94.0439 58.6912 94.6639 60.0449 94.9567 62.1246L96.6132 61.8819ZM94.3543 56.6565C93.1379 55.4905 91.4798 54.9624 89.4987 54.9624V56.6691C91.1928 56.6691 92.3908 57.1161 93.2082 57.9001L94.3543 56.6565ZM89.4987 54.9624C87.0056 54.9624 84.9814 55.9184 83.5236 57.8443L84.848 58.8872C85.9641 57.4131 87.4817 56.6691 89.4987 56.6691V54.9624ZM83.5213 57.8475C82.0939 59.7514 81.4375 62.3811 81.4375 65.622H83.1107C83.1107 62.588 83.7288 60.3802 84.8504 58.8842L83.5213 57.8475ZM81.4375 65.622V68.2658H83.1107V65.622H81.4375ZM81.4375 68.2658C81.4375 71.3391 82.0661 73.8875 83.4108 75.8272L84.777 74.8419C83.6954 73.2816 83.1107 71.1175 83.1107 68.2658H81.4375ZM83.4108 75.8272C84.7879 77.8134 86.7454 78.8128 89.1858 78.8128V77.1062C87.2641 77.1062 85.8265 76.3557 84.777 74.8419L83.4108 75.8272ZM89.1858 78.8128C91.2597 78.8128 92.9831 78.338 94.2305 77.2607L93.1488 75.9584C92.3122 76.6811 91.033 77.1062 89.1858 77.1062V78.8128ZM94.2305 77.2601C95.508 76.1545 96.2559 74.3325 96.6115 71.9969L94.9584 71.7346C94.6287 73.8991 93.9787 75.2395 93.148 75.959L94.2305 77.2601ZM95.7849 72.7191H99.333V71.0124H95.7849V72.7191Z" fill="url(#paint2_linear)"/>
<defs>
<linearGradient id="paint0_linear" x1="67" y1="3" x2="67" y2="131" gradientUnits="userSpaceOnUse">
<stop stop-color="#292929"/>
<stop offset="1"/>
</linearGradient>
<linearGradient id="paint1_linear" x1="67" y1="3" x2="67" y2="131" gradientUnits="userSpaceOnUse">
<stop stop-color="white"/>
<stop offset="1" stop-color="#C5C5C5"/>
</linearGradient>
<linearGradient id="paint2_linear" x1="30.73" y1="44.6883" x2="104.834" y2="89.0229" gradientUnits="userSpaceOnUse">
<stop stop-color="#EE0014"/>
<stop offset="1" stop-color="#4700D3"/>
</linearGradient>
</defs>
</svg>
