<svg width="135" height="135" viewBox="0 0 135 135" fill="none" xmlns="http://www.w3.org/2000/svg">
<path d="M67.5 133C103.675 133 133 103.675 133 67.5C133 31.3253 103.675 2 67.5 2C31.3253 2 2 31.3253 2 67.5C2 103.675 31.3253 133 67.5 133Z" fill="url(#paint0_linear)" stroke="url(#paint1_linear)" stroke-width="3"/>
<path d="M33.8366 81.5283H33V82.3816H33.8366V81.5283ZM33.8366 54.2283V53.375H33V54.2283H33.8366ZM49.1307 56.0658L48.5988 56.7245L48.6015 56.7268L49.1307 56.0658ZM50.2704 64.8971L50.9418 65.4063L50.9448 65.4021L50.2704 64.8971ZM47.366 67.1658L47.0355 66.3819L44.8587 67.3367L47.1407 67.9876L47.366 67.1658ZM50.7851 69.5283L50.1098 70.032L50.1159 70.0403L50.7851 69.5283ZM37.366 68.7595V67.9062H36.5294V68.7595H37.366ZM37.366 78.5846H36.5294V79.4379H37.366V78.5846ZM47.0719 77.2908L47.6302 77.9263L47.6306 77.9259L47.0719 77.2908ZM37.366 65.872H36.5294V66.7254H37.366V65.872ZM46.3917 64.6908L45.8578 64.0339L45.8536 64.0374L46.3917 64.6908ZM46.502 58.2221L45.9851 58.893L45.991 58.8977L46.502 58.2221ZM37.366 57.1908V56.3375H36.5294V57.1908H37.366ZM34.6732 81.5283V54.2283H33V81.5283H34.6732ZM33.8366 55.0816H42.5866V53.375H33.8366V55.0816ZM42.5866 55.0816C45.3963 55.0816 47.3523 55.6774 48.5988 56.7245L49.6625 55.4071C47.9924 54.0042 45.5857 53.375 42.5866 53.375V55.0816ZM48.6015 56.7268C49.8317 57.7515 50.4999 59.2924 50.4999 61.5033H52.1731C52.1731 58.9143 51.3708 56.8301 49.6599 55.4049L48.6015 56.7268ZM50.4999 61.5033C50.4999 62.6045 50.1969 63.5572 49.5961 64.392L50.9448 65.4021C51.7655 64.2619 52.1731 62.952 52.1731 61.5033H50.4999ZM49.5991 64.3879C48.9864 65.2283 48.1422 65.8964 47.0355 66.3819L47.6965 67.9497C49.0407 67.3602 50.1328 66.5158 50.9418 65.4063L49.5991 64.3879ZM47.1407 67.9876C48.4183 68.3521 49.3945 69.0342 50.1098 70.0319L51.4604 69.0247C50.5091 67.6974 49.2058 66.8045 47.5913 66.344L47.1407 67.9876ZM50.1159 70.0403C50.8406 71.0259 51.2169 72.216 51.2169 73.6533H52.8901C52.8901 71.8906 52.4209 70.3307 51.4544 69.0163L50.1159 70.0403ZM51.2169 73.6533C51.2169 75.901 50.5127 77.5765 49.1656 78.7883L50.2723 80.0683C52.0379 78.4801 52.8901 76.3056 52.8901 73.6533H51.2169ZM49.1656 78.7883C47.8106 80.0071 45.8348 80.675 43.1197 80.675V82.3816C46.0908 82.3816 48.5145 81.6495 50.2723 80.0683L49.1656 78.7883ZM43.1197 80.675H33.8366V82.3816H43.1197V80.675ZM36.5294 68.7595V78.5846H38.2026V68.7595H36.5294ZM37.366 79.4379H43.1932V77.7312H37.366V79.4379ZM43.1932 79.4379C44.9788 79.4379 46.4921 78.9665 47.6302 77.9263L46.5135 76.6553C45.7644 77.3401 44.6919 77.7312 43.1932 77.7312V79.4379ZM47.6306 77.9259C48.7929 76.8619 49.3423 75.4144 49.3423 73.6908H47.6691C47.6691 75.0172 47.2626 75.9696 46.5131 76.6557L47.6306 77.9259ZM49.3423 73.6908C49.3423 71.8963 48.8608 70.399 47.7576 69.3642C46.6678 68.342 45.1132 67.9062 43.2484 67.9062V69.6129C44.8884 69.6129 45.9625 69.999 46.6251 70.6205C47.2744 71.2296 47.6691 72.1979 47.6691 73.6908H49.3423ZM43.2484 67.9062H37.366V69.6129H43.2484V67.9062ZM37.366 66.7254H42.6969V65.0187H37.366V66.7254ZM42.6969 66.7254C44.3804 66.7254 45.8212 66.2941 46.9298 65.3442L45.8536 64.0374C45.1241 64.6625 44.1016 65.0187 42.6969 65.0187V66.7254ZM46.9256 65.3477C48.0684 64.3816 48.6254 63.0615 48.6254 61.4845H46.9522C46.9522 62.6077 46.5779 63.425 45.8578 64.0339L46.9256 65.3477ZM48.6254 61.4845C48.6254 59.8214 48.1438 58.4362 47.013 57.5464L45.991 58.8977C46.5759 59.3579 46.9522 60.1478 46.9522 61.4845H48.6254ZM47.0189 57.5511C45.9478 56.6927 44.4209 56.3375 42.5866 56.3375V58.0441C44.2572 58.0441 45.3405 58.3764 45.9851 58.893L47.0189 57.5511ZM42.5866 56.3375H37.366V58.0441H42.5866V56.3375ZM36.5294 57.1908V65.872H38.2026V57.1908H36.5294ZM65.1785 69.3595L65.411 68.5398L65.4096 68.5395L65.1785 69.3595ZM58.5608 66.097L57.9915 66.7224L57.9973 66.7277L58.5608 66.097ZM59.0204 55.9721L59.5499 56.6327L59.5505 56.6323L59.0204 55.9721ZM70.5093 54.9408L70.1378 55.7053L70.1403 55.7066L70.5093 54.9408ZM73.855 57.9408L73.1463 58.3943L73.1494 58.3994L73.855 57.9408ZM75.0498 62.122V62.9754H75.8864V62.122H75.0498ZM71.5021 62.122H70.6655V62.9754H71.5021V62.122ZM69.9579 58.2408L69.3966 58.8736L69.4007 58.8773L69.9579 58.2408ZM61.5204 57.997L62.0369 58.6684L62.038 58.6675L61.5204 57.997ZM61.4469 64.0721L60.9139 64.7298L60.9185 64.7337L60.9232 64.7375L61.4469 64.0721ZM66.1712 66.1721L65.9443 66.9934L65.9454 66.9937L66.1712 66.1721ZM71.3917 68.2908L70.9572 69.0201L70.9654 69.025L71.3917 68.2908ZM74.1859 70.9721L73.4677 71.4098L73.4716 71.4163L74.1859 70.9721ZM72.5682 79.9158L73.0778 80.5925L73.0808 80.5901L72.5682 79.9158ZM60.638 80.8345L60.2972 81.6139L60.3021 81.616L60.638 80.8345ZM56.9432 77.872L56.2579 78.3614L56.261 78.3661L56.9432 77.872ZM55.6564 73.6158V72.7624H54.8198V73.6158H55.6564ZM59.2042 73.6158H60.0408V72.7624H59.2042V73.6158ZM60.9873 77.5345L60.4671 78.2029L60.4747 78.2088L60.9873 77.5345ZM70.1785 71.5346L69.6612 72.2053L69.6667 72.2096L70.1785 71.5346ZM65.4096 68.5395C62.4327 67.6666 60.3703 66.6247 59.1245 65.4664L57.9973 66.7277C59.5209 68.1443 61.8703 69.2775 64.9474 70.1796L65.4096 68.5395ZM59.1302 65.4717C57.927 64.3322 57.3387 62.9583 57.3387 61.297H55.6655C55.6655 63.4358 56.4496 65.2619 57.9916 66.7224L59.1302 65.4717ZM57.3387 61.297C57.3387 59.4115 58.0589 57.876 59.5499 56.6327L58.4909 55.3114C56.6241 56.8681 55.6655 58.8825 55.6655 61.297H57.3387ZM59.5505 56.6323C61.0597 55.3718 63.052 54.7067 65.6013 54.7067V53C62.7585 53 60.3635 53.7473 58.4904 55.3118L59.5505 56.6323ZM65.6013 54.7067C67.3298 54.7067 68.8356 55.0469 70.1378 55.7053L70.881 54.1762C69.3156 53.3848 67.5492 53 65.6013 53V54.7067ZM70.1403 55.7066C71.4602 56.3684 72.4521 57.2658 73.1463 58.3943L74.5636 57.4873C73.6892 56.0658 72.4507 54.9633 70.8784 54.175L70.1403 55.7066ZM73.1494 58.3994C73.8604 59.5373 74.2132 60.772 74.2132 62.122H75.8864C75.8864 60.4471 75.4427 58.8943 74.5605 57.4822L73.1494 58.3994ZM75.0498 61.2687H71.5021V62.9754H75.0498V61.2687ZM72.3387 62.122C72.3387 60.2749 71.7533 58.7319 70.5151 57.6042L69.4007 58.8773C70.2213 59.6247 70.6655 60.6692 70.6655 62.122H72.3387ZM70.5192 57.608C69.2889 56.4726 67.61 55.9624 65.6013 55.9624V57.6691C67.3426 57.6691 68.5681 58.109 69.3966 58.8736L70.5192 57.608ZM65.6013 55.9624C63.7461 55.9624 62.1792 56.3817 61.0028 57.3267L62.038 58.6675C62.8224 58.0374 63.9761 57.6691 65.6013 57.6691V55.9624ZM61.0039 57.3258C59.8106 58.281 59.2316 59.6228 59.2316 61.2408H60.9048C60.9048 60.0838 61.294 59.263 62.0369 58.6684L61.0039 57.3258ZM59.2316 61.2408C59.2316 62.6335 59.8229 63.8099 60.9139 64.7298L61.98 63.4143C61.2327 62.7842 60.9048 62.0731 60.9048 61.2408H59.2316ZM60.9232 64.7375C61.9904 65.6112 63.6998 66.3484 65.9443 66.9934L66.398 65.3507C64.2062 64.7208 62.7661 64.0578 61.9706 63.4066L60.9232 64.7375ZM65.9454 66.9937C68.1398 67.6209 69.7988 68.3018 70.9572 69.02L71.8262 67.5616C70.4847 66.7298 68.6633 65.9981 66.3969 65.3504L65.9454 66.9937ZM70.9654 69.025C72.1376 69.7331 72.9547 70.534 73.4677 71.4097L74.904 70.5343C74.2161 69.3601 73.1704 68.3736 71.818 67.5566L70.9654 69.025ZM73.4716 71.4163C73.9925 72.2877 74.2684 73.3352 74.2684 74.5908H75.9416C75.9416 73.0714 75.6047 71.7064 74.9002 70.5278L73.4716 71.4163ZM74.2684 74.5908C74.2684 76.5437 73.5391 78.0681 72.0556 79.2415L73.0808 80.5901C74.9796 79.0884 75.9416 77.0629 75.9416 74.5908H74.2684ZM72.0586 79.2391C70.555 80.4171 68.4919 81.05 65.7851 81.05V82.7567C68.7401 82.7567 71.199 82.0645 73.0778 80.5925L72.0586 79.2391ZM65.7851 81.05C64.0558 81.05 62.4553 80.7155 60.974 80.0531L60.3021 81.616C62.0071 82.3786 63.8379 82.7567 65.7851 82.7567V81.05ZM60.979 80.0553C59.5003 79.3823 58.3957 78.4847 57.6254 77.378L56.261 78.3661C57.2309 79.7594 58.5895 80.8368 60.2972 81.6138L60.979 80.0553ZM57.6285 77.3827C56.8733 76.2822 56.493 75.0357 56.493 73.6158H54.8198C54.8198 75.3708 55.2974 76.9619 56.2579 78.3614L57.6285 77.3827ZM55.6564 74.4691H59.2042V72.7624H55.6564V74.4691ZM58.3676 73.6158C58.3676 75.5064 59.0638 77.0667 60.4672 78.2029L61.5074 76.8662C60.5334 76.0775 60.0408 75.0252 60.0408 73.6158H58.3676ZM60.4747 78.2088C61.8627 79.3068 63.6604 79.8128 65.7851 79.8128V78.1062C63.9148 78.1062 62.514 77.6623 61.5 76.8602L60.4747 78.2088ZM65.7851 79.8128C67.7456 79.8128 69.382 79.4074 70.5767 78.4746L69.5597 77.1195C68.7691 77.7367 67.5501 78.1062 65.7851 78.1062V79.8128ZM70.5767 78.4746C71.7877 77.5292 72.3938 76.2163 72.3938 74.6283H70.7206C70.7206 75.7153 70.334 76.5149 69.5597 77.1195L70.5767 78.4746ZM72.3938 74.6283C72.3938 73.0654 71.8425 71.7684 70.6903 70.8595L69.6667 72.2096C70.3527 72.7507 70.7206 73.5163 70.7206 74.6283H72.3938ZM70.6957 70.8639C69.6402 70.0169 67.8372 69.2558 65.411 68.5398L64.946 70.1792C67.3483 70.8883 68.8786 71.5772 69.6612 72.2052L70.6957 70.8639ZM99.333 72.8658L100.164 72.9648L100.273 72.0124H99.333V72.8658ZM96.1898 79.5596L96.7403 80.202V80.2017L96.1898 79.5596ZM81.5756 78.4345L80.9342 78.9826L80.936 78.9847L81.5756 78.4345ZM80.0498 59.8345L79.2938 59.469L79.292 59.4731L80.0498 59.8345ZM83.8366 55.4096L84.2756 56.1359L84.2795 56.1334L83.8366 55.4096ZM96.3362 56.2908L95.7673 56.9161L95.7699 56.9183L96.3362 56.2908ZM99.333 63.0033V63.8566H100.257L100.165 62.918L99.333 63.0033ZM95.7849 63.0033L94.9567 63.1246L95.0604 63.8566H95.7849V63.0033ZM93.7813 58.2783L93.2082 58.9001L93.2124 58.9036L93.7813 58.2783ZM84.1859 59.3658L83.5236 58.8443L83.5213 58.8475L84.1859 59.3658ZM93.6892 77.6095L94.2305 78.2607V78.2601L93.6892 77.6095ZM95.7849 72.8658V72.0124H95.0688L94.9584 72.7346L95.7849 72.8658ZM98.5022 72.7667C98.1893 75.4916 97.2155 77.5103 95.6385 78.9174L96.7403 80.2017C98.6929 78.4588 99.814 76.015 100.164 72.9648L98.5022 72.7667ZM95.6385 78.9171C94.0749 80.3118 91.9533 81.05 89.1858 81.05V82.7567C92.252 82.7567 94.7994 81.9323 96.7403 80.202L95.6385 78.9171ZM89.1858 81.05C86.2519 81.05 83.9563 79.9906 82.2151 77.8845L80.936 78.9847C83.0183 81.5035 85.7961 82.7567 89.1858 82.7567V81.05ZM82.2168 77.8865C80.4758 75.767 79.5629 72.8861 79.5629 69.1533H77.8897C77.8897 73.1706 78.8763 76.4771 80.9342 78.9826L82.2168 77.8865ZM79.5629 69.1533V66.5283H77.8897V69.1533H79.5629ZM79.5629 66.5283C79.5629 64.0918 79.9863 61.988 80.8077 60.196L79.292 59.4731C78.3486 61.5311 77.8897 63.8898 77.8897 66.5283H79.5629ZM80.8058 60.2001C81.6377 58.41 82.7958 57.0666 84.2756 56.1359L83.3975 54.6832C81.6176 55.8025 80.2512 57.4091 79.2938 59.469L80.8058 60.2001ZM84.2795 56.1334C85.7615 55.1902 87.4917 54.7067 89.4987 54.7067V53C87.2156 53 85.1715 53.554 83.3937 54.6856L84.2795 56.1334ZM89.4987 54.7067C92.1783 54.7067 94.238 55.4678 95.7673 56.9161L96.906 55.6655C95.0035 53.8638 92.5046 53 89.4987 53V54.7067ZM95.7699 56.9183C97.305 58.3611 98.2345 60.3883 98.5005 63.0885L100.165 62.918C99.868 59.8932 98.8 57.4455 96.9035 55.6633L95.7699 56.9183ZM99.333 62.15H95.7849V63.8566H99.333V62.15ZM96.6132 62.8819C96.2936 60.6117 95.5783 58.8154 94.351 57.653L93.2124 58.9036C94.0439 59.6912 94.6639 61.0449 94.9567 63.1246L96.6132 62.8819ZM94.3543 57.6565C93.1379 56.4905 91.4798 55.9624 89.4987 55.9624V57.6691C91.1928 57.6691 92.3908 58.1161 93.2082 58.9001L94.3543 57.6565ZM89.4987 55.9624C87.0056 55.9624 84.9814 56.9184 83.5236 58.8443L84.848 59.8872C85.9641 58.4131 87.4817 57.6691 89.4987 57.6691V55.9624ZM83.5213 58.8475C82.0939 60.7514 81.4375 63.3811 81.4375 66.622H83.1107C83.1107 63.588 83.7288 61.3802 84.8504 59.8842L83.5213 58.8475ZM81.4375 66.622V69.2658H83.1107V66.622H81.4375ZM81.4375 69.2658C81.4375 72.3391 82.0661 74.8875 83.4108 76.8272L84.777 75.8419C83.6954 74.2816 83.1107 72.1175 83.1107 69.2658H81.4375ZM83.4108 76.8272C84.7879 78.8134 86.7454 79.8128 89.1858 79.8128V78.1062C87.2641 78.1062 85.8265 77.3557 84.777 75.8419L83.4108 76.8272ZM89.1858 79.8128C91.2597 79.8128 92.9831 79.338 94.2305 78.2607L93.1488 76.9584C92.3122 77.6811 91.033 78.1062 89.1858 78.1062V79.8128ZM94.2305 78.2601C95.508 77.1545 96.2559 75.3325 96.6115 72.9969L94.9584 72.7346C94.6287 74.8991 93.9787 76.2395 93.148 76.959L94.2305 78.2601ZM95.7849 73.7191H99.333V72.0124H95.7849V73.7191Z" fill="url(#paint2_linear)"/>
<defs>
<linearGradient id="paint0_linear" x1="67.5" y1="3.5" x2="67.5" y2="131.5" gradientUnits="userSpaceOnUse">
<stop stop-color="#292929"/>
<stop offset="1"/>
</linearGradient>
<linearGradient id="paint1_linear" x1="67.5" y1="3.5" x2="67.5" y2="131.5" gradientUnits="userSpaceOnUse">
<stop stop-color="white"/>
<stop offset="1" stop-color="#C5C5C5"/>
</linearGradient>
<linearGradient id="paint2_linear" x1="30.73" y1="45.6883" x2="104.834" y2="90.0229" gradientUnits="userSpaceOnUse">
<stop stop-color="#240CBE"/>
<stop offset="1" stop-color="#867DB6"/>
</linearGradient>
</defs>
</svg>
