<svg width="135" height="135" viewBox="0 0 135 135" fill="none" xmlns="http://www.w3.org/2000/svg">
<path d="M67.5 133C103.675 133 133 103.675 133 67.5C133 31.3253 103.675 2 67.5 2C31.3253 2 2 31.3253 2 67.5C2 103.675 31.3253 133 67.5 133Z" fill="url(#paint0_linear)" stroke="url(#paint1_linear)" stroke-width="3"/>
<path d="M33.1221 54.0176V53.0176H32.1221V54.0176H33.1221ZM51.3945 65.8506L50.6359 65.1991L50.6353 65.1998L51.3945 65.8506ZM47.0674 68.0859L46.8904 67.1017L46.0674 67.2497V68.0859H47.0674ZM47.0674 68.291H46.0674V69.1344L46.8987 69.2767L47.0674 68.291ZM51.1689 81.7441L50.5316 80.9735L50.5288 80.9759L51.1689 81.7441ZM33.1221 84H32.1221V85H33.1221V84ZM36.6084 66.8555H35.6084V67.8555H36.6084V66.8555ZM47.6621 65.707L48.2404 66.5229L48.2472 66.518L47.6621 65.707ZM47.4775 58.1602L46.9475 59.0082L46.9545 59.0125L47.4775 58.1602ZM36.6084 57.0322V56.0322H35.6084V57.0322H36.6084ZM36.6084 69.8086V68.8086H35.6084V69.8086H36.6084ZM36.6084 81.0264H35.6084V82.0264H36.6084V81.0264ZM48.3184 79.6318L48.9255 80.4264L48.9268 80.4254L48.3184 79.6318ZM48.2773 71.1211L47.7021 71.9391L47.7063 71.942L48.2773 71.1211ZM33.1221 55.0176H41.5918V53.0176H33.1221V55.0176ZM41.5918 55.0176C45.5181 55.0176 48.1462 55.6134 49.6694 56.6328L50.7818 54.9707C48.7503 53.6112 45.6225 53.0176 41.5918 53.0176V55.0176ZM49.6694 56.6328C51.1108 57.5974 51.8916 59.1275 51.8916 61.4414H53.8916C53.8916 58.6147 52.8951 56.385 50.7818 54.9707L49.6694 56.6328ZM51.8916 61.4414C51.8916 63.0202 51.4537 64.2468 50.6359 65.1991L52.1532 66.5021C53.3315 65.1301 53.8916 63.4173 53.8916 61.4414H51.8916ZM50.6353 65.1998C49.8382 66.1297 48.6279 66.7892 46.8904 67.1017L47.2444 69.0701C49.3076 68.6991 50.9821 67.8683 52.1538 66.5014L50.6353 65.1998ZM46.0674 68.0859V68.291H48.0674V68.0859H46.0674ZM46.8987 69.2767C49.0453 69.6441 50.5239 70.3704 51.4647 71.3592C52.3898 72.3315 52.8965 73.6646 52.8965 75.4688H54.8965C54.8965 73.2671 54.265 71.4009 52.9137 69.9806C51.5781 68.5769 49.6422 67.7172 47.2361 67.3054L46.8987 69.2767ZM52.8965 75.4688C52.8965 77.8958 52.0874 79.6868 50.5316 80.9736L51.8063 82.5147C53.8872 80.7937 54.8965 78.4011 54.8965 75.4688H52.8965ZM50.5288 80.9759C48.9622 82.2814 46.6905 83 43.5811 83V85C46.9795 85 49.7663 84.2147 51.8091 82.5124L50.5288 80.9759ZM43.5811 83H33.1221V85H43.5811V83ZM34.1221 84V54.0176H32.1221V84H34.1221ZM36.6084 67.8555H42.3506V65.8555H36.6084V67.8555ZM42.3506 67.8555C44.8655 67.8555 46.8989 67.4738 48.2404 66.5229L47.0838 64.8912C46.2652 65.4715 44.7576 65.8555 42.3506 65.8555V67.8555ZM48.2472 66.518C49.678 65.4856 50.2822 63.8131 50.2822 61.79H48.2822C48.2822 63.4311 47.8064 64.3698 47.077 64.8961L48.2472 66.518ZM50.2822 61.79C50.2822 59.8385 49.5608 58.2653 48.0006 57.3078L46.9545 59.0125C47.8005 59.5316 48.2822 60.3783 48.2822 61.79H50.2822ZM48.0075 57.3122C46.5601 56.4075 44.4119 56.0322 41.7354 56.0322V58.0322C44.3088 58.0322 45.9887 58.4089 46.9475 59.0082L48.0075 57.3122ZM41.7354 56.0322H36.6084V58.0322H41.7354V56.0322ZM35.6084 57.0322V66.8555H37.6084V57.0322H35.6084ZM35.6084 69.8086V81.0264H37.6084V69.8086H35.6084ZM36.6084 82.0264H42.8633V80.0264H36.6084V82.0264ZM42.8633 82.0264C45.3839 82.0264 47.459 81.5469 48.9255 80.4264L47.7112 78.8372C46.7441 79.5761 45.1825 80.0264 42.8633 80.0264V82.0264ZM48.9268 80.4254C50.4725 79.2404 51.1641 77.432 51.1641 75.2227H49.1641C49.1641 77.0055 48.6251 78.1366 47.7099 78.8382L48.9268 80.4254ZM51.1641 75.2227C51.1641 73.1153 50.4341 71.4033 48.8484 70.3002L47.7063 71.942C48.6362 72.5889 49.1641 73.6113 49.1641 75.2227H51.1641ZM48.8526 70.3031C47.36 69.2534 45.2125 68.8086 42.5762 68.8086V70.8086C45.0531 70.8086 46.7064 71.2388 47.7021 71.9391L48.8526 70.3031ZM42.5762 68.8086H36.6084V70.8086H42.5762V68.8086ZM58.4082 83.0361H57.4082V83.6662L57.9765 83.9382L58.4082 83.0361ZM58.4082 79.6729L58.7972 78.7516L57.4082 78.1651V79.6729H58.4082ZM71.9844 80.042L72.5814 80.8442L72.5873 80.8398L71.9844 80.042ZM73.1123 73.8076L72.2595 74.3298L72.2657 74.34L72.2723 74.3501L73.1123 73.8076ZM71.0205 71.9619L70.5204 72.8279L70.5257 72.8309L71.0205 71.9619ZM66.5703 70.0547L66.2334 70.9962L66.2348 70.9967L66.5703 70.0547ZM60.582 66.5068L59.8276 67.1632L59.8313 67.1675L60.582 66.5068ZM76.5166 55.2275L77.4581 55.5647L77.7729 54.6854L76.9172 54.3113L76.5166 55.2275ZM75.4297 58.2627L75.0425 59.1847L76.0154 59.5932L76.3711 58.5998L75.4297 58.2627ZM62.8994 63.7588L62.0311 64.2549L62.0356 64.2627L62.8994 63.7588ZM64.8271 65.584L64.2995 66.4334L64.307 66.4381L64.3145 66.4426L64.8271 65.584ZM69.0107 67.4092L68.674 68.3508L68.6749 68.3511L69.0107 67.4092ZM75.4912 71.0186L74.7534 71.6936L74.7573 71.6978L75.4912 71.0186ZM76.2754 76.0225C76.2754 78.3838 75.4374 80.1354 73.7935 81.4035L75.0151 82.9871C77.1993 81.3021 78.2754 78.9385 78.2754 76.0225H76.2754ZM73.7935 81.4035C72.1076 82.7041 69.7498 83.4102 66.6113 83.4102V85.4102C70.0354 85.4102 72.8728 84.6397 75.0151 82.9871L73.7935 81.4035ZM66.6113 83.4102C63.118 83.4102 60.5575 82.9561 58.8399 82.1341L57.9765 83.9382C60.087 84.9482 62.9953 85.4102 66.6113 85.4102V83.4102ZM59.4082 83.0361V79.6729H57.4082V83.0361H59.4082ZM58.0192 80.5941C59.3156 81.1415 60.7184 81.5699 62.2245 81.8825L62.631 79.9242C61.2386 79.6352 59.9617 79.2433 58.7972 78.7516L58.0192 80.5941ZM62.2245 81.8825C63.7379 82.1965 65.2415 82.3545 66.7344 82.3545V80.3545C65.3835 80.3545 64.0161 80.2117 62.631 79.9242L62.2245 81.8825ZM66.7344 82.3545C69.1567 82.3545 71.1583 81.9033 72.5814 80.8442L71.3874 79.2398C70.4589 79.9307 68.9605 80.3545 66.7344 80.3545V82.3545ZM72.5873 80.8398C74.032 79.7479 74.748 78.212 74.748 76.3506H72.748C72.748 77.6337 72.2883 78.5588 71.3814 79.2442L72.5873 80.8398ZM74.748 76.3506C74.748 75.1812 74.5098 74.1283 73.9523 73.2651L72.2723 74.3501C72.5624 74.7994 72.748 75.4419 72.748 76.3506H74.748ZM73.9652 73.2855C73.4364 72.4219 72.5857 71.7024 71.5153 71.0929L70.5257 72.8309C71.4241 73.3425 71.9679 73.8535 72.2595 74.3298L73.9652 73.2855ZM71.5206 71.0959C70.47 70.4892 68.9182 69.8294 66.9058 69.1127L66.2348 70.9967C68.2146 71.7019 69.6297 72.3135 70.5204 72.8279L71.5206 71.0959ZM66.9072 69.1132C64.1884 68.1403 62.3747 67.0302 61.3327 65.8462L59.8313 67.1675C61.1956 68.7178 63.3741 69.973 66.2334 70.9962L66.9072 69.1132ZM61.3365 65.8505C60.3376 64.7023 59.7979 63.1683 59.7979 61.1543H57.7979C57.7979 63.5426 58.4476 65.577 59.8276 67.1632L61.3365 65.8505ZM59.7979 61.1543C59.7979 59.1341 60.5379 57.5912 62.021 56.4234L60.7837 54.852C58.7941 56.4186 57.7979 58.5534 57.7979 61.1543H59.7979ZM62.021 56.4234C63.5351 55.2312 65.5936 54.5869 68.293 54.5869V52.5869C65.2775 52.5869 62.7422 53.3099 60.7837 54.852L62.021 56.4234ZM68.293 54.5869C71.1483 54.5869 73.7516 55.1102 76.116 56.1438L76.9172 54.3113C74.2777 53.1574 71.3986 52.5869 68.293 52.5869V54.5869ZM75.5751 54.8904L74.4882 57.9256L76.3711 58.5998L77.4581 55.5647L75.5751 54.8904ZM75.8168 57.3407C73.2376 56.2577 70.7 55.7041 68.2109 55.7041V57.7041C70.3977 57.7041 72.6725 58.1896 75.0425 59.1847L75.8168 57.3407ZM68.2109 55.7041C66.2341 55.7041 64.5495 56.1276 63.2771 57.0986L64.4905 58.6885C65.2963 58.0736 66.4964 57.7041 68.2109 57.7041V55.7041ZM63.2771 57.0986C61.9688 58.0971 61.3252 59.5032 61.3252 61.1953H63.3252C63.3252 60.071 63.7207 59.276 64.4905 58.6885L63.2771 57.0986ZM61.3252 61.1953C61.3252 62.3503 61.5372 63.3904 62.0312 64.2549L63.7677 63.2627C63.496 62.7873 63.3252 62.1184 63.3252 61.1953H61.3252ZM62.0356 64.2627C62.5268 65.1046 63.3107 65.8192 64.2995 66.4334L65.3548 64.7345C64.539 64.2277 64.0377 63.7255 63.7632 63.2549L62.0356 64.2627ZM64.3145 66.4426C65.3151 67.04 66.7825 67.6743 68.674 68.3508L69.3475 66.4676C67.4929 65.8042 66.1712 65.2218 65.3398 64.7254L64.3145 66.4426ZM68.6749 68.3511C71.7823 69.459 73.7487 70.5954 74.7534 71.6936L76.229 70.3435C74.8821 68.8714 72.5282 67.6016 69.3466 66.4673L68.6749 68.3511ZM74.7573 71.6978C75.7469 72.767 76.2754 74.1776 76.2754 76.0225H78.2754C78.2754 73.7658 77.6145 71.8404 76.2251 70.3393L74.7573 71.6978ZM88.4316 60.0059L87.677 59.3497L87.6767 59.35L88.4316 60.0059ZM88.3291 78.1143L87.5685 78.7635L87.5729 78.7686L88.3291 78.1143ZM103.361 80.1855H104.361V78.8663L103.091 79.2227L103.361 80.1855ZM103.361 83.2412L103.712 84.1775L104.361 83.9342V83.2412H103.361ZM85.4375 80.3906L84.6916 81.0566L84.6935 81.0588L85.4375 80.3906ZM83.5713 60.8467L82.6769 60.3995L82.6748 60.4037L83.5713 60.8467ZM88.5752 55.4736L88.0767 54.6067L88.0744 54.6081L88.5752 55.4736ZM104.53 55.3096L105.427 55.7519L105.871 54.8515L104.969 54.411L104.53 55.3096ZM103.054 58.3037L102.628 59.2088L103.517 59.6261L103.951 58.746L103.054 58.3037ZM96.2451 55.7041C92.7026 55.7041 89.8069 56.9004 87.677 59.3497L89.1862 60.662C90.8846 58.709 93.1978 57.7041 96.2451 57.7041V55.7041ZM87.6767 59.35C85.5739 61.7705 84.5811 65.0308 84.5811 69.0088H86.5811C86.5811 65.3578 87.4886 62.6162 89.1866 60.6617L87.6767 59.35ZM84.5811 69.0088C84.5811 73.0782 85.531 76.3763 87.5685 78.7635L89.0897 77.4651C87.4631 75.5593 86.5811 72.787 86.5811 69.0088H84.5811ZM87.5729 78.7686C89.6477 81.1662 92.5753 82.3135 96.2041 82.3135V80.3135C93.0244 80.3135 90.7019 79.328 89.0853 77.4599L87.5729 78.7686ZM96.2041 82.3135C98.4116 82.3135 100.891 81.9174 103.632 81.1484L103.091 79.2227C100.472 79.9576 98.1802 80.3135 96.2041 80.3135V82.3135ZM102.361 80.1855V83.2412H104.361V80.1855H102.361ZM103.01 82.3049C101.078 83.0296 98.6415 83.4102 95.6709 83.4102V85.4102C98.7979 85.4102 101.489 85.0114 103.712 84.1775L103.01 82.3049ZM95.6709 83.4102C91.4693 83.4102 88.3562 82.1443 86.1815 79.7225L84.6935 81.0588C87.3313 83.9963 91.0404 85.4102 95.6709 85.4102V83.4102ZM86.1834 79.7246C84.007 77.287 82.8486 73.75 82.8486 68.9678H80.8486C80.8486 74.0567 82.0828 78.1349 84.6916 81.0566L86.1834 79.7246ZM82.8486 68.9678C82.8486 66.0024 83.3993 63.4521 84.4678 61.2897L82.6748 60.4037C81.4464 62.8897 80.8486 65.7535 80.8486 68.9678H82.8486ZM84.4657 61.2939C85.5436 59.1382 87.0776 57.4955 89.076 56.3392L88.0744 54.6081C85.7252 55.9674 83.9232 57.9067 82.6769 60.3995L84.4657 61.2939ZM89.0737 56.3405C91.0854 55.1838 93.4779 54.5869 96.2861 54.5869V52.5869C93.1881 52.5869 90.44 53.2479 88.0767 54.6067L89.0737 56.3405ZM96.2861 54.5869C99.3089 54.5869 101.901 55.1386 104.091 56.2081L104.969 54.411C102.456 53.1837 99.5525 52.5869 96.2861 52.5869V54.5869ZM103.633 54.8673L102.157 57.8614L103.951 58.746L105.427 55.7519L103.633 54.8673ZM103.479 57.3986C101.09 56.2763 98.6765 55.7041 96.2451 55.7041V57.7041C98.3528 57.7041 100.478 58.1983 102.628 59.2088L103.479 57.3986Z" fill="url(#paint2_linear)"/>
<defs>
<linearGradient id="paint0_linear" x1="67.5" y1="3.5" x2="67.5" y2="131.5" gradientUnits="userSpaceOnUse">
<stop stop-color="#292929"/>
<stop offset="1"/>
</linearGradient>
<linearGradient id="paint1_linear" x1="67.5" y1="3.5" x2="67.5" y2="131.5" gradientUnits="userSpaceOnUse">
<stop stop-color="white"/>
<stop offset="1" stop-color="#C5C5C5"/>
</linearGradient>
<linearGradient id="paint2_linear" x1="67.5" y1="39" x2="67.5" y2="96" gradientUnits="userSpaceOnUse">
<stop stop-color="#341EBD"/>
<stop offset="1" stop-color="#786CB8"/>
</linearGradient>
</defs>
</svg>
