<svg width="159" height="159" viewBox="0 0 159 159" fill="none" xmlns="http://www.w3.org/2000/svg">
<g filter="url(#filter0_dd)">
<path d="M105 14H54C31.9086 14 14 31.9086 14 54V105C14 127.091 31.9086 145 54 145H105C127.091 145 145 127.091 145 105V54C145 31.9086 127.091 14 105 14Z" fill="#D8E1EA"/>
<path d="M105 14.25H54C32.0467 14.25 14.25 32.0467 14.25 54V105C14.25 126.953 32.0467 144.75 54 144.75H105C126.953 144.75 144.75 126.953 144.75 105V54C144.75 32.0467 126.953 14.25 105 14.25Z" stroke="url(#paint0_linear)" stroke-width="0.5"/>
</g>
<path d="M34.1221 61.4512H46.1191C51.5859 61.4512 55.5498 62.2334 58.0107 63.7979C60.4893 65.3447 61.7285 67.8145 61.7285 71.207C61.7285 73.5098 61.1836 75.3994 60.0938 76.876C59.0215 78.3525 57.5889 79.2402 55.7959 79.5391V79.8027C58.2393 80.3477 59.9971 81.3672 61.0693 82.8613C62.1592 84.3555 62.7041 86.3418 62.7041 88.8203C62.7041 92.3359 61.4297 95.0781 58.8809 97.0469C56.3496 99.0156 52.9043 100 48.5449 100H34.1221V61.4512ZM42.2959 76.7178H47.042C49.2568 76.7178 50.8564 76.375 51.8408 75.6895C52.8428 75.0039 53.3438 73.8701 53.3438 72.2881C53.3438 70.8115 52.7988 69.7568 51.709 69.124C50.6367 68.4736 48.9316 68.1484 46.5938 68.1484H42.2959V76.7178ZM42.2959 83.2041V93.25H47.6221C49.8721 93.25 51.5332 92.8193 52.6055 91.958C53.6777 91.0967 54.2139 89.7783 54.2139 88.0029C54.2139 84.8037 51.9287 83.2041 47.3584 83.2041H42.2959ZM93.1582 89.2949C93.1582 92.7754 91.9014 95.5176 89.3877 97.5215C86.8916 99.5254 83.4111 100.527 78.9463 100.527C74.833 100.527 71.1943 99.7539 68.0303 98.207V90.6133C70.6318 91.7734 72.8291 92.5908 74.6221 93.0654C76.4326 93.54 78.085 93.7773 79.5791 93.7773C81.3721 93.7773 82.7432 93.4346 83.6924 92.749C84.6592 92.0635 85.1426 91.0439 85.1426 89.6904C85.1426 88.9346 84.9316 88.2666 84.5098 87.6865C84.0879 87.0889 83.4639 86.5176 82.6377 85.9727C81.8291 85.4277 80.168 84.5576 77.6543 83.3623C75.2988 82.2549 73.5322 81.1914 72.3545 80.1719C71.1768 79.1523 70.2363 77.9658 69.5332 76.6123C68.8301 75.2588 68.4785 73.6768 68.4785 71.8662C68.4785 68.4561 69.6299 65.7754 71.9326 63.8242C74.2529 61.873 77.4521 60.8975 81.5303 60.8975C83.5342 60.8975 85.4414 61.1348 87.252 61.6094C89.0801 62.084 90.9873 62.752 92.9736 63.6133L90.3369 69.9678C88.2803 69.124 86.5752 68.5352 85.2217 68.2012C83.8857 67.8672 82.5674 67.7002 81.2666 67.7002C79.7197 67.7002 78.5332 68.0605 77.707 68.7812C76.8809 69.502 76.4678 70.4424 76.4678 71.6025C76.4678 72.3232 76.6348 72.9561 76.9688 73.501C77.3027 74.0283 77.8301 74.5469 78.5508 75.0566C79.2891 75.5488 81.0205 76.4453 83.7451 77.7461C87.3486 79.4688 89.8184 81.2002 91.1543 82.9404C92.4902 84.6631 93.1582 86.7812 93.1582 89.2949ZM116.52 67.7002C113.443 67.7002 111.062 68.8604 109.374 71.1807C107.687 73.4834 106.843 76.7002 106.843 80.8311C106.843 89.4268 110.068 93.7246 116.52 93.7246C119.227 93.7246 122.505 93.0479 126.354 91.6943V98.5498C123.19 99.8682 119.657 100.527 115.755 100.527C110.147 100.527 105.858 98.8311 102.888 95.4385C99.917 92.0283 98.4316 87.1416 98.4316 80.7783C98.4316 76.7705 99.1611 73.2637 100.62 70.2578C102.079 67.2344 104.171 64.9229 106.896 63.3232C109.638 61.7061 112.846 60.8975 116.52 60.8975C120.264 60.8975 124.025 61.8027 127.805 63.6133L125.168 70.2578C123.727 69.5723 122.276 68.9746 120.817 68.4648C119.358 67.9551 117.926 67.7002 116.52 67.7002Z" fill="#0052FF"/>
<defs>
<filter id="filter0_dd" x="0" y="0" width="159" height="159" filterUnits="userSpaceOnUse" color-interpolation-filters="sRGB">
<feFlood flood-opacity="0" result="BackgroundImageFix"/>
<feColorMatrix in="SourceAlpha" type="matrix" values="0 0 0 0 0 0 0 0 0 0 0 0 0 0 0 0 0 0 127 0"/>
<feOffset dx="5" dy="5"/>
<feGaussianBlur stdDeviation="4.5"/>
<feColorMatrix type="matrix" values="0 0 0 0 0.745098 0 0 0 0 0.745098 0 0 0 0 0.745098 0 0 0 0.7 0"/>
<feBlend mode="normal" in2="BackgroundImageFix" result="effect1_dropShadow"/>
<feColorMatrix in="SourceAlpha" type="matrix" values="0 0 0 0 0 0 0 0 0 0 0 0 0 0 0 0 0 0 127 0"/>
<feOffset dx="-5" dy="-5"/>
<feGaussianBlur stdDeviation="4.5"/>
<feColorMatrix type="matrix" values="0 0 0 0 1 0 0 0 0 1 0 0 0 0 1 0 0 0 0.8 0"/>
<feBlend mode="normal" in2="effect1_dropShadow" result="effect2_dropShadow"/>
<feBlend mode="normal" in="SourceGraphic" in2="effect2_dropShadow" result="shape"/>
</filter>
<linearGradient id="paint0_linear" x1="43.9429" y1="54.5476" x2="139.698" y2="141.257" gradientUnits="userSpaceOnUse">
<stop stop-color="#FEFEFF"/>
<stop offset="1" stop-color="#C6CEDA"/>
</linearGradient>
</defs>
</svg>
