<svg width="134" height="134" viewBox="0 0 134 134" fill="none" xmlns="http://www.w3.org/2000/svg">
<path d="M67 132.5C103.175 132.5 132.5 103.175 132.5 67C132.5 30.8253 103.175 1.5 67 1.5C30.8253 1.5 1.5 30.8253 1.5 67C1.5 103.175 30.8253 132.5 67 132.5Z" fill="url(#paint0_linear)" stroke="url(#paint1_linear)" stroke-width="3"/>
<path d="M32.1221 53.0176H40.5918C44.5703 53.0176 47.4482 53.6123 49.2256 54.8018C51.0029 55.9912 51.8916 57.8711 51.8916 60.4414C51.8916 62.2188 51.3926 63.6885 50.3945 64.8506C49.4102 65.999 47.9678 66.7441 46.0674 67.0859V67.291C50.6201 68.0703 52.8965 70.4629 52.8965 74.4688C52.8965 77.1484 51.9873 79.2402 50.1689 80.7441C48.3643 82.248 45.835 83 42.5811 83H32.1221V53.0176ZM35.6084 65.8555H41.3506C43.8115 65.8555 45.582 65.4727 46.6621 64.707C47.7422 63.9277 48.2822 62.6221 48.2822 60.79C48.2822 59.1084 47.6807 57.8984 46.4775 57.1602C45.2744 56.4082 43.3604 56.0322 40.7354 56.0322H35.6084V65.8555ZM35.6084 68.8086V80.0264H41.8633C44.2832 80.0264 46.1016 79.5615 47.3184 78.6318C48.5488 77.6885 49.1641 76.2188 49.1641 74.2227C49.1641 72.3633 48.5352 70.9961 47.2773 70.1211C46.0332 69.2461 44.1328 68.8086 41.5762 68.8086H35.6084ZM76.2754 75.0225C76.2754 77.6611 75.3184 79.7188 73.4043 81.1953C71.4902 82.6719 68.8926 83.4102 65.6113 83.4102C62.0566 83.4102 59.3223 82.9521 57.4082 82.0361V78.6729C58.6387 79.1924 59.9785 79.6025 61.4277 79.9033C62.877 80.2041 64.3125 80.3545 65.7344 80.3545C68.0586 80.3545 69.8086 79.917 70.9844 79.042C72.1602 78.1533 72.748 76.9229 72.748 75.3506C72.748 74.3115 72.5361 73.4639 72.1123 72.8076C71.7021 72.1377 71.0049 71.5225 70.0205 70.9619C69.0498 70.4014 67.5664 69.7656 65.5703 69.0547C62.7812 68.0566 60.7852 66.874 59.582 65.5068C58.3926 64.1396 57.7979 62.3555 57.7979 60.1543C57.7979 57.8438 58.666 56.0049 60.4023 54.6377C62.1387 53.2705 64.4355 52.5869 67.293 52.5869C70.2734 52.5869 73.0146 53.1338 75.5166 54.2275L74.4297 57.2627C71.9551 56.2236 69.5488 55.7041 67.2109 55.7041C65.3652 55.7041 63.9229 56.1006 62.8838 56.8936C61.8447 57.6865 61.3252 58.7871 61.3252 60.1953C61.3252 61.2344 61.5166 62.0889 61.8994 62.7588C62.2822 63.415 62.9248 64.0234 63.8271 64.584C64.7432 65.1309 66.1377 65.7393 68.0107 66.4092C71.1553 67.5303 73.3154 68.7334 74.4912 70.0186C75.6807 71.3037 76.2754 72.9717 76.2754 75.0225ZM95.2451 55.7041C91.9502 55.7041 89.3457 56.8047 87.4316 59.0059C85.5312 61.1934 84.5811 64.1943 84.5811 68.0088C84.5811 71.9326 85.4971 74.9678 87.3291 77.1143C89.1748 79.2471 91.7998 80.3135 95.2041 80.3135C97.2959 80.3135 99.6816 79.9375 102.361 79.1855V82.2412C100.283 83.0205 97.7197 83.4102 94.6709 83.4102C90.2549 83.4102 86.8438 82.0703 84.4375 79.3906C82.0449 76.7109 80.8486 72.9033 80.8486 67.9678C80.8486 64.8779 81.4229 62.1709 82.5713 59.8467C83.7334 57.5225 85.4014 55.7314 87.5752 54.4736C89.7627 53.2158 92.333 52.5869 95.2861 52.5869C98.4307 52.5869 101.179 53.1611 103.53 54.3096L102.054 57.3037C99.7842 56.2373 97.5146 55.7041 95.2451 55.7041Z" fill="black"/>
<path d="M32.1221 53.0176V52.0176H31.1221V53.0176H32.1221ZM50.3945 64.8506L49.6359 64.1991L49.6353 64.1998L50.3945 64.8506ZM46.0674 67.0859L45.8904 66.1017L45.0674 66.2497V67.0859H46.0674ZM46.0674 67.291H45.0674V68.1344L45.8987 68.2767L46.0674 67.291ZM50.1689 80.7441L49.5316 79.9735L49.5288 79.9759L50.1689 80.7441ZM32.1221 83H31.1221V84H32.1221V83ZM35.6084 65.8555H34.6084V66.8555H35.6084V65.8555ZM46.6621 64.707L47.2404 65.5229L47.2472 65.518L46.6621 64.707ZM46.4775 57.1602L45.9475 58.0082L45.9545 58.0125L46.4775 57.1602ZM35.6084 56.0322V55.0322H34.6084V56.0322H35.6084ZM35.6084 68.8086V67.8086H34.6084V68.8086H35.6084ZM35.6084 80.0264H34.6084V81.0264H35.6084V80.0264ZM47.3184 78.6318L47.9255 79.4264L47.9268 79.4254L47.3184 78.6318ZM47.2773 70.1211L46.7021 70.9391L46.7063 70.942L47.2773 70.1211ZM32.1221 54.0176H40.5918V52.0176H32.1221V54.0176ZM40.5918 54.0176C44.5181 54.0176 47.1462 54.6134 48.6694 55.6328L49.7818 53.9707C47.7503 52.6112 44.6225 52.0176 40.5918 52.0176V54.0176ZM48.6694 55.6328C50.1108 56.5974 50.8916 58.1275 50.8916 60.4414H52.8916C52.8916 57.6147 51.8951 55.385 49.7818 53.9707L48.6694 55.6328ZM50.8916 60.4414C50.8916 62.0202 50.4537 63.2468 49.6359 64.1991L51.1532 65.5021C52.3315 64.1301 52.8916 62.4173 52.8916 60.4414H50.8916ZM49.6353 64.1998C48.8382 65.1297 47.6279 65.7892 45.8904 66.1017L46.2444 68.0701C48.3076 67.6991 49.9821 66.8683 51.1538 65.5014L49.6353 64.1998ZM45.0674 67.0859V67.291H47.0674V67.0859H45.0674ZM45.8987 68.2767C48.0453 68.6441 49.5239 69.3704 50.4647 70.3592C51.3898 71.3315 51.8965 72.6646 51.8965 74.4688H53.8965C53.8965 72.2671 53.265 70.4009 51.9137 68.9806C50.5781 67.5769 48.6422 66.7172 46.2361 66.3054L45.8987 68.2767ZM51.8965 74.4688C51.8965 76.8958 51.0874 78.6868 49.5316 79.9736L50.8063 81.5147C52.8872 79.7937 53.8965 77.4011 53.8965 74.4688H51.8965ZM49.5288 79.9759C47.9622 81.2814 45.6905 82 42.5811 82V84C45.9795 84 48.7663 83.2147 50.8091 81.5124L49.5288 79.9759ZM42.5811 82H32.1221V84H42.5811V82ZM33.1221 83V53.0176H31.1221V83H33.1221ZM35.6084 66.8555H41.3506V64.8555H35.6084V66.8555ZM41.3506 66.8555C43.8655 66.8555 45.8989 66.4738 47.2404 65.5229L46.0838 63.8912C45.2652 64.4715 43.7576 64.8555 41.3506 64.8555V66.8555ZM47.2472 65.518C48.678 64.4856 49.2822 62.8131 49.2822 60.79H47.2822C47.2822 62.4311 46.8064 63.3698 46.077 63.8961L47.2472 65.518ZM49.2822 60.79C49.2822 58.8385 48.5608 57.2653 47.0006 56.3078L45.9545 58.0125C46.8005 58.5316 47.2822 59.3783 47.2822 60.79H49.2822ZM47.0075 56.3122C45.5601 55.4075 43.4119 55.0322 40.7354 55.0322V57.0322C43.3088 57.0322 44.9887 57.4089 45.9475 58.0082L47.0075 56.3122ZM40.7354 55.0322H35.6084V57.0322H40.7354V55.0322ZM34.6084 56.0322V65.8555H36.6084V56.0322H34.6084ZM34.6084 68.8086V80.0264H36.6084V68.8086H34.6084ZM35.6084 81.0264H41.8633V79.0264H35.6084V81.0264ZM41.8633 81.0264C44.3839 81.0264 46.459 80.5469 47.9255 79.4264L46.7112 77.8372C45.7441 78.5761 44.1825 79.0264 41.8633 79.0264V81.0264ZM47.9268 79.4254C49.4725 78.2404 50.1641 76.432 50.1641 74.2227H48.1641C48.1641 76.0055 47.6251 77.1366 46.7099 77.8382L47.9268 79.4254ZM50.1641 74.2227C50.1641 72.1153 49.4341 70.4033 47.8484 69.3002L46.7063 70.942C47.6362 71.5889 48.1641 72.6113 48.1641 74.2227H50.1641ZM47.8526 69.3031C46.36 68.2534 44.2125 67.8086 41.5762 67.8086V69.8086C44.0531 69.8086 45.7064 70.2388 46.7021 70.9391L47.8526 69.3031ZM41.5762 67.8086H35.6084V69.8086H41.5762V67.8086ZM57.4082 82.0361H56.4082V82.6662L56.9765 82.9382L57.4082 82.0361ZM57.4082 78.6729L57.7972 77.7516L56.4082 77.1651V78.6729H57.4082ZM70.9844 79.042L71.5814 79.8442L71.5873 79.8398L70.9844 79.042ZM72.1123 72.8076L71.2595 73.3298L71.2657 73.34L71.2723 73.3501L72.1123 72.8076ZM70.0205 70.9619L69.5204 71.8279L69.5257 71.8309L70.0205 70.9619ZM65.5703 69.0547L65.2334 69.9962L65.2348 69.9967L65.5703 69.0547ZM59.582 65.5068L58.8276 66.1632L58.8313 66.1675L59.582 65.5068ZM75.5166 54.2275L76.4581 54.5647L76.7729 53.6854L75.9172 53.3113L75.5166 54.2275ZM74.4297 57.2627L74.0425 58.1847L75.0154 58.5932L75.3711 57.5998L74.4297 57.2627ZM61.8994 62.7588L61.0311 63.2549L61.0356 63.2627L61.8994 62.7588ZM63.8271 64.584L63.2995 65.4334L63.307 65.4381L63.3145 65.4426L63.8271 64.584ZM68.0107 66.4092L67.674 67.3508L67.6749 67.3511L68.0107 66.4092ZM74.4912 70.0186L73.7534 70.6936L73.7573 70.6978L74.4912 70.0186ZM75.2754 75.0225C75.2754 77.3838 74.4374 79.1354 72.7935 80.4035L74.0151 81.9871C76.1993 80.3021 77.2754 77.9385 77.2754 75.0225H75.2754ZM72.7935 80.4035C71.1076 81.7041 68.7498 82.4102 65.6113 82.4102V84.4102C69.0354 84.4102 71.8728 83.6397 74.0151 81.9871L72.7935 80.4035ZM65.6113 82.4102C62.118 82.4102 59.5575 81.9561 57.8399 81.1341L56.9765 82.9382C59.087 83.9482 61.9953 84.4102 65.6113 84.4102V82.4102ZM58.4082 82.0361V78.6729H56.4082V82.0361H58.4082ZM57.0192 79.5941C58.3156 80.1415 59.7184 80.5699 61.2245 80.8825L61.631 78.9242C60.2386 78.6352 58.9617 78.2433 57.7972 77.7516L57.0192 79.5941ZM61.2245 80.8825C62.7379 81.1965 64.2415 81.3545 65.7344 81.3545V79.3545C64.3835 79.3545 63.0161 79.2117 61.631 78.9242L61.2245 80.8825ZM65.7344 81.3545C68.1567 81.3545 70.1583 80.9033 71.5814 79.8442L70.3874 78.2398C69.4589 78.9307 67.9605 79.3545 65.7344 79.3545V81.3545ZM71.5873 79.8398C73.032 78.7479 73.748 77.212 73.748 75.3506H71.748C71.748 76.6337 71.2883 77.5588 70.3814 78.2442L71.5873 79.8398ZM73.748 75.3506C73.748 74.1812 73.5098 73.1283 72.9523 72.2651L71.2723 73.3501C71.5624 73.7994 71.748 74.4419 71.748 75.3506H73.748ZM72.9652 72.2855C72.4364 71.4219 71.5857 70.7024 70.5153 70.0929L69.5257 71.8309C70.4241 72.3425 70.9679 72.8535 71.2595 73.3298L72.9652 72.2855ZM70.5206 70.0959C69.47 69.4892 67.9182 68.8294 65.9058 68.1127L65.2348 69.9967C67.2146 70.7019 68.6297 71.3135 69.5204 71.8279L70.5206 70.0959ZM65.9072 68.1132C63.1884 67.1403 61.3747 66.0302 60.3327 64.8462L58.8313 66.1675C60.1956 67.7178 62.3741 68.973 65.2334 69.9962L65.9072 68.1132ZM60.3365 64.8505C59.3376 63.7023 58.7979 62.1683 58.7979 60.1543H56.7979C56.7979 62.5426 57.4476 64.577 58.8276 66.1632L60.3365 64.8505ZM58.7979 60.1543C58.7979 58.1341 59.5379 56.5912 61.021 55.4234L59.7837 53.852C57.7941 55.4186 56.7979 57.5534 56.7979 60.1543H58.7979ZM61.021 55.4234C62.5351 54.2312 64.5936 53.5869 67.293 53.5869V51.5869C64.2775 51.5869 61.7422 52.3099 59.7837 53.852L61.021 55.4234ZM67.293 53.5869C70.1483 53.5869 72.7516 54.1102 75.116 55.1438L75.9172 53.3113C73.2777 52.1574 70.3986 51.5869 67.293 51.5869V53.5869ZM74.5751 53.8904L73.4882 56.9256L75.3711 57.5998L76.4581 54.5647L74.5751 53.8904ZM74.8168 56.3407C72.2376 55.2577 69.7 54.7041 67.2109 54.7041V56.7041C69.3977 56.7041 71.6725 57.1896 74.0425 58.1847L74.8168 56.3407ZM67.2109 54.7041C65.2341 54.7041 63.5495 55.1276 62.2771 56.0986L63.4905 57.6885C64.2963 57.0736 65.4964 56.7041 67.2109 56.7041V54.7041ZM62.2771 56.0986C60.9688 57.0971 60.3252 58.5032 60.3252 60.1953H62.3252C62.3252 59.071 62.7207 58.276 63.4905 57.6885L62.2771 56.0986ZM60.3252 60.1953C60.3252 61.3503 60.5372 62.3904 61.0312 63.2549L62.7677 62.2627C62.496 61.7873 62.3252 61.1184 62.3252 60.1953H60.3252ZM61.0356 63.2627C61.5268 64.1046 62.3107 64.8192 63.2995 65.4334L64.3548 63.7345C63.539 63.2277 63.0377 62.7255 62.7632 62.2549L61.0356 63.2627ZM63.3145 65.4426C64.3151 66.04 65.7825 66.6743 67.674 67.3508L68.3475 65.4676C66.4929 64.8042 65.1712 64.2218 64.3398 63.7254L63.3145 65.4426ZM67.6749 67.3511C70.7823 68.459 72.7487 69.5954 73.7534 70.6936L75.229 69.3435C73.8821 67.8714 71.5282 66.6016 68.3466 65.4673L67.6749 67.3511ZM73.7573 70.6978C74.7469 71.767 75.2754 73.1776 75.2754 75.0225H77.2754C77.2754 72.7658 76.6145 70.8404 75.2251 69.3393L73.7573 70.6978ZM87.4316 59.0059L86.677 58.3497L86.6767 58.35L87.4316 59.0059ZM87.3291 77.1143L86.5685 77.7635L86.5729 77.7686L87.3291 77.1143ZM102.361 79.1855H103.361V77.8663L102.091 78.2227L102.361 79.1855ZM102.361 82.2412L102.712 83.1775L103.361 82.9342V82.2412H102.361ZM84.4375 79.3906L83.6916 80.0566L83.6935 80.0588L84.4375 79.3906ZM82.5713 59.8467L81.6769 59.3995L81.6748 59.4037L82.5713 59.8467ZM87.5752 54.4736L87.0767 53.6067L87.0744 53.6081L87.5752 54.4736ZM103.53 54.3096L104.427 54.7519L104.871 53.8515L103.969 53.411L103.53 54.3096ZM102.054 57.3037L101.628 58.2088L102.517 58.6261L102.951 57.746L102.054 57.3037ZM95.2451 54.7041C91.7026 54.7041 88.8069 55.9004 86.677 58.3497L88.1862 59.662C89.8846 57.709 92.1978 56.7041 95.2451 56.7041V54.7041ZM86.6767 58.35C84.5739 60.7705 83.5811 64.0308 83.5811 68.0088H85.5811C85.5811 64.3578 86.4886 61.6162 88.1866 59.6617L86.6767 58.35ZM83.5811 68.0088C83.5811 72.0782 84.531 75.3763 86.5685 77.7635L88.0897 76.4651C86.4631 74.5593 85.5811 71.787 85.5811 68.0088H83.5811ZM86.5729 77.7686C88.6477 80.1662 91.5753 81.3135 95.2041 81.3135V79.3135C92.0244 79.3135 89.7019 78.328 88.0853 76.4599L86.5729 77.7686ZM95.2041 81.3135C97.4116 81.3135 99.891 80.9174 102.632 80.1484L102.091 78.2227C99.4723 78.9576 97.1802 79.3135 95.2041 79.3135V81.3135ZM101.361 79.1855V82.2412H103.361V79.1855H101.361ZM102.01 81.3049C100.078 82.0296 97.6415 82.4102 94.6709 82.4102V84.4102C97.7979 84.4102 100.489 84.0114 102.712 83.1775L102.01 81.3049ZM94.6709 82.4102C90.4693 82.4102 87.3562 81.1443 85.1815 78.7225L83.6935 80.0588C86.3313 82.9963 90.0404 84.4102 94.6709 84.4102V82.4102ZM85.1834 78.7246C83.007 76.287 81.8486 72.75 81.8486 67.9678H79.8486C79.8486 73.0567 81.0828 77.1349 83.6916 80.0566L85.1834 78.7246ZM81.8486 67.9678C81.8486 65.0024 82.3993 62.4521 83.4678 60.2897L81.6748 59.4037C80.4464 61.8897 79.8486 64.7535 79.8486 67.9678H81.8486ZM83.4657 60.2939C84.5436 58.1382 86.0776 56.4955 88.076 55.3392L87.0744 53.6081C84.7252 54.9674 82.9232 56.9067 81.6769 59.3995L83.4657 60.2939ZM88.0737 55.3405C90.0854 54.1838 92.4779 53.5869 95.2861 53.5869V51.5869C92.1881 51.5869 89.44 52.2479 87.0767 53.6067L88.0737 55.3405ZM95.2861 53.5869C98.3089 53.5869 100.901 54.1386 103.091 55.2081L103.969 53.411C101.456 52.1837 98.5525 51.5869 95.2861 51.5869V53.5869ZM102.633 53.8673L101.157 56.8614L102.951 57.746L104.427 54.7519L102.633 53.8673ZM102.479 56.3986C100.09 55.2763 97.6765 54.7041 95.2451 54.7041V56.7041C97.3528 56.7041 99.4779 57.1983 101.628 58.2088L102.479 56.3986Z" fill="url(#paint2_linear)"/>
<defs>
<linearGradient id="paint0_linear" x1="67" y1="3" x2="67" y2="131" gradientUnits="userSpaceOnUse">
<stop stop-color="#292929"/>
<stop offset="1"/>
</linearGradient>
<linearGradient id="paint1_linear" x1="67" y1="3" x2="67" y2="131" gradientUnits="userSpaceOnUse">
<stop stop-color="white"/>
<stop offset="1" stop-color="#C5C5C5"/>
</linearGradient>
<linearGradient id="paint2_linear" x1="66.5" y1="38" x2="66.5" y2="95" gradientUnits="userSpaceOnUse">
<stop stop-color="#C50045"/>
<stop offset="1" stop-color="#800094"/>
</linearGradient>
</defs>
</svg>
