<svg width="136" height="136" viewBox="0 0 136 136" fill="none" xmlns="http://www.w3.org/2000/svg">
<g filter="url(#filter0_d)">
<circle cx="68" cy="64" r="64" fill="black"/>
</g>
<path d="M34.8366 77.5283H34V78.3816H34.8366V77.5283ZM34.8366 50.2283V49.375H34V50.2283H34.8366ZM50.1307 52.0658L49.5988 52.7245L49.6015 52.7268L50.1307 52.0658ZM51.2704 60.8971L51.9418 61.4063L51.9448 61.4021L51.2704 60.8971ZM48.366 63.1658L48.0355 62.3819L45.8587 63.3367L48.1407 63.9876L48.366 63.1658ZM51.7851 65.5283L51.1098 66.032L51.1159 66.0403L51.7851 65.5283ZM38.366 64.7595V63.9062H37.5294V64.7595H38.366ZM38.366 74.5846H37.5294V75.4379H38.366V74.5846ZM48.0719 73.2908L48.6302 73.9263L48.6306 73.9259L48.0719 73.2908ZM38.366 61.872H37.5294V62.7254H38.366V61.872ZM47.3917 60.6908L46.8578 60.0339L46.8536 60.0374L47.3917 60.6908ZM47.502 54.2221L46.9851 54.893L46.991 54.8977L47.502 54.2221ZM38.366 53.1908V52.3375H37.5294V53.1908H38.366ZM35.6732 77.5283V50.2283H34V77.5283H35.6732ZM34.8366 51.0816H43.5866V49.375H34.8366V51.0816ZM43.5866 51.0816C46.3963 51.0816 48.3523 51.6774 49.5988 52.7245L50.6625 51.4071C48.9924 50.0042 46.5857 49.375 43.5866 49.375V51.0816ZM49.6015 52.7268C50.8317 53.7515 51.4999 55.2924 51.4999 57.5033H53.1731C53.1731 54.9143 52.3708 52.8301 50.6599 51.4049L49.6015 52.7268ZM51.4999 57.5033C51.4999 58.6045 51.1969 59.5572 50.5961 60.392L51.9448 61.4021C52.7655 60.2619 53.1731 58.952 53.1731 57.5033H51.4999ZM50.5991 60.3879C49.9864 61.2283 49.1422 61.8964 48.0355 62.3819L48.6965 63.9497C50.0407 63.3602 51.1328 62.5158 51.9418 61.4063L50.5991 60.3879ZM48.1407 63.9876C49.4183 64.3521 50.3945 65.0342 51.1098 66.0319L52.4604 65.0247C51.5091 63.6974 50.2058 62.8045 48.5913 62.344L48.1407 63.9876ZM51.1159 66.0403C51.8406 67.0259 52.2169 68.216 52.2169 69.6533H53.8901C53.8901 67.8906 53.4209 66.3307 52.4544 65.0163L51.1159 66.0403ZM52.2169 69.6533C52.2169 71.901 51.5127 73.5765 50.1656 74.7883L51.2723 76.0683C53.0379 74.4801 53.8901 72.3056 53.8901 69.6533H52.2169ZM50.1656 74.7883C48.8106 76.0071 46.8348 76.675 44.1197 76.675V78.3816C47.0908 78.3816 49.5145 77.6495 51.2723 76.0683L50.1656 74.7883ZM44.1197 76.675H34.8366V78.3816H44.1197V76.675ZM37.5294 64.7595V74.5846H39.2026V64.7595H37.5294ZM38.366 75.4379H44.1932V73.7312H38.366V75.4379ZM44.1932 75.4379C45.9788 75.4379 47.4921 74.9665 48.6302 73.9263L47.5135 72.6553C46.7644 73.3401 45.6919 73.7312 44.1932 73.7312V75.4379ZM48.6306 73.9259C49.7929 72.8619 50.3423 71.4144 50.3423 69.6908H48.6691C48.6691 71.0172 48.2626 71.9696 47.5131 72.6557L48.6306 73.9259ZM50.3423 69.6908C50.3423 67.8963 49.8608 66.399 48.7576 65.3642C47.6678 64.342 46.1132 63.9062 44.2484 63.9062V65.6129C45.8884 65.6129 46.9625 65.999 47.6251 66.6205C48.2744 67.2296 48.6691 68.1979 48.6691 69.6908H50.3423ZM44.2484 63.9062H38.366V65.6129H44.2484V63.9062ZM38.366 62.7254H43.6969V61.0187H38.366V62.7254ZM43.6969 62.7254C45.3804 62.7254 46.8212 62.2941 47.9298 61.3442L46.8536 60.0374C46.1241 60.6625 45.1016 61.0187 43.6969 61.0187V62.7254ZM47.9256 61.3477C49.0684 60.3816 49.6254 59.0615 49.6254 57.4845H47.9522C47.9522 58.6077 47.5779 59.425 46.8578 60.0339L47.9256 61.3477ZM49.6254 57.4845C49.6254 55.8214 49.1438 54.4362 48.013 53.5464L46.991 54.8977C47.5759 55.3579 47.9522 56.1478 47.9522 57.4845H49.6254ZM48.0189 53.5511C46.9478 52.6927 45.4209 52.3375 43.5866 52.3375V54.0441C45.2572 54.0441 46.3405 54.3764 46.9851 54.893L48.0189 53.5511ZM43.5866 52.3375H38.366V54.0441H43.5866V52.3375ZM37.5294 53.1908V61.872H39.2026V53.1908H37.5294ZM66.1785 65.3595L66.411 64.5398L66.4096 64.5395L66.1785 65.3595ZM59.5608 62.097L58.9915 62.7224L58.9973 62.7277L59.5608 62.097ZM60.0204 51.9721L60.5499 52.6327L60.5505 52.6323L60.0204 51.9721ZM71.5093 50.9408L71.1378 51.7053L71.1403 51.7066L71.5093 50.9408ZM74.855 53.9408L74.1463 54.3943L74.1494 54.3994L74.855 53.9408ZM76.0498 58.122V58.9754H76.8864V58.122H76.0498ZM72.5021 58.122H71.6655V58.9754H72.5021V58.122ZM70.9579 54.2408L70.3966 54.8736L70.4007 54.8773L70.9579 54.2408ZM62.5204 53.997L63.0369 54.6684L63.038 54.6675L62.5204 53.997ZM62.4469 60.0721L61.9139 60.7298L61.9185 60.7337L61.9232 60.7375L62.4469 60.0721ZM67.1712 62.1721L66.9443 62.9934L66.9454 62.9937L67.1712 62.1721ZM72.3917 64.2908L71.9572 65.0201L71.9654 65.025L72.3917 64.2908ZM75.1859 66.9721L74.4677 67.4098L74.4716 67.4163L75.1859 66.9721ZM73.5682 75.9158L74.0778 76.5925L74.0808 76.5901L73.5682 75.9158ZM61.638 76.8345L61.2972 77.6139L61.3021 77.616L61.638 76.8345ZM57.9432 73.872L57.2579 74.3614L57.261 74.3661L57.9432 73.872ZM56.6564 69.6158V68.7624H55.8198V69.6158H56.6564ZM60.2042 69.6158H61.0408V68.7624H60.2042V69.6158ZM61.9873 73.5345L61.4671 74.2029L61.4747 74.2088L61.9873 73.5345ZM71.1785 67.5346L70.6612 68.2053L70.6667 68.2096L71.1785 67.5346ZM66.4096 64.5395C63.4327 63.6666 61.3703 62.6247 60.1245 61.4664L58.9973 62.7277C60.5209 64.1443 62.8703 65.2775 65.9474 66.1796L66.4096 64.5395ZM60.1302 61.4717C58.927 60.3322 58.3387 58.9583 58.3387 57.297H56.6655C56.6655 59.4358 57.4496 61.2619 58.9916 62.7224L60.1302 61.4717ZM58.3387 57.297C58.3387 55.4115 59.0589 53.876 60.5499 52.6327L59.4909 51.3114C57.6241 52.8681 56.6655 54.8825 56.6655 57.297H58.3387ZM60.5505 52.6323C62.0597 51.3718 64.052 50.7067 66.6013 50.7067V49C63.7585 49 61.3635 49.7473 59.4904 51.3118L60.5505 52.6323ZM66.6013 50.7067C68.3298 50.7067 69.8356 51.0469 71.1378 51.7053L71.881 50.1762C70.3156 49.3848 68.5492 49 66.6013 49V50.7067ZM71.1403 51.7066C72.4602 52.3684 73.4521 53.2658 74.1463 54.3943L75.5636 53.4873C74.6892 52.0658 73.4507 50.9633 71.8784 50.175L71.1403 51.7066ZM74.1494 54.3994C74.8604 55.5373 75.2132 56.772 75.2132 58.122H76.8864C76.8864 56.4471 76.4427 54.8943 75.5605 53.4822L74.1494 54.3994ZM76.0498 57.2687H72.5021V58.9754H76.0498V57.2687ZM73.3387 58.122C73.3387 56.2749 72.7533 54.7319 71.5151 53.6042L70.4007 54.8773C71.2213 55.6247 71.6655 56.6692 71.6655 58.122H73.3387ZM71.5192 53.608C70.2889 52.4726 68.61 51.9624 66.6013 51.9624V53.6691C68.3426 53.6691 69.5681 54.109 70.3966 54.8736L71.5192 53.608ZM66.6013 51.9624C64.7461 51.9624 63.1792 52.3817 62.0028 53.3267L63.038 54.6675C63.8224 54.0374 64.9761 53.6691 66.6013 53.6691V51.9624ZM62.0039 53.3258C60.8106 54.281 60.2316 55.6228 60.2316 57.2408H61.9048C61.9048 56.0838 62.294 55.263 63.0369 54.6684L62.0039 53.3258ZM60.2316 57.2408C60.2316 58.6335 60.8229 59.8099 61.9139 60.7298L62.98 59.4143C62.2327 58.7842 61.9048 58.0731 61.9048 57.2408H60.2316ZM61.9232 60.7375C62.9904 61.6112 64.6998 62.3484 66.9443 62.9934L67.398 61.3507C65.2062 60.7208 63.7661 60.0578 62.9706 59.4066L61.9232 60.7375ZM66.9454 62.9937C69.1398 63.6209 70.7988 64.3018 71.9572 65.02L72.8262 63.5616C71.4847 62.7298 69.6633 61.9981 67.3969 61.3504L66.9454 62.9937ZM71.9654 65.025C73.1376 65.7331 73.9547 66.534 74.4677 67.4097L75.904 66.5343C75.2161 65.3601 74.1704 64.3736 72.818 63.5566L71.9654 65.025ZM74.4716 67.4163C74.9925 68.2877 75.2684 69.3352 75.2684 70.5908H76.9416C76.9416 69.0714 76.6047 67.7064 75.9002 66.5278L74.4716 67.4163ZM75.2684 70.5908C75.2684 72.5437 74.5391 74.0681 73.0556 75.2415L74.0808 76.5901C75.9796 75.0884 76.9416 73.0629 76.9416 70.5908H75.2684ZM73.0586 75.2391C71.555 76.4171 69.4919 77.05 66.7851 77.05V78.7567C69.7401 78.7567 72.199 78.0645 74.0778 76.5925L73.0586 75.2391ZM66.7851 77.05C65.0558 77.05 63.4553 76.7155 61.974 76.0531L61.3021 77.616C63.0071 78.3786 64.8379 78.7567 66.7851 78.7567V77.05ZM61.979 76.0553C60.5003 75.3823 59.3957 74.4847 58.6254 73.378L57.261 74.3661C58.2309 75.7594 59.5895 76.8368 61.2972 77.6138L61.979 76.0553ZM58.6285 73.3827C57.8733 72.2822 57.493 71.0357 57.493 69.6158H55.8198C55.8198 71.3708 56.2974 72.9619 57.2579 74.3614L58.6285 73.3827ZM56.6564 70.4691H60.2042V68.7624H56.6564V70.4691ZM59.3676 69.6158C59.3676 71.5064 60.0638 73.0667 61.4672 74.2029L62.5074 72.8662C61.5334 72.0775 61.0408 71.0252 61.0408 69.6158H59.3676ZM61.4747 74.2088C62.8627 75.3068 64.6604 75.8128 66.7851 75.8128V74.1062C64.9148 74.1062 63.514 73.6623 62.5 72.8602L61.4747 74.2088ZM66.7851 75.8128C68.7456 75.8128 70.382 75.4074 71.5767 74.4746L70.5597 73.1195C69.7691 73.7367 68.5501 74.1062 66.7851 74.1062V75.8128ZM71.5767 74.4746C72.7877 73.5292 73.3938 72.2163 73.3938 70.6283H71.7206C71.7206 71.7153 71.334 72.5149 70.5597 73.1195L71.5767 74.4746ZM73.3938 70.6283C73.3938 69.0654 72.8425 67.7684 71.6903 66.8595L70.6667 68.2096C71.3527 68.7507 71.7206 69.5163 71.7206 70.6283H73.3938ZM71.6957 66.8639C70.6402 66.0169 68.8372 65.2558 66.411 64.5398L65.946 66.1792C68.3483 66.8883 69.8786 67.5772 70.6612 68.2052L71.6957 66.8639ZM100.333 68.8658L101.164 68.9648L101.273 68.0124H100.333V68.8658ZM97.1898 75.5596L97.7403 76.202V76.2017L97.1898 75.5596ZM82.5756 74.4345L81.9342 74.9826L81.936 74.9847L82.5756 74.4345ZM81.0498 55.8345L80.2938 55.469L80.292 55.4731L81.0498 55.8345ZM84.8366 51.4096L85.2756 52.1359L85.2795 52.1334L84.8366 51.4096ZM97.3362 52.2908L96.7673 52.9161L96.7699 52.9183L97.3362 52.2908ZM100.333 59.0033V59.8566H101.257L101.165 58.918L100.333 59.0033ZM96.7849 59.0033L95.9567 59.1246L96.0604 59.8566H96.7849V59.0033ZM94.7813 54.2783L94.2082 54.9001L94.2124 54.9036L94.7813 54.2783ZM85.1859 55.3658L84.5236 54.8443L84.5213 54.8475L85.1859 55.3658ZM94.6892 73.6095L95.2305 74.2607V74.2601L94.6892 73.6095ZM96.7849 68.8658V68.0124H96.0688L95.9584 68.7346L96.7849 68.8658ZM99.5022 68.7667C99.1893 71.4916 98.2155 73.5103 96.6385 74.9174L97.7403 76.2017C99.6929 74.4588 100.814 72.015 101.164 68.9648L99.5022 68.7667ZM96.6385 74.9171C95.0749 76.3118 92.9533 77.05 90.1858 77.05V78.7567C93.252 78.7567 95.7994 77.9323 97.7403 76.202L96.6385 74.9171ZM90.1858 77.05C87.2519 77.05 84.9563 75.9906 83.2151 73.8845L81.936 74.9847C84.0183 77.5035 86.7961 78.7567 90.1858 78.7567V77.05ZM83.2168 73.8865C81.4758 71.767 80.5629 68.8861 80.5629 65.1533H78.8897C78.8897 69.1706 79.8763 72.4771 81.9342 74.9826L83.2168 73.8865ZM80.5629 65.1533V62.5283H78.8897V65.1533H80.5629ZM80.5629 62.5283C80.5629 60.0918 80.9863 57.988 81.8077 56.196L80.292 55.4731C79.3486 57.5311 78.8897 59.8898 78.8897 62.5283H80.5629ZM81.8058 56.2001C82.6377 54.41 83.7958 53.0666 85.2756 52.1359L84.3975 50.6832C82.6176 51.8025 81.2512 53.4091 80.2938 55.469L81.8058 56.2001ZM85.2795 52.1334C86.7615 51.1902 88.4917 50.7067 90.4987 50.7067V49C88.2156 49 86.1715 49.554 84.3937 50.6856L85.2795 52.1334ZM90.4987 50.7067C93.1783 50.7067 95.238 51.4678 96.7673 52.9161L97.906 51.6655C96.0035 49.8638 93.5046 49 90.4987 49V50.7067ZM96.7699 52.9183C98.305 54.3611 99.2345 56.3883 99.5005 59.0885L101.165 58.918C100.868 55.8932 99.8 53.4455 97.9035 51.6633L96.7699 52.9183ZM100.333 58.15H96.7849V59.8566H100.333V58.15ZM97.6132 58.8819C97.2936 56.6117 96.5783 54.8154 95.351 53.653L94.2124 54.9036C95.0439 55.6912 95.6639 57.0449 95.9567 59.1246L97.6132 58.8819ZM95.3543 53.6565C94.1379 52.4905 92.4798 51.9624 90.4987 51.9624V53.6691C92.1928 53.6691 93.3908 54.1161 94.2082 54.9001L95.3543 53.6565ZM90.4987 51.9624C88.0056 51.9624 85.9814 52.9184 84.5236 54.8443L85.848 55.8872C86.9641 54.4131 88.4817 53.6691 90.4987 53.6691V51.9624ZM84.5213 54.8475C83.0939 56.7514 82.4375 59.3811 82.4375 62.622H84.1107C84.1107 59.588 84.7288 57.3802 85.8504 55.8842L84.5213 54.8475ZM82.4375 62.622V65.2658H84.1107V62.622H82.4375ZM82.4375 65.2658C82.4375 68.3391 83.0661 70.8875 84.4108 72.8272L85.777 71.8419C84.6954 70.2816 84.1107 68.1175 84.1107 65.2658H82.4375ZM84.4108 72.8272C85.7879 74.8134 87.7454 75.8128 90.1858 75.8128V74.1062C88.2641 74.1062 86.8265 73.3557 85.777 71.8419L84.4108 72.8272ZM90.1858 75.8128C92.2597 75.8128 93.9831 75.338 95.2305 74.2607L94.1488 72.9584C93.3122 73.6811 92.033 74.1062 90.1858 74.1062V75.8128ZM95.2305 74.2601C96.508 73.1545 97.2559 71.3325 97.6115 68.9969L95.9584 68.7346C95.6287 70.8991 94.9787 72.2395 94.148 72.959L95.2305 74.2601ZM96.7849 69.7191H100.333V68.0124H96.7849V69.7191Z" fill="url(#paint0_linear)"/>
<defs>
<filter id="filter0_d" x="0" y="0" width="136" height="136" filterUnits="userSpaceOnUse" color-interpolation-filters="sRGB">
<feFlood flood-opacity="0" result="BackgroundImageFix"/>
<feColorMatrix in="SourceAlpha" type="matrix" values="0 0 0 0 0 0 0 0 0 0 0 0 0 0 0 0 0 0 127 0"/>
<feOffset dy="4"/>
<feGaussianBlur stdDeviation="2"/>
<feColorMatrix type="matrix" values="0 0 0 0 0 0 0 0 0 0 0 0 0 0 0 0 0 0 0.25 0"/>
<feBlend mode="normal" in2="BackgroundImageFix" result="effect1_dropShadow"/>
<feBlend mode="normal" in="SourceGraphic" in2="effect1_dropShadow" result="shape"/>
</filter>
<linearGradient id="paint0_linear" x1="31.73" y1="41.6883" x2="105.834" y2="86.0229" gradientUnits="userSpaceOnUse">
<stop stop-color="#EE0014"/>
<stop offset="1" stop-color="#4700D3"/>
</linearGradient>
</defs>
</svg>
