<svg width="159" height="159" viewBox="0 0 159 159" fill="none" xmlns="http://www.w3.org/2000/svg">
<g filter="url(#filter0_dd)">
<path d="M105 14H54C31.9086 14 14 31.9086 14 54V105C14 127.091 31.9086 145 54 145H105C127.091 145 145 127.091 145 105V54C145 31.9086 127.091 14 105 14Z" fill="#D8E1EA"/>
<path d="M105 14.25H54C32.0467 14.25 14.25 32.0467 14.25 54V105C14.25 126.953 32.0467 144.75 54 144.75H105C126.953 144.75 144.75 126.953 144.75 105V54C144.75 32.0467 126.953 14.25 105 14.25Z" stroke="url(#paint0_linear)" stroke-width="0.5"/>
<path d="M33 60.5537H44.997C50.4638 60.5537 54.4277 61.3359 56.8886 62.9004C59.3672 64.4472 60.6064 66.917 60.6064 70.3095C60.6064 72.6123 60.0615 74.5019 58.9717 75.9785C57.8994 77.455 56.4668 78.3427 54.6738 78.6416V78.9052C57.1172 79.4502 58.875 80.4697 59.9472 81.9638C61.0371 83.458 61.582 85.4443 61.582 87.9228C61.582 91.4384 60.3076 94.1806 57.7588 96.1494C55.2275 98.1181 51.7822 99.1025 47.4228 99.1025H33V60.5537ZM41.1738 75.8203H45.9199C48.1347 75.8203 49.7343 75.4775 50.7187 74.792C51.7207 74.1064 52.2217 72.9726 52.2217 71.3906C52.2217 69.914 51.6767 68.8593 50.5869 68.2265C49.5146 67.5761 47.8095 67.2509 45.4717 67.2509H41.1738V75.8203ZM41.1738 82.3066V92.3525H46.5C48.75 92.3525 50.4111 91.9218 51.4834 91.0605C52.5556 90.1992 53.0918 88.8808 53.0918 87.1054C53.0918 83.9062 50.8066 82.3066 46.2363 82.3066H41.1738ZM92.0361 88.3974C92.0361 91.8779 90.7793 94.6201 88.2656 96.624C85.7695 98.6279 82.289 99.6295 77.8242 99.6295C73.7109 99.6295 70.0722 98.8564 66.9082 97.3095V89.7158C69.5097 90.8759 71.707 91.6933 73.5 92.1679C75.3105 92.6425 76.9629 92.8798 78.457 92.8798C80.25 92.8798 81.6211 92.5371 82.5703 91.8515C83.5371 91.166 84.0205 90.1464 84.0205 88.7929C84.0205 88.0371 83.8095 87.3691 83.3877 86.789C82.9658 86.1914 82.3418 85.6201 81.5156 85.0752C80.707 84.5302 79.0459 83.6601 76.5322 82.4648C74.1767 81.3574 72.4101 80.2939 71.2324 79.2744C70.0547 78.2548 69.1142 77.0683 68.4111 75.7148C67.708 74.3613 67.3564 72.7793 67.3564 70.9687C67.3564 67.5586 68.5078 64.8779 70.8105 62.9267C73.1308 60.9755 76.33 60 80.4082 60C82.4121 60 84.3193 60.2373 86.1299 60.7119C87.958 61.1865 89.8652 61.8545 91.8515 62.7158L89.2148 69.0703C87.1582 68.2265 85.4531 67.6377 84.0996 67.3037C82.7636 66.9697 81.4453 66.8027 80.1445 66.8027C78.5976 66.8027 77.4111 67.163 76.5849 67.8837C75.7588 68.6045 75.3457 69.5449 75.3457 70.705C75.3457 71.4257 75.5127 72.0586 75.8467 72.6035C76.1806 73.1308 76.708 73.6494 77.4287 74.1591C78.167 74.6513 79.8984 75.5478 82.623 76.8486C86.2265 78.5713 88.6963 80.3027 90.0322 82.0429C91.3681 83.7656 92.0361 85.8837 92.0361 88.3974ZM115.398 66.8027C112.321 66.8027 109.94 67.9629 108.252 70.2832C106.565 72.5859 105.721 75.8027 105.721 79.9336C105.721 88.5293 108.946 92.8271 115.398 92.8271C118.105 92.8271 121.383 92.1504 125.232 90.7968V97.6523C122.068 98.9707 118.535 99.6295 114.633 99.6295C109.025 99.6295 104.736 97.9336 101.766 94.541C98.7949 91.1308 97.3095 86.2441 97.3095 79.8808C97.3095 75.873 98.039 72.3662 99.4979 69.3603C100.957 66.3369 103.049 64.0254 105.774 62.4257C108.516 60.8086 111.724 60 115.398 60C119.142 60 122.903 60.9052 126.683 62.7158L124.046 69.3603C122.605 68.6748 121.154 68.0771 119.695 67.5673C118.236 67.0576 116.804 66.8027 115.398 66.8027Z" fill="#0052FF"/>
</g>
<defs>
<filter id="filter0_dd" x="0" y="0" width="159" height="159" filterUnits="userSpaceOnUse" color-interpolation-filters="sRGB">
<feFlood flood-opacity="0" result="BackgroundImageFix"/>
<feColorMatrix in="SourceAlpha" type="matrix" values="0 0 0 0 0 0 0 0 0 0 0 0 0 0 0 0 0 0 127 0"/>
<feOffset dx="5" dy="5"/>
<feGaussianBlur stdDeviation="4.5"/>
<feColorMatrix type="matrix" values="0 0 0 0 0.745098 0 0 0 0 0.745098 0 0 0 0 0.745098 0 0 0 0.7 0"/>
<feBlend mode="normal" in2="BackgroundImageFix" result="effect1_dropShadow"/>
<feColorMatrix in="SourceAlpha" type="matrix" values="0 0 0 0 0 0 0 0 0 0 0 0 0 0 0 0 0 0 127 0"/>
<feOffset dx="-5" dy="-5"/>
<feGaussianBlur stdDeviation="4.5"/>
<feColorMatrix type="matrix" values="0 0 0 0 1 0 0 0 0 1 0 0 0 0 1 0 0 0 0.8 0"/>
<feBlend mode="normal" in2="effect1_dropShadow" result="effect2_dropShadow"/>
<feBlend mode="normal" in="SourceGraphic" in2="effect2_dropShadow" result="shape"/>
</filter>
<linearGradient id="paint0_linear" x1="43.9429" y1="54.5476" x2="139.698" y2="141.257" gradientUnits="userSpaceOnUse">
<stop stop-color="#FEFEFF"/>
<stop offset="1" stop-color="#C6CEDA"/>
</linearGradient>
</defs>
</svg>
