<svg width="88" height="88" viewBox="0 0 88 88" fill="none" xmlns="http://www.w3.org/2000/svg">
<g filter="url(#filter0_dd)">
<rect x="14" y="14" width="60" height="60" rx="11" fill="#D8E1EA"/>
<rect x="14.25" y="14.25" width="59.5" height="59.5" rx="10.75" stroke="url(#paint0_linear)" stroke-width="0.5"/>
</g>
<path d="M42.2157 55.6567H36.6366L27.6307 39.9956H27.5033C27.6827 42.7616 27.7723 44.7345 27.7723 45.9146V55.6567H23.85V34.9546H29.3866L38.3783 50.46H38.4774C38.3358 47.7695 38.265 45.8674 38.265 44.7534V34.9546H42.2157V55.6567ZM64.2914 34.9546V48.3501C64.2914 49.8794 63.9468 51.2199 63.2577 52.3716C62.578 53.5233 61.5915 54.4059 60.2982 55.0195C59.0049 55.6331 57.4756 55.9399 55.7103 55.9399C53.0482 55.9399 50.9808 55.2603 49.5082 53.9009C48.0355 52.5321 47.2992 50.6629 47.2992 48.2935V34.9546H51.6747V47.6279C51.6747 49.2233 51.9957 50.3939 52.6376 51.1396C53.2795 51.8854 54.3415 52.2583 55.8236 52.2583C57.2585 52.2583 58.2969 51.8854 58.9389 51.1396C59.5902 50.3844 59.9159 49.2044 59.9159 47.5996V34.9546H64.2914Z" fill="#F03EFF"/>
<defs>
<filter id="filter0_dd" x="0" y="0" width="88" height="88" filterUnits="userSpaceOnUse" color-interpolation-filters="sRGB">
<feFlood flood-opacity="0" result="BackgroundImageFix"/>
<feColorMatrix in="SourceAlpha" type="matrix" values="0 0 0 0 0 0 0 0 0 0 0 0 0 0 0 0 0 0 127 0"/>
<feOffset dx="5" dy="5"/>
<feGaussianBlur stdDeviation="4.5"/>
<feColorMatrix type="matrix" values="0 0 0 0 0.745098 0 0 0 0 0.745098 0 0 0 0 0.745098 0 0 0 0.7 0"/>
<feBlend mode="normal" in2="BackgroundImageFix" result="effect1_dropShadow"/>
<feColorMatrix in="SourceAlpha" type="matrix" values="0 0 0 0 0 0 0 0 0 0 0 0 0 0 0 0 0 0 127 0"/>
<feOffset dx="-5" dy="-5"/>
<feGaussianBlur stdDeviation="4.5"/>
<feColorMatrix type="matrix" values="0 0 0 0 1 0 0 0 0 1 0 0 0 0 1 0 0 0 0.8 0"/>
<feBlend mode="normal" in2="effect1_dropShadow" result="effect2_dropShadow"/>
<feBlend mode="normal" in="SourceGraphic" in2="effect2_dropShadow" result="shape"/>
</filter>
<linearGradient id="paint0_linear" x1="27.7143" y1="32.5714" x2="71.5714" y2="72.2857" gradientUnits="userSpaceOnUse">
<stop stop-color="#FEFEFF"/>
<stop offset="1" stop-color="#C6CEDA"/>
</linearGradient>
</defs>
</svg>
