<svg width="300" height="300" viewBox="0 0 300 300" fill="none" xmlns="http://www.w3.org/2000/svg">
<circle cx="150" cy="150" r="139" stroke="#1A1A1A" stroke-width="22"/>
<path d="M136.5 182.821H158.438V181.364C158.744 163.722 163.807 155.821 176.847 147.767C190.577 139.483 199.014 127.824 199.014 110.565C199.014 85.6364 180.145 68.7614 151.994 68.7614C126.145 68.7614 105.435 83.8722 104.438 111.486H127.756C128.676 95.2244 140.259 88.0909 151.994 88.0909C165.034 88.0909 175.619 96.7585 175.619 110.335C175.619 121.764 168.486 129.818 159.358 135.494C145.091 144.239 136.653 152.906 136.5 181.364V182.821ZM148.082 229.457C156.443 229.457 163.423 222.631 163.423 214.116C163.423 205.756 156.443 198.852 148.082 198.852C139.645 198.852 132.741 205.756 132.741 214.116C132.741 222.631 139.645 229.457 148.082 229.457Z" fill="#1A1A1A"/>
</svg>
