<svg width="60" height="60" viewBox="0 0 60 60" fill="none" xmlns="http://www.w3.org/2000/svg">
<g filter="url(#filter0_d)">
<rect x="4" width="51.5" height="51.5" rx="11.5" fill="url(#paint0_linear)"/>
</g>
<g filter="url(#filter1_d)">
<path d="M26.9727 30.9922C26.9987 29.4427 27.1745 28.2188 27.5 27.3203C27.8255 26.4219 28.4896 25.4258 29.4922 24.332L32.0508 21.6953C33.1445 20.4583 33.6914 19.1302 33.6914 17.7109C33.6914 16.3438 33.3333 15.276 32.6172 14.5078C31.901 13.7266 30.8594 13.3359 29.4922 13.3359C28.1641 13.3359 27.0964 13.6875 26.2891 14.3906C25.4818 15.0938 25.0781 16.0378 25.0781 17.2227H21.4648C21.4909 15.1133 22.2396 13.4141 23.7109 12.125C25.1953 10.8229 27.1224 10.1719 29.4922 10.1719C31.9531 10.1719 33.8672 10.8359 35.2344 12.1641C36.6146 13.4792 37.3047 15.2891 37.3047 17.5938C37.3047 19.8724 36.25 22.1185 34.1406 24.332L32.0117 26.4414C31.0612 27.4961 30.5859 29.013 30.5859 30.9922H26.9727ZM26.8164 37.1836C26.8164 36.5977 26.9922 36.1094 27.3438 35.7188C27.7083 35.3151 28.2422 35.1133 28.9453 35.1133C29.6484 35.1133 30.1823 35.3151 30.5469 35.7188C30.9115 36.1094 31.0938 36.5977 31.0938 37.1836C31.0938 37.7695 30.9115 38.2578 30.5469 38.6484C30.1823 39.026 29.6484 39.2148 28.9453 39.2148C28.2422 39.2148 27.7083 39.026 27.3438 38.6484C26.9922 38.2578 26.8164 37.7695 26.8164 37.1836Z" fill="white"/>
</g>
<defs>
<filter id="filter0_d" x="0" y="0" width="59.5" height="59.5" filterUnits="userSpaceOnUse" color-interpolation-filters="sRGB">
<feFlood flood-opacity="0" result="BackgroundImageFix"/>
<feColorMatrix in="SourceAlpha" type="matrix" values="0 0 0 0 0 0 0 0 0 0 0 0 0 0 0 0 0 0 127 0"/>
<feOffset dy="4"/>
<feGaussianBlur stdDeviation="2"/>
<feColorMatrix type="matrix" values="0 0 0 0 0 0 0 0 0 0 0 0 0 0 0 0 0 0 0.25 0"/>
<feBlend mode="normal" in2="BackgroundImageFix" result="effect1_dropShadow"/>
<feBlend mode="normal" in="SourceGraphic" in2="effect1_dropShadow" result="shape"/>
</filter>
<filter id="filter1_d" x="17.4648" y="10.1719" width="23.8398" height="37.043" filterUnits="userSpaceOnUse" color-interpolation-filters="sRGB">
<feFlood flood-opacity="0" result="BackgroundImageFix"/>
<feColorMatrix in="SourceAlpha" type="matrix" values="0 0 0 0 0 0 0 0 0 0 0 0 0 0 0 0 0 0 127 0"/>
<feOffset dy="4"/>
<feGaussianBlur stdDeviation="2"/>
<feColorMatrix type="matrix" values="0 0 0 0 0 0 0 0 0 0 0 0 0 0 0 0 0 0 0.25 0"/>
<feBlend mode="normal" in2="BackgroundImageFix" result="effect1_dropShadow"/>
<feBlend mode="normal" in="SourceGraphic" in2="effect1_dropShadow" result="shape"/>
</filter>
<linearGradient id="paint0_linear" x1="29.75" y1="0" x2="29.75" y2="51.5" gradientUnits="userSpaceOnUse">
<stop stop-color="#BFBFBF"/>
<stop offset="1" stop-color="#474747"/>
</linearGradient>
</defs>
</svg>
