<svg width="300" height="300" viewBox="0 0 300 300" fill="none" xmlns="http://www.w3.org/2000/svg">
<g clip-path="url(#clip0)">
<g filter="url(#filter0_d)">
<path d="M275.806 0H24.1936C10.8318 0 0 10.8318 0 24.1936V275.806C0 289.168 10.8318 300 24.1936 300H275.806C289.168 300 300 289.168 300 275.806V24.1936C300 10.8318 289.168 0 275.806 0Z" fill="url(#paint0_linear)"/>
<g filter="url(#filter1_i)">
<path d="M126.585 180.49H160.232V177.472C160.41 160.16 166.624 152.081 180.651 143.647C197.253 133.793 208.084 120.742 208.084 99.8793C208.084 68.8068 183.048 50.696 147.803 50.696C115.577 50.696 89.2983 67.5639 88.4993 103.075H124.721C125.254 88.6044 135.996 80.8807 147.626 80.8807C159.611 80.8807 169.288 88.8707 169.288 101.211C169.288 112.841 160.854 120.565 149.934 127.489C135.019 136.9 126.674 146.399 126.585 177.472V180.49ZM144.075 237.308C155.438 237.308 165.293 227.809 165.381 216.001C165.293 204.371 155.438 194.872 144.075 194.872C132.356 194.872 122.679 204.371 122.768 216.001C122.679 227.809 132.356 237.308 144.075 237.308Z" fill="#0267DE"/>
</g>
</g>
</g>
<defs>
<filter id="filter0_d" x="-4" y="0" width="308" height="308" filterUnits="userSpaceOnUse" color-interpolation-filters="sRGB">
<feFlood flood-opacity="0" result="BackgroundImageFix"/>
<feColorMatrix in="SourceAlpha" type="matrix" values="0 0 0 0 0 0 0 0 0 0 0 0 0 0 0 0 0 0 127 0"/>
<feOffset dy="4"/>
<feGaussianBlur stdDeviation="2"/>
<feColorMatrix type="matrix" values="0 0 0 0 0 0 0 0 0 0 0 0 0 0 0 0 0 0 0.25 0"/>
<feBlend mode="normal" in2="BackgroundImageFix" result="effect1_dropShadow"/>
<feBlend mode="normal" in="SourceGraphic" in2="effect1_dropShadow" result="shape"/>
</filter>
<filter id="filter1_i" x="88.4993" y="50.696" width="119.585" height="190.612" filterUnits="userSpaceOnUse" color-interpolation-filters="sRGB">
<feFlood flood-opacity="0" result="BackgroundImageFix"/>
<feBlend mode="normal" in="SourceGraphic" in2="BackgroundImageFix" result="shape"/>
<feColorMatrix in="SourceAlpha" type="matrix" values="0 0 0 0 0 0 0 0 0 0 0 0 0 0 0 0 0 0 127 0" result="hardAlpha"/>
<feOffset dy="4"/>
<feGaussianBlur stdDeviation="2"/>
<feComposite in2="hardAlpha" operator="arithmetic" k2="-1" k3="1"/>
<feColorMatrix type="matrix" values="0 0 0 0 0 0 0 0 0 0 0 0 0 0 0 0 0 0 0.25 0"/>
<feBlend mode="normal" in2="shape" result="effect1_innerShadow"/>
</filter>
<linearGradient id="paint0_linear" x1="150" y1="0" x2="150" y2="300" gradientUnits="userSpaceOnUse">
<stop stop-color="white"/>
<stop offset="1" stop-color="#9E9E9E"/>
</linearGradient>
<clipPath id="clip0">
<rect width="300" height="300" fill="white"/>
</clipPath>
</defs>
</svg>
