<svg width="131" height="61" viewBox="0 0 131 61" fill="none" xmlns="http://www.w3.org/2000/svg">
<rect width="131" height="61" fill="#001F3F"/>
<path d="M18.9414 11.7373H31.1606C36.7287 11.7373 40.766 12.534 43.2725 14.1274C45.7969 15.703 47.0591 18.2184 47.0591 21.6738C47.0591 24.0192 46.5041 25.9438 45.394 27.4478C44.3019 28.9517 42.8428 29.8558 41.0166 30.1602V30.4287C43.5052 30.9837 45.2956 32.0221 46.3877 33.5439C47.4977 35.0658 48.0527 37.0889 48.0527 39.6133C48.0527 43.194 46.7547 45.987 44.1587 47.9922C41.5806 49.9974 38.0715 51 33.6313 51H18.9414V11.7373ZM27.2666 27.2866H32.1006C34.3564 27.2866 35.9857 26.9375 36.9883 26.2393C38.0088 25.541 38.519 24.3862 38.519 22.7749C38.519 21.271 37.964 20.1968 36.854 19.5522C35.7619 18.8898 34.0252 18.5586 31.644 18.5586H27.2666V27.2866ZM27.2666 33.8931V44.125H32.6914C34.9831 44.125 36.675 43.6864 37.7671 42.8091C38.8592 41.9318 39.4053 40.589 39.4053 38.7808C39.4053 35.5223 37.0778 33.8931 32.4229 33.8931H27.2666ZM79.0708 40.0967C79.0708 43.6416 77.7907 46.4346 75.2305 48.4756C72.6882 50.5166 69.1432 51.5371 64.5957 51.5371C60.4062 51.5371 56.7002 50.7493 53.4775 49.1738V41.4395C56.1273 42.6211 58.3652 43.4536 60.1914 43.937C62.0355 44.4204 63.7184 44.6621 65.2402 44.6621C67.0664 44.6621 68.4629 44.313 69.4297 43.6147C70.4144 42.9165 70.9067 41.8781 70.9067 40.4995C70.9067 39.7297 70.6919 39.0493 70.2622 38.4585C69.8325 37.8498 69.1969 37.2679 68.3555 36.7129C67.5319 36.1579 65.84 35.2716 63.2798 34.0542C60.8807 32.9263 59.0814 31.8431 57.8818 30.8047C56.6823 29.7663 55.7244 28.5578 55.0083 27.1792C54.2922 25.8006 53.9341 24.1893 53.9341 22.3452C53.9341 18.8719 55.1068 16.1416 57.4521 14.1543C59.8154 12.167 63.0739 11.1733 67.2275 11.1733C69.2686 11.1733 71.2111 11.415 73.0552 11.8984C74.9172 12.3818 76.8597 13.0622 78.8828 13.9395L76.1973 20.4116C74.1025 19.5522 72.3659 18.9525 70.9873 18.6123C69.6266 18.2721 68.2839 18.1021 66.959 18.1021C65.3835 18.1021 64.175 18.4691 63.3335 19.2031C62.492 19.9372 62.0713 20.895 62.0713 22.0767C62.0713 22.8107 62.2414 23.4552 62.5815 24.0103C62.9217 24.5474 63.4588 25.0755 64.1929 25.5947C64.9448 26.096 66.7083 27.0091 69.4834 28.334C73.1536 30.0885 75.6691 31.8521 77.0298 33.6245C78.3905 35.3791 79.0708 37.5365 79.0708 40.0967ZM102.865 18.1021C99.7316 18.1021 97.3057 19.2837 95.5869 21.647C93.8682 23.9924 93.0088 27.2687 93.0088 31.4761C93.0088 40.231 96.2941 44.6084 102.865 44.6084C105.622 44.6084 108.961 43.9191 112.882 42.5405V49.5229C109.659 50.8657 106.061 51.5371 102.086 51.5371C96.3747 51.5371 92.0062 49.8094 88.9805 46.354C85.9548 42.8807 84.4419 37.9035 84.4419 31.4224C84.4419 27.3403 85.1849 23.7686 86.6709 20.707C88.1569 17.6276 90.2874 15.2733 93.0625 13.644C95.8555 11.9969 99.1229 11.1733 102.865 11.1733C106.678 11.1733 110.51 12.0954 114.359 13.9395L111.673 20.707C110.205 20.0088 108.728 19.4001 107.242 18.8809C105.756 18.3617 104.297 18.1021 102.865 18.1021Z" fill="#D8E1EA"/>
</svg>
