<svg width="88" height="88" viewBox="0 0 88 88" fill="none" xmlns="http://www.w3.org/2000/svg">
<g filter="url(#filter0_dd)">
<path d="M63 14H25C18.9249 14 14 18.9249 14 25V63C14 69.0751 18.9249 74 25 74H63C69.0751 74 74 69.0751 74 63V25C74 18.9249 69.0751 14 63 14Z" fill="url(#paint0_linear)"/>
<path d="M63 14.25H25C19.0629 14.25 14.25 19.0629 14.25 25V63C14.25 68.9371 19.0629 73.75 25 73.75H63C68.9371 73.75 73.75 68.9371 73.75 63V25C73.75 19.0629 68.9371 14.25 63 14.25Z" stroke="url(#paint1_linear)" stroke-width="0.5"/>
</g>
<path d="M24.1406 26.1562H30.5938C33.625 26.1562 35.8177 26.6094 37.1719 27.5156C38.526 28.4219 39.2031 29.8542 39.2031 31.8125C39.2031 33.1667 38.8229 34.2865 38.0625 35.1719C37.3125 36.0469 36.2135 36.6146 34.7656 36.875V37.0312C38.2344 37.625 39.9688 39.4479 39.9688 42.5C39.9688 44.5417 39.276 46.1354 37.8906 47.2812C36.5156 48.4271 34.5885 49 32.1094 49H24.1406V26.1562ZM26.7969 35.9375H31.1719C33.0469 35.9375 34.3958 35.6458 35.2188 35.0625C36.0417 34.4688 36.4531 33.474 36.4531 32.0781C36.4531 30.7969 35.9948 29.875 35.0781 29.3125C34.1615 28.7396 32.7031 28.4531 30.7031 28.4531H26.7969V35.9375ZM26.7969 38.1875V46.7344H31.5625C33.4062 46.7344 34.7917 46.3802 35.7188 45.6719C36.6562 44.9531 37.125 43.8333 37.125 42.3125C37.125 40.8958 36.6458 39.8542 35.6875 39.1875C34.7396 38.5208 33.2917 38.1875 31.3438 38.1875H26.7969ZM62.1406 26.1562V40.9375C62.1406 43.5417 61.3542 45.5885 59.7812 47.0781C58.2083 48.5677 56.0469 49.3125 53.2969 49.3125C50.5469 49.3125 48.4167 48.5625 46.9062 47.0625C45.4062 45.5625 44.6562 43.5 44.6562 40.875V26.1562H47.3125V41.0625C47.3125 42.9688 47.8333 44.4323 48.875 45.4531C49.9167 46.474 51.4479 46.9844 53.4688 46.9844C55.3958 46.9844 56.8802 46.474 57.9219 45.4531C58.9635 44.4219 59.4844 42.9479 59.4844 41.0312V26.1562H62.1406Z" fill="white"/>
<path d="M27.4722 53.292H30.4971C31.918 53.292 32.9458 53.5044 33.5806 53.9292C34.2153 54.354 34.5327 55.0254 34.5327 55.9434C34.5327 56.5781 34.3545 57.103 33.998 57.5181C33.6465 57.9282 33.1313 58.1943 32.4526 58.3164V58.3896C34.0786 58.668 34.8916 59.5225 34.8916 60.9531C34.8916 61.9102 34.5669 62.6572 33.9175 63.1943C33.2729 63.7314 32.3696 64 31.2075 64H27.4722V53.292ZM28.7173 57.877H30.7681C31.647 57.877 32.2793 57.7402 32.665 57.4668C33.0508 57.1885 33.2437 56.7222 33.2437 56.0679C33.2437 55.4673 33.0288 55.0352 32.5991 54.7715C32.1694 54.5029 31.4858 54.3687 30.5483 54.3687H28.7173V57.877ZM28.7173 58.9316V62.938H30.9512C31.8154 62.938 32.4648 62.772 32.8994 62.4399C33.3389 62.103 33.5586 61.5781 33.5586 60.8652C33.5586 60.2012 33.334 59.7129 32.8848 59.4004C32.4404 59.0879 31.7617 58.9316 30.8486 58.9316H28.7173ZM43.168 64H37.1987V53.292H43.168V54.3979H38.4438V57.8477H42.8823V58.9463H38.4438V62.8867H43.168V64ZM48.8442 64H47.5991V54.3979H44.208V53.292H52.2354V54.3979H48.8442V64ZM60.585 64L59.252 60.5942H54.96L53.6416 64H52.3818L56.6152 53.248H57.6626L61.874 64H60.585ZM58.8638 59.4736L57.6187 56.1558C57.4575 55.7358 57.2915 55.2207 57.1206 54.6104C57.0132 55.0791 56.8594 55.5942 56.6592 56.1558L55.3994 59.4736H58.8638Z" fill="white"/>
<defs>
<filter id="filter0_dd" x="0" y="0" width="88" height="88" filterUnits="userSpaceOnUse" color-interpolation-filters="sRGB">
<feFlood flood-opacity="0" result="BackgroundImageFix"/>
<feColorMatrix in="SourceAlpha" type="matrix" values="0 0 0 0 0 0 0 0 0 0 0 0 0 0 0 0 0 0 127 0"/>
<feOffset dx="5" dy="5"/>
<feGaussianBlur stdDeviation="4.5"/>
<feColorMatrix type="matrix" values="0 0 0 0 0.745098 0 0 0 0 0.745098 0 0 0 0 0.745098 0 0 0 0.7 0"/>
<feBlend mode="normal" in2="BackgroundImageFix" result="effect1_dropShadow"/>
<feColorMatrix in="SourceAlpha" type="matrix" values="0 0 0 0 0 0 0 0 0 0 0 0 0 0 0 0 0 0 127 0"/>
<feOffset dx="-5" dy="-5"/>
<feGaussianBlur stdDeviation="4.5"/>
<feColorMatrix type="matrix" values="0 0 0 0 1 0 0 0 0 1 0 0 0 0 1 0 0 0 0.8 0"/>
<feBlend mode="normal" in2="effect1_dropShadow" result="effect2_dropShadow"/>
<feBlend mode="normal" in="SourceGraphic" in2="effect2_dropShadow" result="shape"/>
</filter>
<linearGradient id="paint0_linear" x1="44" y1="14" x2="44" y2="74" gradientUnits="userSpaceOnUse">
<stop stop-color="#E24E4E"/>
<stop offset="1" stop-color="#751010"/>
</linearGradient>
<linearGradient id="paint1_linear" x1="27.7143" y1="32.5714" x2="71.5714" y2="72.2857" gradientUnits="userSpaceOnUse">
<stop stop-color="#FEFEFF"/>
<stop offset="1" stop-color="#C6CEDA"/>
</linearGradient>
</defs>
</svg>
