<svg width="451" height="256" viewBox="0 0 451 256" fill="none" xmlns="http://www.w3.org/2000/svg">
<g filter="url(#filter0_d)">
<path d="M131.188 190.141L10.25 129.391V121.094L131.188 53.3125V74.4062L40.9062 124.469V125.031L131.188 169.188V190.141Z" fill="url(#paint0_linear)"/>
<path d="M283.484 6.34375L186.734 241.469H165.219L261.688 6.34375H283.484Z" fill="url(#paint1_linear)"/>
<path d="M440.562 129.391L319.625 190.141V169.188L410.188 125.312V124.469L319.625 74.4062V53.3125L440.562 121.094V129.391Z" fill="url(#paint2_linear)"/>
<path d="M131.188 190.141L128.494 195.502L137.188 199.869V190.141H131.188ZM10.25 129.391H4.25V133.091L7.55675 134.752L10.25 129.391ZM10.25 121.094L7.31653 115.86L4.25 117.578V121.094H10.25ZM131.188 53.3125H137.188V43.0716L128.254 48.0785L131.188 53.3125ZM131.188 74.4062L134.097 79.6535L137.188 77.9399V74.4062H131.188ZM40.9062 124.469L37.9966 119.221L34.9062 120.935V124.469H40.9062ZM40.9062 125.031H34.9062V128.776L38.2701 130.421L40.9062 125.031ZM131.188 169.188H137.188V165.443L133.824 163.798L131.188 169.188ZM133.881 184.779L12.9433 124.029L7.55675 134.752L128.494 195.502L133.881 184.779ZM16.25 129.391V121.094H4.25V129.391H16.25ZM13.1835 126.328L134.121 58.5465L128.254 48.0785L7.31653 115.86L13.1835 126.328ZM125.188 53.3125V74.4062H137.188V53.3125H125.188ZM128.278 69.159L37.9966 119.221L43.8159 129.716L134.097 79.6535L128.278 69.159ZM34.9062 124.469V125.031H46.9062V124.469H34.9062ZM38.2701 130.421L128.551 174.577L133.824 163.798L43.5424 119.641L38.2701 130.421ZM125.188 169.188V190.141H137.188V169.188H125.188ZM283.484 6.34375L289.033 8.62691L292.441 0.34375H283.484V6.34375ZM186.734 241.469V247.469H190.754L192.283 243.752L186.734 241.469ZM165.219 241.469L159.668 239.191L156.272 247.469H165.219V241.469ZM261.688 6.34375V0.34375H257.664L256.137 4.06627L261.688 6.34375ZM277.936 4.06059L181.186 239.186L192.283 243.752L289.033 8.62691L277.936 4.06059ZM186.734 235.469H165.219V247.469H186.734V235.469ZM170.77 243.746L267.238 8.62123L256.137 4.06627L159.668 239.191L170.77 243.746ZM261.688 12.3438H283.484V0.34375H261.688V12.3438ZM440.562 129.391L443.256 134.752L446.562 133.091V129.391H440.562ZM319.625 190.141H313.625V199.869L322.318 195.502L319.625 190.141ZM319.625 169.188L317.009 163.788L313.625 165.427V169.188H319.625ZM410.188 125.312L412.803 130.712L416.188 129.073V125.312H410.188ZM410.188 124.469H416.188V120.93L413.09 119.218L410.188 124.469ZM319.625 74.4062H313.625V77.9452L316.722 79.6573L319.625 74.4062ZM319.625 53.3125L322.558 48.0785L313.625 43.0716V53.3125H319.625ZM440.562 121.094H446.562V117.578L443.496 115.86L440.562 121.094ZM437.869 124.029L316.932 184.779L322.318 195.502L443.256 134.752L437.869 124.029ZM325.625 190.141V169.188H313.625V190.141H325.625ZM322.241 174.587L412.803 130.712L407.572 119.913L317.009 163.788L322.241 174.587ZM416.188 125.312V124.469H404.188V125.312H416.188ZM413.09 119.218L322.528 69.1552L316.722 79.6573L407.285 129.72L413.09 119.218ZM325.625 74.4062V53.3125H313.625V74.4062H325.625ZM316.692 58.5465L437.629 126.328L443.496 115.86L322.558 48.0785L316.692 58.5465ZM434.562 121.094V129.391H446.562V121.094H434.562Z" fill="white"/>
</g>
<defs>
<filter id="filter0_d" x="0.25" y="0.34375" width="450.312" height="255.125" filterUnits="userSpaceOnUse" color-interpolation-filters="sRGB">
<feFlood flood-opacity="0" result="BackgroundImageFix"/>
<feColorMatrix in="SourceAlpha" type="matrix" values="0 0 0 0 0 0 0 0 0 0 0 0 0 0 0 0 0 0 127 0"/>
<feOffset dy="4"/>
<feGaussianBlur stdDeviation="2"/>
<feColorMatrix type="matrix" values="0 0 0 0 0 0 0 0 0 0 0 0 0 0 0 0 0 0 0.25 0"/>
<feBlend mode="normal" in2="BackgroundImageFix" result="effect1_dropShadow"/>
<feBlend mode="normal" in="SourceGraphic" in2="effect1_dropShadow" result="shape"/>
</filter>
<linearGradient id="paint0_linear" x1="242" y1="-21" x2="242" y2="287" gradientUnits="userSpaceOnUse">
<stop stop-color="#FF1855"/>
<stop offset="1" stop-color="#9028E0"/>
</linearGradient>
<linearGradient id="paint1_linear" x1="242" y1="-21" x2="242" y2="287" gradientUnits="userSpaceOnUse">
<stop stop-color="#FFD958"/>
<stop offset="1" stop-color="#FF6045"/>
</linearGradient>
<linearGradient id="paint2_linear" x1="242" y1="-21" x2="242" y2="287" gradientUnits="userSpaceOnUse">
<stop stop-color="#32CAFF"/>
<stop offset="1" stop-color="#1BFF80"/>
</linearGradient>
</defs>
</svg>
