<svg width="530" height="530" viewBox="0 0 530 530" fill="none" xmlns="http://www.w3.org/2000/svg">
<g filter="url(#filter0_d)">
<rect x="14" y="10" width="502" height="502" rx="251" fill="url(#paint0_linear)"/>
<rect x="9" y="5" width="512" height="512" rx="256" stroke="url(#paint1_linear)" stroke-width="10"/>
</g>
<g filter="url(#filter1_d)">
<circle cx="265" cy="261" r="197" fill="url(#paint2_linear)"/>
</g>
<g filter="url(#filter2_i)">
<rect x="97" y="95" width="337.012" height="335" rx="167.5" fill="white"/>
</g>
<path d="M232.281 218V172.5H247.156C252.094 172.5 255.802 173.521 258.281 175.562C260.781 177.604 262.031 180.625 262.031 184.625C262.031 186.75 261.427 188.635 260.219 190.281C259.01 191.906 257.365 193.167 255.281 194.062C257.74 194.75 259.677 196.062 261.094 198C262.531 199.917 263.25 202.208 263.25 204.875C263.25 208.958 261.927 212.167 259.281 214.5C256.635 216.833 252.896 218 248.062 218H232.281ZM238.281 196.719V213.094H248.188C250.979 213.094 253.177 212.375 254.781 210.938C256.406 209.479 257.219 207.479 257.219 204.938C257.219 199.458 254.24 196.719 248.281 196.719H238.281ZM238.281 191.906H247.344C249.969 191.906 252.062 191.25 253.625 189.938C255.208 188.625 256 186.844 256 184.594C256 182.094 255.271 180.281 253.812 179.156C252.354 178.01 250.135 177.438 247.156 177.438H238.281V191.906ZM277.531 218H271.75V184.188H277.531V218ZM271.281 175.219C271.281 174.281 271.562 173.49 272.125 172.844C272.708 172.198 273.562 171.875 274.688 171.875C275.812 171.875 276.667 172.198 277.25 172.844C277.833 173.49 278.125 174.281 278.125 175.219C278.125 176.156 277.833 176.938 277.25 177.562C276.667 178.188 275.812 178.5 274.688 178.5C273.562 178.5 272.708 178.188 272.125 177.562C271.562 176.938 271.281 176.156 271.281 175.219ZM294.656 176V184.188H300.969V188.656H294.656V209.625C294.656 210.979 294.938 212 295.5 212.688C296.062 213.354 297.021 213.688 298.375 213.688C299.042 213.688 299.958 213.562 301.125 213.312V218C299.604 218.417 298.125 218.625 296.688 218.625C294.104 218.625 292.156 217.844 290.844 216.281C289.531 214.719 288.875 212.5 288.875 209.625V188.656H282.719V184.188H288.875V176H294.656Z" fill="black"/>
<path d="M263.633 282.117C263.633 292.148 261.945 300.914 258.57 308.414C255.195 315.867 250.414 321.562 244.227 325.5C238.039 329.438 230.82 331.406 222.57 331.406C214.508 331.406 207.359 329.438 201.125 325.5C194.891 321.516 190.039 315.867 186.57 308.555C183.148 301.195 181.391 292.688 181.297 283.031V275.648C181.297 265.805 183.008 257.109 186.43 249.562C189.852 242.016 194.68 236.25 200.914 232.266C207.195 228.234 214.367 226.219 222.43 226.219C230.633 226.219 237.852 228.211 244.086 232.195C250.367 236.133 255.195 241.875 258.57 249.422C261.945 256.922 263.633 265.664 263.633 275.648V282.117ZM250.203 275.508C250.203 263.367 247.766 254.062 242.891 247.594C238.016 241.078 231.195 237.82 222.43 237.82C213.898 237.82 207.172 241.078 202.25 247.594C197.375 254.062 194.867 263.062 194.727 274.594V282.117C194.727 293.883 197.188 303.141 202.109 309.891C207.078 316.594 213.898 319.945 222.57 319.945C231.289 319.945 238.039 316.781 242.82 310.453C247.602 304.078 250.062 294.961 250.203 283.102V275.508ZM314.047 284.367C302.469 281.039 294.031 276.961 288.734 272.133C283.484 267.258 280.859 261.258 280.859 254.133C280.859 246.07 284.07 239.414 290.492 234.164C296.961 228.867 305.352 226.219 315.664 226.219C322.695 226.219 328.953 227.578 334.438 230.297C339.969 233.016 344.234 236.766 347.234 241.547C350.281 246.328 351.805 251.555 351.805 257.227H338.234C338.234 251.039 336.266 246.188 332.328 242.672C328.391 239.109 322.836 237.328 315.664 237.328C309.008 237.328 303.805 238.805 300.055 241.758C296.352 244.664 294.5 248.719 294.5 253.922C294.5 258.094 296.258 261.633 299.773 264.539C303.336 267.398 309.359 270.023 317.844 272.414C326.375 274.805 333.031 277.453 337.812 280.359C342.641 283.219 346.203 286.57 348.5 290.414C350.844 294.258 352.016 298.781 352.016 303.984C352.016 312.281 348.781 318.938 342.312 323.953C335.844 328.922 327.195 331.406 316.367 331.406C309.336 331.406 302.773 330.07 296.68 327.398C290.586 324.68 285.875 320.977 282.547 316.289C279.266 311.602 277.625 306.281 277.625 300.328H291.195C291.195 306.516 293.469 311.414 298.016 315.023C302.609 318.586 308.727 320.367 316.367 320.367C323.492 320.367 328.953 318.914 332.75 316.008C336.547 313.102 338.445 309.141 338.445 304.125C338.445 299.109 336.688 295.242 333.172 292.523C329.656 289.758 323.281 287.039 314.047 284.367Z" fill="black"/>
<defs>
<filter id="filter0_d" x="0" y="0" width="530" height="530" filterUnits="userSpaceOnUse" color-interpolation-filters="sRGB">
<feFlood flood-opacity="0" result="BackgroundImageFix"/>
<feColorMatrix in="SourceAlpha" type="matrix" values="0 0 0 0 0 0 0 0 0 0 0 0 0 0 0 0 0 0 127 0"/>
<feOffset dy="4"/>
<feGaussianBlur stdDeviation="2"/>
<feColorMatrix type="matrix" values="0 0 0 0 0 0 0 0 0 0 0 0 0 0 0 0 0 0 0.25 0"/>
<feBlend mode="normal" in2="BackgroundImageFix" result="effect1_dropShadow"/>
<feBlend mode="normal" in="SourceGraphic" in2="effect1_dropShadow" result="shape"/>
</filter>
<filter id="filter1_d" x="64" y="64" width="402" height="402" filterUnits="userSpaceOnUse" color-interpolation-filters="sRGB">
<feFlood flood-opacity="0" result="BackgroundImageFix"/>
<feColorMatrix in="SourceAlpha" type="matrix" values="0 0 0 0 0 0 0 0 0 0 0 0 0 0 0 0 0 0 127 0"/>
<feOffset dy="4"/>
<feGaussianBlur stdDeviation="2"/>
<feColorMatrix type="matrix" values="0 0 0 0 0 0 0 0 0 0 0 0 0 0 0 0 0 0 0.25 0"/>
<feBlend mode="normal" in2="BackgroundImageFix" result="effect1_dropShadow"/>
<feBlend mode="normal" in="SourceGraphic" in2="effect1_dropShadow" result="shape"/>
</filter>
<filter id="filter2_i" x="97" y="95" width="337.012" height="339" filterUnits="userSpaceOnUse" color-interpolation-filters="sRGB">
<feFlood flood-opacity="0" result="BackgroundImageFix"/>
<feBlend mode="normal" in="SourceGraphic" in2="BackgroundImageFix" result="shape"/>
<feColorMatrix in="SourceAlpha" type="matrix" values="0 0 0 0 0 0 0 0 0 0 0 0 0 0 0 0 0 0 127 0" result="hardAlpha"/>
<feOffset dy="4"/>
<feGaussianBlur stdDeviation="2"/>
<feComposite in2="hardAlpha" operator="arithmetic" k2="-1" k3="1"/>
<feColorMatrix type="matrix" values="0 0 0 0 0 0 0 0 0 0 0 0 0 0 0 0 0 0 0.25 0"/>
<feBlend mode="normal" in2="shape" result="effect1_innerShadow"/>
</filter>
<linearGradient id="paint0_linear" x1="265" y1="10" x2="265" y2="512" gradientUnits="userSpaceOnUse">
<stop stop-color="#9B9B9B"/>
<stop offset="1"/>
</linearGradient>
<linearGradient id="paint1_linear" x1="265" y1="10" x2="265" y2="512" gradientUnits="userSpaceOnUse">
<stop stop-color="#F0F0F0"/>
<stop offset="1" stop-color="#C8C8C8"/>
</linearGradient>
<linearGradient id="paint2_linear" x1="68" y1="64" x2="462" y2="458" gradientUnits="userSpaceOnUse">
<stop stop-color="white"/>
<stop offset="0.0001" stop-color="white"/>
<stop offset="0.140625" stop-color="#F0F0F0"/>
<stop offset="0.760417"/>
<stop offset="0.9999" stop-color="#C0C2C6"/>
</linearGradient>
</defs>
</svg>
