<svg width="512" height="512" viewBox="0 0 512 512" fill="none" xmlns="http://www.w3.org/2000/svg">
<rect width="512" height="512" rx="85" fill="url(#paint0_linear)"/>
<g filter="url(#filter0_d)">
<circle cx="256" cy="256" r="175" fill="url(#paint1_linear)"/>
</g>
<g filter="url(#filter1_i)">
<rect x="106" y="106" width="300" height="300" rx="150" fill="white"/>
</g>
<path d="M208.961 272V237.875H220.117C223.82 237.875 226.602 238.641 228.461 240.172C230.336 241.703 231.273 243.969 231.273 246.969C231.273 248.562 230.82 249.977 229.914 251.211C229.008 252.43 227.773 253.375 226.211 254.047C228.055 254.562 229.508 255.547 230.57 257C231.648 258.438 232.188 260.156 232.188 262.156C232.188 265.219 231.195 267.625 229.211 269.375C227.227 271.125 224.422 272 220.797 272H208.961ZM213.461 256.039V268.32H220.891C222.984 268.32 224.633 267.781 225.836 266.703C227.055 265.609 227.664 264.109 227.664 262.203C227.664 258.094 225.43 256.039 220.961 256.039H213.461ZM213.461 252.43H220.258C222.227 252.43 223.797 251.938 224.969 250.953C226.156 249.969 226.75 248.633 226.75 246.945C226.75 245.07 226.203 243.711 225.109 242.867C224.016 242.008 222.352 241.578 220.117 241.578H213.461V252.43ZM242.898 272H238.562V246.641H242.898V272ZM238.211 239.914C238.211 239.211 238.422 238.617 238.844 238.133C239.281 237.648 239.922 237.406 240.766 237.406C241.609 237.406 242.25 237.648 242.688 238.133C243.125 238.617 243.344 239.211 243.344 239.914C243.344 240.617 243.125 241.203 242.688 241.672C242.25 242.141 241.609 242.375 240.766 242.375C239.922 242.375 239.281 242.141 238.844 241.672C238.422 241.203 238.211 240.617 238.211 239.914ZM255.742 240.5V246.641H260.477V249.992H255.742V265.719C255.742 266.734 255.953 267.5 256.375 268.016C256.797 268.516 257.516 268.766 258.531 268.766C259.031 268.766 259.719 268.672 260.594 268.484V272C259.453 272.312 258.344 272.469 257.266 272.469C255.328 272.469 253.867 271.883 252.883 270.711C251.898 269.539 251.406 267.875 251.406 265.719V249.992H246.789V246.641H251.406V240.5H255.742ZM290.266 237.875V261.078C290.25 264.297 289.234 266.93 287.219 268.977C285.219 271.023 282.5 272.172 279.062 272.422L277.867 272.469C274.133 272.469 271.156 271.461 268.938 269.445C266.719 267.43 265.594 264.656 265.562 261.125V237.875H270.016V260.984C270.016 263.453 270.695 265.375 272.055 266.75C273.414 268.109 275.352 268.789 277.867 268.789C280.414 268.789 282.359 268.109 283.703 266.75C285.062 265.391 285.742 263.477 285.742 261.008V237.875H290.266ZM302.195 272H297.695V237.875H302.195V272Z" fill="url(#paint2_linear)"/>
<defs>
<filter id="filter0_d" x="77" y="81" width="358" height="358" filterUnits="userSpaceOnUse" color-interpolation-filters="sRGB">
<feFlood flood-opacity="0" result="BackgroundImageFix"/>
<feColorMatrix in="SourceAlpha" type="matrix" values="0 0 0 0 0 0 0 0 0 0 0 0 0 0 0 0 0 0 127 0"/>
<feOffset dy="4"/>
<feGaussianBlur stdDeviation="2"/>
<feColorMatrix type="matrix" values="0 0 0 0 0 0 0 0 0 0 0 0 0 0 0 0 0 0 0.25 0"/>
<feBlend mode="normal" in2="BackgroundImageFix" result="effect1_dropShadow"/>
<feBlend mode="normal" in="SourceGraphic" in2="effect1_dropShadow" result="shape"/>
</filter>
<filter id="filter1_i" x="106" y="106" width="300" height="304" filterUnits="userSpaceOnUse" color-interpolation-filters="sRGB">
<feFlood flood-opacity="0" result="BackgroundImageFix"/>
<feBlend mode="normal" in="SourceGraphic" in2="BackgroundImageFix" result="shape"/>
<feColorMatrix in="SourceAlpha" type="matrix" values="0 0 0 0 0 0 0 0 0 0 0 0 0 0 0 0 0 0 127 0" result="hardAlpha"/>
<feOffset dy="4"/>
<feGaussianBlur stdDeviation="2"/>
<feComposite in2="hardAlpha" operator="arithmetic" k2="-1" k3="1"/>
<feColorMatrix type="matrix" values="0 0 0 0 0 0 0 0 0 0 0 0 0 0 0 0 0 0 0.25 0"/>
<feBlend mode="normal" in2="shape" result="effect1_innerShadow"/>
</filter>
<linearGradient id="paint0_linear" x1="256" y1="0" x2="256" y2="512" gradientUnits="userSpaceOnUse">
<stop stop-color="#634483"/>
<stop offset="1" stop-color="#BB556D"/>
</linearGradient>
<linearGradient id="paint1_linear" x1="81" y1="81" x2="431" y2="431" gradientUnits="userSpaceOnUse">
<stop stop-color="white"/>
<stop offset="0.344286" stop-color="#FCFCFC"/>
<stop offset="0.734375" stop-color="#ACACAC"/>
<stop offset="1" stop-color="#454545"/>
</linearGradient>
<linearGradient id="paint2_linear" x1="169.482" y1="215.111" x2="223.504" y2="322.143" gradientUnits="userSpaceOnUse">
<stop stop-color="#62437F"/>
<stop offset="0.9999" stop-color="#FF5C00"/>
<stop offset="1" stop-color="#AE5B6D"/>
</linearGradient>
</defs>
</svg>
