<svg width="512" height="512" viewBox="0 0 512 512" fill="none" xmlns="http://www.w3.org/2000/svg">
<rect width="512" height="512" rx="85" fill="url(#paint0_linear)"/>
<g filter="url(#filter0_d)">
<circle cx="256" cy="256" r="175" fill="url(#paint1_linear)"/>
</g>
<g filter="url(#filter1_i)">
<rect x="106" y="106" width="300" height="300" rx="150" fill="white"/>
</g>
<path d="M184.961 216V181.875H196.117C199.82 181.875 202.602 182.641 204.461 184.172C206.336 185.703 207.273 187.969 207.273 190.969C207.273 192.562 206.82 193.977 205.914 195.211C205.008 196.43 203.773 197.375 202.211 198.047C204.055 198.562 205.508 199.547 206.57 201C207.648 202.438 208.188 204.156 208.188 206.156C208.188 209.219 207.195 211.625 205.211 213.375C203.227 215.125 200.422 216 196.797 216H184.961ZM189.461 200.039V212.32H196.891C198.984 212.32 200.633 211.781 201.836 210.703C203.055 209.609 203.664 208.109 203.664 206.203C203.664 202.094 201.43 200.039 196.961 200.039H189.461ZM189.461 196.43H196.258C198.227 196.43 199.797 195.938 200.969 194.953C202.156 193.969 202.75 192.633 202.75 190.945C202.75 189.07 202.203 187.711 201.109 186.867C200.016 186.008 198.352 185.578 196.117 185.578H189.461V196.43ZM218.898 216H214.562V190.641H218.898V216ZM214.211 183.914C214.211 183.211 214.422 182.617 214.844 182.133C215.281 181.648 215.922 181.406 216.766 181.406C217.609 181.406 218.25 181.648 218.688 182.133C219.125 182.617 219.344 183.211 219.344 183.914C219.344 184.617 219.125 185.203 218.688 185.672C218.25 186.141 217.609 186.375 216.766 186.375C215.922 186.375 215.281 186.141 214.844 185.672C214.422 185.203 214.211 184.617 214.211 183.914ZM231.742 184.5V190.641H236.477V193.992H231.742V209.719C231.742 210.734 231.953 211.5 232.375 212.016C232.797 212.516 233.516 212.766 234.531 212.766C235.031 212.766 235.719 212.672 236.594 212.484V216C235.453 216.312 234.344 216.469 233.266 216.469C231.328 216.469 229.867 215.883 228.883 214.711C227.898 213.539 227.406 211.875 227.406 209.719V193.992H222.789V190.641H227.406V184.5H231.742ZM266.266 181.875V205.078C266.25 208.297 265.234 210.93 263.219 212.977C261.219 215.023 258.5 216.172 255.062 216.422L253.867 216.469C250.133 216.469 247.156 215.461 244.938 213.445C242.719 211.43 241.594 208.656 241.562 205.125V181.875H246.016V204.984C246.016 207.453 246.695 209.375 248.055 210.75C249.414 212.109 251.352 212.789 253.867 212.789C256.414 212.789 258.359 212.109 259.703 210.75C261.062 209.391 261.742 207.477 261.742 205.008V181.875H266.266ZM278.195 216H273.695V181.875H278.195V216ZM211.211 256.039C211.211 259.383 210.648 262.305 209.523 264.805C208.398 267.289 206.805 269.188 204.742 270.5C202.68 271.812 200.273 272.469 197.523 272.469C194.836 272.469 192.453 271.812 190.375 270.5C188.297 269.172 186.68 267.289 185.523 264.852C184.383 262.398 183.797 259.562 183.766 256.344V253.883C183.766 250.602 184.336 247.703 185.477 245.188C186.617 242.672 188.227 240.75 190.305 239.422C192.398 238.078 194.789 237.406 197.477 237.406C200.211 237.406 202.617 238.07 204.695 239.398C206.789 240.711 208.398 242.625 209.523 245.141C210.648 247.641 211.211 250.555 211.211 253.883V256.039ZM206.734 253.836C206.734 249.789 205.922 246.688 204.297 244.531C202.672 242.359 200.398 241.273 197.477 241.273C194.633 241.273 192.391 242.359 190.75 244.531C189.125 246.688 188.289 249.688 188.242 253.531V256.039C188.242 259.961 189.062 263.047 190.703 265.297C192.359 267.531 194.633 268.648 197.523 268.648C200.43 268.648 202.68 267.594 204.273 265.484C205.867 263.359 206.688 260.32 206.734 256.367V253.836ZM238.703 259.602C238.703 263.461 237.82 266.57 236.055 268.93C234.289 271.289 231.898 272.469 228.883 272.469C225.805 272.469 223.383 271.492 221.617 269.539V281.75H217.281V246.641H221.242L221.453 249.453C223.219 247.266 225.672 246.172 228.812 246.172C231.859 246.172 234.266 247.32 236.031 249.617C237.812 251.914 238.703 255.109 238.703 259.203V259.602ZM234.367 259.109C234.367 256.25 233.758 253.992 232.539 252.336C231.32 250.68 229.648 249.852 227.523 249.852C224.898 249.852 222.93 251.016 221.617 253.344V265.461C222.914 267.773 224.898 268.93 227.57 268.93C229.648 268.93 231.297 268.109 232.516 266.469C233.75 264.812 234.367 262.359 234.367 259.109ZM254.758 272.469C251.32 272.469 248.523 271.344 246.367 269.094C244.211 266.828 243.133 263.805 243.133 260.023V259.227C243.133 256.711 243.609 254.469 244.562 252.5C245.531 250.516 246.875 248.969 248.594 247.859C250.328 246.734 252.203 246.172 254.219 246.172C257.516 246.172 260.078 247.258 261.906 249.43C263.734 251.602 264.648 254.711 264.648 258.758V260.562H247.469C247.531 263.062 248.258 265.086 249.648 266.633C251.055 268.164 252.836 268.93 254.992 268.93C256.523 268.93 257.82 268.617 258.883 267.992C259.945 267.367 260.875 266.539 261.672 265.508L264.32 267.57C262.195 270.836 259.008 272.469 254.758 272.469ZM254.219 249.734C252.469 249.734 251 250.375 249.812 251.656C248.625 252.922 247.891 254.703 247.609 257H260.312V256.672C260.188 254.469 259.594 252.766 258.531 251.562C257.469 250.344 256.031 249.734 254.219 249.734ZM273.789 246.641L273.93 249.828C275.867 247.391 278.398 246.172 281.523 246.172C286.883 246.172 289.586 249.195 289.633 255.242V272H285.297V255.219C285.281 253.391 284.859 252.039 284.031 251.164C283.219 250.289 281.945 249.852 280.211 249.852C278.805 249.852 277.57 250.227 276.508 250.977C275.445 251.727 274.617 252.711 274.023 253.93V272H269.688V246.641H273.789ZM195.016 312.789C191.156 311.68 188.344 310.32 186.578 308.711C184.828 307.086 183.953 305.086 183.953 302.711C183.953 300.023 185.023 297.805 187.164 296.055C189.32 294.289 192.117 293.406 195.555 293.406C197.898 293.406 199.984 293.859 201.812 294.766C203.656 295.672 205.078 296.922 206.078 298.516C207.094 300.109 207.602 301.852 207.602 303.742H203.078C203.078 301.68 202.422 300.062 201.109 298.891C199.797 297.703 197.945 297.109 195.555 297.109C193.336 297.109 191.602 297.602 190.352 298.586C189.117 299.555 188.5 300.906 188.5 302.641C188.5 304.031 189.086 305.211 190.258 306.18C191.445 307.133 193.453 308.008 196.281 308.805C199.125 309.602 201.344 310.484 202.938 311.453C204.547 312.406 205.734 313.523 206.5 314.805C207.281 316.086 207.672 317.594 207.672 319.328C207.672 322.094 206.594 324.312 204.438 325.984C202.281 327.641 199.398 328.469 195.789 328.469C193.445 328.469 191.258 328.023 189.227 327.133C187.195 326.227 185.625 324.992 184.516 323.43C183.422 321.867 182.875 320.094 182.875 318.109H187.398C187.398 320.172 188.156 321.805 189.672 323.008C191.203 324.195 193.242 324.789 195.789 324.789C198.164 324.789 199.984 324.305 201.25 323.336C202.516 322.367 203.148 321.047 203.148 319.375C203.148 317.703 202.562 316.414 201.391 315.508C200.219 314.586 198.094 313.68 195.016 312.789ZM211.633 315.086C211.633 312.602 212.117 310.367 213.086 308.383C214.07 306.398 215.43 304.867 217.164 303.789C218.914 302.711 220.906 302.172 223.141 302.172C226.594 302.172 229.383 303.367 231.508 305.758C233.648 308.148 234.719 311.328 234.719 315.297V315.602C234.719 318.07 234.242 320.289 233.289 322.258C232.352 324.211 231 325.734 229.234 326.828C227.484 327.922 225.469 328.469 223.188 328.469C219.75 328.469 216.961 327.273 214.82 324.883C212.695 322.492 211.633 319.328 211.633 315.391V315.086ZM215.992 315.602C215.992 318.414 216.641 320.672 217.938 322.375C219.25 324.078 221 324.93 223.188 324.93C225.391 324.93 227.141 324.07 228.438 322.352C229.734 320.617 230.383 318.195 230.383 315.086C230.383 312.305 229.719 310.055 228.391 308.336C227.078 306.602 225.328 305.734 223.141 305.734C221 305.734 219.273 306.586 217.961 308.289C216.648 309.992 215.992 312.43 215.992 315.602ZM255.812 325.492C254.125 327.477 251.648 328.469 248.383 328.469C245.68 328.469 243.617 327.688 242.195 326.125C240.789 324.547 240.078 322.219 240.062 319.141V302.641H244.398V319.023C244.398 322.867 245.961 324.789 249.086 324.789C252.398 324.789 254.602 323.555 255.695 321.086V302.641H260.031V328H255.906L255.812 325.492ZM278.898 306.531C278.242 306.422 277.531 306.367 276.766 306.367C273.922 306.367 271.992 307.578 270.977 310V328H266.641V302.641H270.859L270.93 305.57C272.352 303.305 274.367 302.172 276.977 302.172C277.82 302.172 278.461 302.281 278.898 302.5V306.531ZM292.609 324.93C294.156 324.93 295.508 324.461 296.664 323.523C297.82 322.586 298.461 321.414 298.586 320.008H302.688C302.609 321.461 302.109 322.844 301.188 324.156C300.266 325.469 299.031 326.516 297.484 327.297C295.953 328.078 294.328 328.469 292.609 328.469C289.156 328.469 286.406 327.32 284.359 325.023C282.328 322.711 281.312 319.555 281.312 315.555V314.828C281.312 312.359 281.766 310.164 282.672 308.242C283.578 306.32 284.875 304.828 286.562 303.766C288.266 302.703 290.273 302.172 292.586 302.172C295.43 302.172 297.789 303.023 299.664 304.727C301.555 306.43 302.562 308.641 302.688 311.359H298.586C298.461 309.719 297.836 308.375 296.711 307.328C295.602 306.266 294.227 305.734 292.586 305.734C290.383 305.734 288.672 306.531 287.453 308.125C286.25 309.703 285.648 311.992 285.648 314.992V315.812C285.648 318.734 286.25 320.984 287.453 322.562C288.656 324.141 290.375 324.93 292.609 324.93ZM318.086 328.469C314.648 328.469 311.852 327.344 309.695 325.094C307.539 322.828 306.461 319.805 306.461 316.023V315.227C306.461 312.711 306.938 310.469 307.891 308.5C308.859 306.516 310.203 304.969 311.922 303.859C313.656 302.734 315.531 302.172 317.547 302.172C320.844 302.172 323.406 303.258 325.234 305.43C327.062 307.602 327.977 310.711 327.977 314.758V316.562H310.797C310.859 319.062 311.586 321.086 312.977 322.633C314.383 324.164 316.164 324.93 318.32 324.93C319.852 324.93 321.148 324.617 322.211 323.992C323.273 323.367 324.203 322.539 325 321.508L327.648 323.57C325.523 326.836 322.336 328.469 318.086 328.469ZM317.547 305.734C315.797 305.734 314.328 306.375 313.141 307.656C311.953 308.922 311.219 310.703 310.938 313H323.641V312.672C323.516 310.469 322.922 308.766 321.859 307.562C320.797 306.344 319.359 305.734 317.547 305.734Z" fill="url(#paint2_linear)"/>
<defs>
<filter id="filter0_d" x="77" y="81" width="358" height="358" filterUnits="userSpaceOnUse" color-interpolation-filters="sRGB">
<feFlood flood-opacity="0" result="BackgroundImageFix"/>
<feColorMatrix in="SourceAlpha" type="matrix" values="0 0 0 0 0 0 0 0 0 0 0 0 0 0 0 0 0 0 127 0"/>
<feOffset dy="4"/>
<feGaussianBlur stdDeviation="2"/>
<feColorMatrix type="matrix" values="0 0 0 0 0 0 0 0 0 0 0 0 0 0 0 0 0 0 0.25 0"/>
<feBlend mode="normal" in2="BackgroundImageFix" result="effect1_dropShadow"/>
<feBlend mode="normal" in="SourceGraphic" in2="effect1_dropShadow" result="shape"/>
</filter>
<filter id="filter1_i" x="106" y="106" width="300" height="304" filterUnits="userSpaceOnUse" color-interpolation-filters="sRGB">
<feFlood flood-opacity="0" result="BackgroundImageFix"/>
<feBlend mode="normal" in="SourceGraphic" in2="BackgroundImageFix" result="shape"/>
<feColorMatrix in="SourceAlpha" type="matrix" values="0 0 0 0 0 0 0 0 0 0 0 0 0 0 0 0 0 0 127 0" result="hardAlpha"/>
<feOffset dy="4"/>
<feGaussianBlur stdDeviation="2"/>
<feComposite in2="hardAlpha" operator="arithmetic" k2="-1" k3="1"/>
<feColorMatrix type="matrix" values="0 0 0 0 0 0 0 0 0 0 0 0 0 0 0 0 0 0 0.25 0"/>
<feBlend mode="normal" in2="shape" result="effect1_innerShadow"/>
</filter>
<linearGradient id="paint0_linear" x1="256" y1="0" x2="256" y2="512" gradientUnits="userSpaceOnUse">
<stop stop-color="#FFE600"/>
<stop offset="1" stop-color="#FF3D00"/>
</linearGradient>
<linearGradient id="paint1_linear" x1="81" y1="81" x2="431" y2="431" gradientUnits="userSpaceOnUse">
<stop stop-color="white"/>
<stop offset="0.344286" stop-color="#FCFCFC"/>
<stop offset="0.734375" stop-color="#ACACAC"/>
<stop offset="1" stop-color="#454545"/>
</linearGradient>
<linearGradient id="paint2_linear" x1="129.116" y1="133.333" x2="330.434" y2="327.55" gradientUnits="userSpaceOnUse">
<stop stop-color="#EBFF00"/>
<stop offset="0.9999" stop-color="#FF5C00"/>
<stop offset="1" stop-color="white" stop-opacity="0"/>
</linearGradient>
</defs>
</svg>
