<svg width="530" height="530" viewBox="0 0 530 530" fill="none" xmlns="http://www.w3.org/2000/svg">
<g filter="url(#filter0_d)">
<rect x="14" y="10" width="502" height="502" rx="251" fill="url(#paint0_linear)"/>
<rect x="9" y="5" width="512" height="512" rx="256" stroke="url(#paint1_linear)" stroke-width="10"/>
</g>
<g filter="url(#filter1_d)">
<circle cx="265" cy="261" r="197" fill="url(#paint2_linear)"/>
</g>
<g filter="url(#filter2_i)">
<rect x="97" y="95" width="337.012" height="335" rx="167.5" fill="white"/>
</g>
<path d="M223.188 279.516C221.922 290.344 217.914 298.711 211.164 304.617C204.461 310.477 195.531 313.406 184.375 313.406C172.281 313.406 162.578 309.07 155.266 300.398C148 291.727 144.367 280.125 144.367 265.594V255.75C144.367 246.234 146.055 237.867 149.43 230.648C152.852 223.43 157.68 217.898 163.914 214.055C170.148 210.164 177.367 208.219 185.57 208.219C196.445 208.219 205.164 211.266 211.727 217.359C218.289 223.406 222.109 231.797 223.188 242.531H209.617C208.445 234.375 205.891 228.469 201.953 224.812C198.062 221.156 192.602 219.328 185.57 219.328C176.945 219.328 170.172 222.516 165.25 228.891C160.375 235.266 157.938 244.336 157.938 256.102V266.016C157.938 277.125 160.258 285.961 164.898 292.523C169.539 299.086 176.031 302.367 184.375 302.367C191.875 302.367 197.617 300.68 201.602 297.305C205.633 293.883 208.305 287.953 209.617 279.516H223.188ZM276.906 257.086H305.453V269.391H276.906V301.734H263.828V269.391H235.281V257.086H263.828V227.203H276.906V257.086ZM358.609 257.086H387.156V269.391H358.609V301.734H345.531V269.391H316.984V257.086H345.531V227.203H358.609V257.086Z" fill="black"/>
<defs>
<filter id="filter0_d" x="0" y="0" width="530" height="530" filterUnits="userSpaceOnUse" color-interpolation-filters="sRGB">
<feFlood flood-opacity="0" result="BackgroundImageFix"/>
<feColorMatrix in="SourceAlpha" type="matrix" values="0 0 0 0 0 0 0 0 0 0 0 0 0 0 0 0 0 0 127 0"/>
<feOffset dy="4"/>
<feGaussianBlur stdDeviation="2"/>
<feColorMatrix type="matrix" values="0 0 0 0 0 0 0 0 0 0 0 0 0 0 0 0 0 0 0.25 0"/>
<feBlend mode="normal" in2="BackgroundImageFix" result="effect1_dropShadow"/>
<feBlend mode="normal" in="SourceGraphic" in2="effect1_dropShadow" result="shape"/>
</filter>
<filter id="filter1_d" x="64" y="64" width="402" height="402" filterUnits="userSpaceOnUse" color-interpolation-filters="sRGB">
<feFlood flood-opacity="0" result="BackgroundImageFix"/>
<feColorMatrix in="SourceAlpha" type="matrix" values="0 0 0 0 0 0 0 0 0 0 0 0 0 0 0 0 0 0 127 0"/>
<feOffset dy="4"/>
<feGaussianBlur stdDeviation="2"/>
<feColorMatrix type="matrix" values="0 0 0 0 0 0 0 0 0 0 0 0 0 0 0 0 0 0 0.25 0"/>
<feBlend mode="normal" in2="BackgroundImageFix" result="effect1_dropShadow"/>
<feBlend mode="normal" in="SourceGraphic" in2="effect1_dropShadow" result="shape"/>
</filter>
<filter id="filter2_i" x="97" y="95" width="337.012" height="339" filterUnits="userSpaceOnUse" color-interpolation-filters="sRGB">
<feFlood flood-opacity="0" result="BackgroundImageFix"/>
<feBlend mode="normal" in="SourceGraphic" in2="BackgroundImageFix" result="shape"/>
<feColorMatrix in="SourceAlpha" type="matrix" values="0 0 0 0 0 0 0 0 0 0 0 0 0 0 0 0 0 0 127 0" result="hardAlpha"/>
<feOffset dy="4"/>
<feGaussianBlur stdDeviation="2"/>
<feComposite in2="hardAlpha" operator="arithmetic" k2="-1" k3="1"/>
<feColorMatrix type="matrix" values="0 0 0 0 0 0 0 0 0 0 0 0 0 0 0 0 0 0 0.25 0"/>
<feBlend mode="normal" in2="shape" result="effect1_innerShadow"/>
</filter>
<linearGradient id="paint0_linear" x1="265" y1="10" x2="265" y2="512" gradientUnits="userSpaceOnUse">
<stop stop-color="#659AD2"/>
<stop offset="1" stop-color="#004482"/>
</linearGradient>
<linearGradient id="paint1_linear" x1="265" y1="10" x2="265" y2="512" gradientUnits="userSpaceOnUse">
<stop stop-color="#F0F0F0"/>
<stop offset="1" stop-color="#C8C8C8"/>
</linearGradient>
<linearGradient id="paint2_linear" x1="68" y1="64" x2="462" y2="458" gradientUnits="userSpaceOnUse">
<stop stop-color="white"/>
<stop offset="0.0001" stop-color="white"/>
<stop offset="0.140625" stop-color="#F0F0F0"/>
<stop offset="0.760417" stop-color="#004482"/>
<stop offset="0.9999" stop-color="#9FBAF7"/>
<stop offset="1" stop-color="white"/>
</linearGradient>
</defs>
</svg>
