<svg width="530" height="530" viewBox="0 0 530 530" fill="none" xmlns="http://www.w3.org/2000/svg">
<g filter="url(#filter0_d)">
<rect x="14" y="10" width="502" height="502" rx="251" fill="url(#paint0_linear)"/>
<rect x="9" y="5" width="512" height="512" rx="256" stroke="url(#paint1_linear)" stroke-width="10"/>
</g>
<g filter="url(#filter1_d)">
<circle cx="265" cy="261" r="197" fill="url(#paint2_linear)"/>
</g>
<g filter="url(#filter2_i)">
<rect x="97" y="95" width="337.012" height="335" rx="167.5" fill="white"/>
</g>
<path d="M167.773 209.625H181.344V282.117C181.344 291.914 178.391 299.578 172.484 305.109C166.625 310.641 158.797 313.406 149 313.406C138.828 313.406 130.906 310.805 125.234 305.602C119.562 300.398 116.727 293.109 116.727 283.734H130.227C130.227 289.594 131.82 294.164 135.008 297.445C138.242 300.727 142.906 302.367 149 302.367C154.578 302.367 159.078 300.609 162.5 297.094C165.969 293.578 167.727 288.656 167.773 282.328V209.625ZM249.266 312C248.516 310.5 247.906 307.828 247.438 303.984C241.391 310.266 234.172 313.406 225.781 313.406C218.281 313.406 212.117 311.297 207.289 307.078C202.508 302.812 200.117 297.422 200.117 290.906C200.117 282.984 203.117 276.844 209.117 272.484C215.164 268.078 223.648 265.875 234.57 265.875H247.227V259.898C247.227 255.352 245.867 251.742 243.148 249.07C240.43 246.352 236.422 244.992 231.125 244.992C226.484 244.992 222.594 246.164 219.453 248.508C216.312 250.852 214.742 253.688 214.742 257.016H201.664C201.664 253.219 203 249.562 205.672 246.047C208.391 242.484 212.047 239.672 216.641 237.609C221.281 235.547 226.367 234.516 231.898 234.516C240.664 234.516 247.531 236.719 252.5 241.125C257.469 245.484 260.047 251.508 260.234 259.195V294.211C260.234 301.195 261.125 306.75 262.906 310.875V312H249.266ZM227.68 302.086C231.758 302.086 235.625 301.031 239.281 298.922C242.938 296.812 245.586 294.07 247.227 290.695V275.086H237.031C221.094 275.086 213.125 279.75 213.125 289.078C213.125 293.156 214.484 296.344 217.203 298.641C219.922 300.938 223.414 302.086 227.68 302.086ZM304.602 294.352L323.445 235.922H336.734L309.453 312H299.539L271.977 235.922H285.266L304.602 294.352ZM395.094 312C394.344 310.5 393.734 307.828 393.266 303.984C387.219 310.266 380 313.406 371.609 313.406C364.109 313.406 357.945 311.297 353.117 307.078C348.336 302.812 345.945 297.422 345.945 290.906C345.945 282.984 348.945 276.844 354.945 272.484C360.992 268.078 369.477 265.875 380.398 265.875H393.055V259.898C393.055 255.352 391.695 251.742 388.977 249.07C386.258 246.352 382.25 244.992 376.953 244.992C372.312 244.992 368.422 246.164 365.281 248.508C362.141 250.852 360.57 253.688 360.57 257.016H347.492C347.492 253.219 348.828 249.562 351.5 246.047C354.219 242.484 357.875 239.672 362.469 237.609C367.109 235.547 372.195 234.516 377.727 234.516C386.492 234.516 393.359 236.719 398.328 241.125C403.297 245.484 405.875 251.508 406.062 259.195V294.211C406.062 301.195 406.953 306.75 408.734 310.875V312H395.094ZM373.508 302.086C377.586 302.086 381.453 301.031 385.109 298.922C388.766 296.812 391.414 294.07 393.055 290.695V275.086H382.859C366.922 275.086 358.953 279.75 358.953 289.078C358.953 293.156 360.312 296.344 363.031 298.641C365.75 300.938 369.242 302.086 373.508 302.086Z" fill="black"/>
<defs>
<filter id="filter0_d" x="0" y="0" width="530" height="530" filterUnits="userSpaceOnUse" color-interpolation-filters="sRGB">
<feFlood flood-opacity="0" result="BackgroundImageFix"/>
<feColorMatrix in="SourceAlpha" type="matrix" values="0 0 0 0 0 0 0 0 0 0 0 0 0 0 0 0 0 0 127 0"/>
<feOffset dy="4"/>
<feGaussianBlur stdDeviation="2"/>
<feColorMatrix type="matrix" values="0 0 0 0 0 0 0 0 0 0 0 0 0 0 0 0 0 0 0.25 0"/>
<feBlend mode="normal" in2="BackgroundImageFix" result="effect1_dropShadow"/>
<feBlend mode="normal" in="SourceGraphic" in2="effect1_dropShadow" result="shape"/>
</filter>
<filter id="filter1_d" x="64" y="64" width="402" height="402" filterUnits="userSpaceOnUse" color-interpolation-filters="sRGB">
<feFlood flood-opacity="0" result="BackgroundImageFix"/>
<feColorMatrix in="SourceAlpha" type="matrix" values="0 0 0 0 0 0 0 0 0 0 0 0 0 0 0 0 0 0 127 0"/>
<feOffset dy="4"/>
<feGaussianBlur stdDeviation="2"/>
<feColorMatrix type="matrix" values="0 0 0 0 0 0 0 0 0 0 0 0 0 0 0 0 0 0 0.25 0"/>
<feBlend mode="normal" in2="BackgroundImageFix" result="effect1_dropShadow"/>
<feBlend mode="normal" in="SourceGraphic" in2="effect1_dropShadow" result="shape"/>
</filter>
<filter id="filter2_i" x="97" y="95" width="337.012" height="339" filterUnits="userSpaceOnUse" color-interpolation-filters="sRGB">
<feFlood flood-opacity="0" result="BackgroundImageFix"/>
<feBlend mode="normal" in="SourceGraphic" in2="BackgroundImageFix" result="shape"/>
<feColorMatrix in="SourceAlpha" type="matrix" values="0 0 0 0 0 0 0 0 0 0 0 0 0 0 0 0 0 0 127 0" result="hardAlpha"/>
<feOffset dy="4"/>
<feGaussianBlur stdDeviation="2"/>
<feComposite in2="hardAlpha" operator="arithmetic" k2="-1" k3="1"/>
<feColorMatrix type="matrix" values="0 0 0 0 0 0 0 0 0 0 0 0 0 0 0 0 0 0 0.25 0"/>
<feBlend mode="normal" in2="shape" result="effect1_innerShadow"/>
</filter>
<linearGradient id="paint0_linear" x1="265" y1="-156" x2="265" y2="512" gradientUnits="userSpaceOnUse">
<stop stop-color="#0074BD"/>
<stop offset="1" stop-color="#EA2D2E"/>
</linearGradient>
<linearGradient id="paint1_linear" x1="265" y1="10" x2="265" y2="512" gradientUnits="userSpaceOnUse">
<stop stop-color="#F0F0F0"/>
<stop offset="1" stop-color="#C8C8C8"/>
</linearGradient>
<linearGradient id="paint2_linear" x1="68" y1="64" x2="462" y2="458" gradientUnits="userSpaceOnUse">
<stop stop-color="white"/>
<stop offset="0.0001" stop-color="white"/>
<stop offset="0.140625" stop-color="#F0F0F0"/>
<stop offset="0.760417" stop-color="#EA2D2E"/>
<stop offset="0.9999" stop-color="#0074BD"/>
</linearGradient>
</defs>
</svg>
