<svg width="512" height="512" viewBox="0 0 512 512" fill="none" xmlns="http://www.w3.org/2000/svg">
<rect width="512" height="512" rx="85" fill="url(#paint0_linear)"/>
<g filter="url(#filter0_d)">
<path d="M95.627 212.168V240H86.252V168.906H112.473C120.253 168.906 126.34 170.892 130.734 174.863C135.161 178.835 137.375 184.092 137.375 190.635C137.375 197.536 135.21 202.858 130.881 206.602C126.584 210.312 120.415 212.168 112.375 212.168H95.627ZM95.627 204.502H112.473C117.486 204.502 121.327 203.33 123.996 200.986C126.665 198.61 128 195.192 128 190.732C128 186.501 126.665 183.115 123.996 180.576C121.327 178.037 117.665 176.719 113.01 176.621H95.627V204.502ZM173.459 195.273C172.092 195.046 170.611 194.932 169.016 194.932C163.091 194.932 159.071 197.454 156.955 202.5V240H147.922V187.168H156.711L156.857 193.271C159.82 188.551 164.019 186.191 169.455 186.191C171.213 186.191 172.548 186.419 173.459 186.875V195.273ZM178.439 213.096C178.439 207.92 179.449 203.265 181.467 199.131C183.518 194.997 186.35 191.807 189.963 189.561C193.609 187.314 197.759 186.191 202.414 186.191C209.608 186.191 215.419 188.682 219.846 193.662C224.305 198.643 226.535 205.267 226.535 213.535V214.17C226.535 219.313 225.542 223.936 223.557 228.037C221.604 232.106 218.788 235.28 215.109 237.559C211.464 239.837 207.264 240.977 202.512 240.977C195.35 240.977 189.54 238.486 185.08 233.506C180.653 228.525 178.439 221.934 178.439 213.73V213.096ZM187.521 214.17C187.521 220.029 188.872 224.733 191.574 228.281C194.309 231.829 197.954 233.604 202.512 233.604C207.102 233.604 210.747 231.813 213.449 228.232C216.151 224.619 217.502 219.574 217.502 213.096C217.502 207.301 216.118 202.614 213.352 199.033C210.617 195.42 206.971 193.613 202.414 193.613C197.954 193.613 194.357 195.387 191.623 198.936C188.889 202.484 187.521 207.562 187.521 214.17ZM235.666 213.145C235.666 205.039 237.587 198.529 241.428 193.613C245.269 188.665 250.298 186.191 256.516 186.191C262.701 186.191 267.6 188.307 271.213 192.539V165H280.246V240H271.945L271.506 234.336C267.893 238.763 262.863 240.977 256.418 240.977C250.298 240.977 245.301 238.47 241.428 233.457C237.587 228.444 235.666 221.901 235.666 213.828V213.145ZM244.699 214.17C244.699 220.16 245.936 224.847 248.41 228.232C250.884 231.618 254.302 233.311 258.664 233.311C264.393 233.311 268.576 230.739 271.213 225.596V201.328C268.511 196.348 264.361 193.857 258.762 193.857C254.335 193.857 250.884 195.566 248.41 198.984C245.936 202.402 244.699 207.464 244.699 214.17ZM326.926 234.775C323.41 238.91 318.251 240.977 311.447 240.977C305.816 240.977 301.519 239.349 298.557 236.094C295.627 232.806 294.146 227.956 294.113 221.543V187.168H303.146V221.299C303.146 229.307 306.402 233.311 312.912 233.311C319.813 233.311 324.403 230.739 326.682 225.596V187.168H335.715V240H327.121L326.926 234.775ZM370.676 233.604C373.898 233.604 376.714 232.627 379.123 230.674C381.532 228.721 382.867 226.279 383.127 223.35H391.672C391.509 226.377 390.467 229.258 388.547 231.992C386.626 234.727 384.055 236.908 380.832 238.535C377.642 240.163 374.257 240.977 370.676 240.977C363.482 240.977 357.753 238.584 353.488 233.799C349.257 228.981 347.141 222.406 347.141 214.072V212.559C347.141 207.415 348.085 202.842 349.973 198.838C351.861 194.834 354.562 191.725 358.078 189.512C361.626 187.298 365.809 186.191 370.627 186.191C376.551 186.191 381.467 187.965 385.373 191.514C389.312 195.062 391.411 199.668 391.672 205.332H383.127C382.867 201.914 381.564 199.115 379.221 196.934C376.91 194.72 374.045 193.613 370.627 193.613C366.037 193.613 362.473 195.273 359.934 198.594C357.427 201.882 356.174 206.65 356.174 212.9V214.609C356.174 220.697 357.427 225.384 359.934 228.672C362.44 231.96 366.021 233.604 370.676 233.604ZM414.084 174.375V187.168H423.947V194.15H414.084V226.914C414.084 229.03 414.523 230.625 415.402 231.699C416.281 232.741 417.779 233.262 419.895 233.262C420.936 233.262 422.368 233.066 424.191 232.676V240C421.815 240.651 419.504 240.977 417.258 240.977C413.221 240.977 410.178 239.756 408.127 237.314C406.076 234.873 405.051 231.406 405.051 226.914V194.15H395.432V187.168H405.051V174.375H414.084Z" fill="white"/>
</g>
<g filter="url(#filter1_d)">
<path d="M164.562 352H150.992L99.4531 273.109V352H85.8828V249.625H99.4531L151.133 328.867V249.625H164.562V352ZM218.07 353.406C207.758 353.406 199.367 350.031 192.898 343.281C186.43 336.484 183.195 327.414 183.195 316.07V313.68C183.195 306.133 184.625 299.406 187.484 293.5C190.391 287.547 194.422 282.906 199.578 279.578C204.781 276.203 210.406 274.516 216.453 274.516C226.344 274.516 234.031 277.773 239.516 284.289C245 290.805 247.742 300.133 247.742 312.273V317.688H196.203C196.391 325.188 198.57 331.258 202.742 335.898C206.961 340.492 212.305 342.789 218.773 342.789C223.367 342.789 227.258 341.852 230.445 339.977C233.633 338.102 236.422 335.617 238.812 332.523L246.758 338.711C240.383 348.508 230.82 353.406 218.07 353.406ZM216.453 285.203C211.203 285.203 206.797 287.125 203.234 290.969C199.672 294.766 197.469 300.109 196.625 307H234.734V306.016C234.359 299.406 232.578 294.297 229.391 290.688C226.203 287.031 221.891 285.203 216.453 285.203ZM330.219 334.07L344.844 275.922H357.852L335.703 352H325.156L306.664 294.344L288.664 352H278.117L256.039 275.922H268.977L283.953 332.875L301.672 275.922H312.148L330.219 334.07ZM415.438 331.82C415.438 328.305 414.102 325.586 411.43 323.664C408.805 321.695 404.188 320.008 397.578 318.602C391.016 317.195 385.789 315.508 381.898 313.539C378.055 311.57 375.195 309.227 373.32 306.508C371.492 303.789 370.578 300.555 370.578 296.805C370.578 290.57 373.203 285.297 378.453 280.984C383.75 276.672 390.5 274.516 398.703 274.516C407.328 274.516 414.312 276.742 419.656 281.195C425.047 285.648 427.742 291.344 427.742 298.281H414.664C414.664 294.719 413.141 291.648 410.094 289.07C407.094 286.492 403.297 285.203 398.703 285.203C393.969 285.203 390.266 286.234 387.594 288.297C384.922 290.359 383.586 293.055 383.586 296.383C383.586 299.523 384.828 301.891 387.312 303.484C389.797 305.078 394.273 306.602 400.742 308.055C407.258 309.508 412.531 311.242 416.562 313.258C420.594 315.273 423.57 317.711 425.492 320.57C427.461 323.383 428.445 326.828 428.445 330.906C428.445 337.703 425.727 343.164 420.289 347.289C414.852 351.367 407.797 353.406 399.125 353.406C393.031 353.406 387.641 352.328 382.953 350.172C378.266 348.016 374.586 345.016 371.914 341.172C369.289 337.281 367.977 333.086 367.977 328.586H380.984C381.219 332.945 382.953 336.414 386.188 338.992C389.469 341.523 393.781 342.789 399.125 342.789C404.047 342.789 407.984 341.805 410.938 339.836C413.938 337.82 415.438 335.148 415.438 331.82Z" fill="white"/>
</g>
<defs>
<filter id="filter0_d" x="82.252" y="165" width="345.939" height="83.9766" filterUnits="userSpaceOnUse" color-interpolation-filters="sRGB">
<feFlood flood-opacity="0" result="BackgroundImageFix"/>
<feColorMatrix in="SourceAlpha" type="matrix" values="0 0 0 0 0 0 0 0 0 0 0 0 0 0 0 0 0 0 127 0"/>
<feOffset dy="4"/>
<feGaussianBlur stdDeviation="2"/>
<feColorMatrix type="matrix" values="0 0 0 0 0 0 0 0 0 0 0 0 0 0 0 0 0 0 0.25 0"/>
<feBlend mode="normal" in2="BackgroundImageFix" result="effect1_dropShadow"/>
<feBlend mode="normal" in="SourceGraphic" in2="effect1_dropShadow" result="shape"/>
</filter>
<filter id="filter1_d" x="81.8828" y="249.625" width="350.562" height="111.781" filterUnits="userSpaceOnUse" color-interpolation-filters="sRGB">
<feFlood flood-opacity="0" result="BackgroundImageFix"/>
<feColorMatrix in="SourceAlpha" type="matrix" values="0 0 0 0 0 0 0 0 0 0 0 0 0 0 0 0 0 0 127 0"/>
<feOffset dy="4"/>
<feGaussianBlur stdDeviation="2"/>
<feColorMatrix type="matrix" values="0 0 0 0 0 0 0 0 0 0 0 0 0 0 0 0 0 0 0.25 0"/>
<feBlend mode="normal" in2="BackgroundImageFix" result="effect1_dropShadow"/>
<feBlend mode="normal" in="SourceGraphic" in2="effect1_dropShadow" result="shape"/>
</filter>
<linearGradient id="paint0_linear" x1="256" y1="0" x2="256" y2="512" gradientUnits="userSpaceOnUse">
<stop stop-color="#FF9898"/>
<stop offset="1" stop-color="#FF4646"/>
</linearGradient>
</defs>
</svg>
