<svg width="85" height="143" viewBox="0 0 85 143" fill="none" xmlns="http://www.w3.org/2000/svg">
<path d="M78.9902 71.5986C78.9902 80.137 77.4811 87.623 74.4629 94.0566C71.4447 100.49 67.1159 105.454 61.4766 108.949C55.877 112.444 49.4434 114.191 42.1758 114.191C34.9876 114.191 28.5739 112.464 22.9346 109.009C17.2952 105.554 12.9268 100.629 9.8291 94.2354C6.73145 87.8018 5.16276 80.415 5.12305 72.0752V67.7861C5.12305 59.2477 6.65202 51.7419 9.70996 45.2686C12.8076 38.7555 17.1562 33.7715 22.7559 30.3164C28.3952 26.8216 34.8288 25.0742 42.0566 25.0742C49.2845 25.0742 55.6982 26.8216 61.2979 30.3164C66.9372 33.7715 71.2858 38.7555 74.3438 45.2686C77.4414 51.7419 78.9902 59.2279 78.9902 67.7266V71.5986ZM60.8809 67.667C60.8809 58.5726 59.2526 51.6624 55.9961 46.9365C52.7396 42.2106 48.0931 39.8477 42.0566 39.8477C36.0599 39.8477 31.4333 42.1908 28.1768 46.877C24.9202 51.5234 23.2721 58.3542 23.2324 67.3691V71.5986C23.2324 80.4548 24.8607 87.3252 28.1172 92.21C31.3737 97.0947 36.0599 99.5371 42.1758 99.5371C48.1725 99.5371 52.7793 97.194 55.9961 92.5078C59.2129 87.7819 60.8411 80.9115 60.8809 71.8965V67.667Z" fill="#2B0A1A"/>
<line x1="5" y1="128.5" x2="79" y2="128.5" stroke="#2B0A1A" stroke-width="11"/>
</svg>
